<?xml version="1.0" standalone="no"?>
<!DOCTYPE svg PUBLIC "-//W3C//DTD SVG 1.1//EN" "http://www.w3.org/Graphics/SVG/1.1/DTD/svg11.dtd" >
<svg xmlns="http://www.w3.org/2000/svg">
<metadata></metadata>
<defs>
<font id="SSGizmo" >
<font-face font-family="SS Gizmo" units-per-em="2048" ascent="2176" descent="-640" />
<missing-glyph  />
<glyph  horiz-adv-x="2048"  />
<glyph unicode="+" horiz-adv-x="2048" d="M1696 1120v-160h-608v-608h-160v608h-608v160h608v608h160v-608h608z" />
<glyph unicode="-" horiz-adv-x="2048" d="M1729 895h-1377v162h1377v-162z" />
<glyph unicode="&#x201c;" horiz-adv-x="2048" d="M1408 1184h544v-800h-832v768q0 246 135 379t377 133v-160q-190 0 -271 -83.5t-81 -268.5v-608h512v480h-384v160zM384 1024v160h544v-800h-832v768q0 246 135 379t377 133v-160q-190 0 -271 -83.5t-81 -268.5v-608h512v480h-384z" />
<glyph unicode="&#x201d;" horiz-adv-x="2048" d="M96 864v800h832v-768q0 -246 -135 -379t-377 -133v160q190 0 271 83.5t81 268.5v608h-512v-480h384v-160h-544zM1120 1664h832v-768q0 -246 -135 -379t-377 -133v160q190 0 271 83.5t81 268.5v608h-512v-480h384v-160h-544v800z" />
<glyph unicode="&#x2139;" horiz-adv-x="2048" d="M1040 1792q159 0 304 -62t250.5 -167.5t167.5 -250.5t62 -304q0 -157 -59.5 -300t-170.5 -254t-254 -170.5t-300 -59.5q-159 0 -304 62t-250.5 167.5t-167.5 250.5t-62 304q0 157 59.5 300t170.5 254t254 170.5t300 59.5zM1486 562q89 89 136.5 204.5t47.5 241.5
q0 171 -84.5 316t-229.5 229.5t-316 84.5q-126 0 -241.5 -47.5t-204.5 -136.5t-136.5 -204.5t-47.5 -241.5q0 -171 84.5 -316t229.5 -229.5t316 -84.5q127 0 242 47.5t204 136.5zM960 1248v160h160v-160h-160zM960 608v544h160v-544h-160z" />
<glyph unicode="&#x21ba;" horiz-adv-x="2048" d="M1104 1792q159 0 304 -62t250.5 -167.5t167.5 -250.5t62 -304t-62 -304t-167.5 -250.5t-250.5 -167.5t-304 -62q-199 0 -371 93t-280.5 254.5t-128.5 356.5h162q30 -231 206 -387.5t412 -156.5q127 0 242.5 49.5t199 133t133 199t49.5 242.5t-49.5 242.5t-133 199
t-199 133t-242.5 49.5q-133 0 -245 -50t-220 -157q-100 -102 -207 -209h304v-160h-576v576h160v-302q34 34 106.5 107.5t99.5 100.5q131 130 272 192t306 62z" />
<glyph unicode="&#x21bb;" horiz-adv-x="2048" d="M1312 1056v160h304q-34 34 -107 108t-100 101q-108 107 -220 157t-245 50q-127 0 -242.5 -49.5t-199 -133t-133 -199t-49.5 -242.5t49.5 -242.5t133 -199t199 -133t242.5 -49.5q156 0 291 72t221.5 196.5t105.5 275.5h161q-20 -195 -128 -356.5t-280 -254.5t-371 -93
q-159 0 -304 62t-250.5 167.5t-167.5 250.5t-62 304t62 304t167.5 250.5t250.5 167.5t304 62q165 0 306 -62t272 -192q27 -27 99.5 -100.5t106.5 -107.5v302h160v-576h-576z" />
<glyph unicode="&#x22c6;" horiz-adv-x="2048" d="M1663 53l-639 393l-639 -393l180 724l-576 482l752 54l283 689l283 -689l752 -54l-576 -482zM1024 634l389 -239l-109 441l349 291l-456 33l-173 421l-173 -421l-456 -33l349 -291l-109 -441z" />
<glyph unicode="&#x2302;" horiz-adv-x="2048" d="M1024 1920l915 -908l-112 -114l-803 796l-803 -796l-112 114zM1536 512v494l160 -159v-495h-544v512h-256v-512h-544v495l160 159v-494h224v512h576v-512h224z" />
<glyph unicode="&#x2316;" horiz-adv-x="2048" d="M1540 1540q106 -106 163 -243.5t57 -288.5t-57 -288.5t-163 -243.5t-243.5 -163t-288.5 -57t-288.5 57t-243.5 163t-163 243.5t-57 288.5t57 288.5t163 243.5t243.5 163t288.5 57t288.5 -57t243.5 -163zM1427 589q141 142 167 339h-250v160h250q-26 197 -167 339
q-142 141 -339 167v-250h-160v250q-197 -26 -339 -167q-141 -142 -167 -339h250v-160h-250q26 -197 167 -339q142 -141 339 -167v250h160v-250q197 26 339 167zM1008 1120q46 0 79 -33t33 -79t-33 -79t-79 -33t-79 33t-33 79t33 79t79 33z" />
<glyph unicode="&#x232b;" horiz-adv-x="2048" d="M651 1696h1365v-1376h-1364l-605 679zM1856 480v1056h-1131l-466 -536l465 -520h1132zM990 669l-113 113l227 226l-227 226l113 113l227 -226l226 226l113 -113l-226 -226l226 -226l-113 -113l-226 226z" />
<glyph unicode="&#x2399;" horiz-adv-x="2048" d="M1808 1440q86 0 147 -61t61 -147v-640q0 -86 -61 -147t-147 -61h-80v160h80q20 0 34 14t14 34v640q0 20 -14 34t-34 14h-1568q-20 0 -34 -14t-14 -34v-640q0 -20 14 -34t34 -14h80v-160h-80q-86 0 -147 61t-61 147v640q0 86 61 147t147 61h208v480h1152v-480h208z
M608 1760v-320h832v320h-832zM448 160v704h1152v-704h-1152zM608 704v-384h832v384h-832zM1728 1152v-160h-160v160h160z" />
<glyph unicode="&#x23cf;" horiz-adv-x="2048" d="M1664 416h-1280v480h1280v-480zM544 576h960v160h-960v-160zM1543 1047l-519 520l-519 -520l-114 114l633 632l633 -632z" />
<glyph unicode="&#x23e9;" horiz-adv-x="2048" d="M489 391l-114 114l520 519l-520 519l114 114l632 -633zM1096 391l-113 114l520 519l-520 519l113 114l633 -633z" />
<glyph unicode="&#x23ea;" horiz-adv-x="2048" d="M1559 391l-632 633l632 633l114 -114l-520 -519l520 -519zM952 391l-633 633l633 633l113 -114l-520 -519l520 -519z" />
<glyph unicode="&#x23ed;" horiz-adv-x="2048" d="M1632 384h-480v1280h480v-1280zM1312 544h160v960h-160v-960zM456 391l-113 114l520 519l-520 519l113 114l633 -633z" />
<glyph unicode="&#x23ee;" horiz-adv-x="2048" d="M896 384h-480v1280h480v-1280zM576 544h160v960h-160v-960zM1592 391l-633 633l633 633l113 -114l-520 -519l520 -519z" />
<glyph unicode="&#x23f0;" horiz-adv-x="2048" d="M1040 1792q159 0 304 -62t250.5 -167.5t167.5 -250.5t62 -304q0 -284 -180 -499l179 -255l-131 -92l-163 233q-214 -171 -489 -171q-274 0 -489 172l-166 -234l-130 92l180 256q-179 217 -179 498q0 159 62 304t167.5 250.5t250.5 167.5t304 62zM1040 378
q126 0 241.5 47.5t204.5 136.5t136.5 204.5t47.5 241.5q0 171 -84.5 316t-229.5 229.5t-316 84.5t-316 -84.5t-229.5 -229.5t-84.5 -316t84.5 -316t229.5 -229.5t316 -84.5zM960 1038v434h160v-524l-406 -248l-84 136zM1458 2014l480 -384l-100 -125l-480 384zM622 2014
l100 -125l-480 -384l-100 125z" />
<glyph unicode="&#x23f1;" horiz-adv-x="2048" d="M1604 1552q104 -108 162 -248.5t58 -295.5q0 -157 -59.5 -300t-170.5 -254t-254 -170.5t-300 -59.5q-159 0 -304 62t-250.5 167.5t-167.5 250.5t-62 304q0 149 55 286.5t148.5 240.5t224 170.5t276.5 82.5v132h-160v160h480v-160h-160v-132q199 -21 362 -133l142 172
l123 -102zM1486 562q89 89 136.5 204.5t47.5 241.5q0 171 -84.5 316t-229.5 229.5t-316 84.5t-316 -84.5t-229.5 -229.5t-84.5 -316t84.5 -316t229.5 -229.5t316 -84.5q126 0 241.5 47.5t204.5 136.5zM1120 1128q64 -43 64 -120q0 -59 -42.5 -101.5t-101.5 -42.5
t-101.5 42.5t-42.5 101.5q0 77 64 120v344h160v-344z" />
<glyph unicode="&#x23f2;" horiz-adv-x="2048" d="M1040 1792q159 0 304 -62t250.5 -167.5t167.5 -250.5t62 -304q0 -157 -59.5 -300t-170.5 -254t-254 -170.5t-300 -59.5q-159 0 -304 62t-250.5 167.5t-167.5 250.5t-62 304t62 304t167.5 250.5t250.5 167.5t304 62zM1486 562q89 89 136.5 204.5t47.5 241.5
q0 171 -84.5 316t-229.5 229.5t-316 84.5t-316 -84.5t-229.5 -229.5t-84.5 -316t84.5 -316t229.5 -229.5t316 -84.5q126 0 241.5 47.5t204.5 136.5zM1120 1472v-434l330 -202l-84 -136l-406 248v524h160z" />
<glyph unicode="&#x2421;" horiz-adv-x="2048" d="M1583 1470l-430 -430l430 -430l-113 -113l-430 430l-430 -430l-113 113l430 430l-430 430l113 113l430 -430l430 430z" />
<glyph unicode="&#x25a0;" horiz-adv-x="2048" d="M1728 320h-1408v1408h1408v-1408zM480 480h1088v1088h-1088v-1088z" />
<glyph unicode="&#x25b6;" horiz-adv-x="2048" d="M352 302v1444l1443 -722zM512 1487v-926l925 463z" />
<glyph unicode="&#x25bb;" horiz-adv-x="2048" d="M825 316l-114 113l605 605l-605 605l114 113l718 -718z" />
<glyph unicode="&#x25c5;" horiz-adv-x="2048" d="M1255 316l-718 718l718 718l113 -113l-605 -605l605 -605z" />
<glyph unicode="&#x25ce;" horiz-adv-x="2048" d="M1008 1152q59 0 101.5 -42.5t42.5 -101.5t-42.5 -101.5t-101.5 -42.5t-101.5 42.5t-42.5 101.5t42.5 101.5t101.5 42.5zM1756 1088h228v-160h-228q-28 -263 -216.5 -451.5t-451.5 -216.5v-228h-160v228q-263 28 -451.5 216.5t-216.5 451.5h-228v160h228
q28 263 216.5 451.5t451.5 216.5v228h160v-228q263 -28 451.5 -216.5t216.5 -451.5zM1008 416q120 0 230 47t189 126t126 189t47 230t-47 230t-126 189t-189 126t-230 47t-230 -47t-189 -126t-126 -189t-47 -230t47 -230t126 -189t189 -126t230 -47z" />
<glyph unicode="&#x25cf;" horiz-adv-x="2048" d="M1024 256q-154 0 -294 58t-249 167t-167 249t-58 294t58 294t167 249t249 167t294 58t294 -58t249 -167t167 -249t58 -294t-58 -294t-167 -249t-249 -167t-294 -58zM1024 1638q-123 0 -235 -46.5t-199 -133.5t-133.5 -199t-46.5 -235t46.5 -235t133.5 -199t199 -133.5
t235 -46.5t235 46.5t199 133.5t133.5 199t46.5 235t-46.5 235t-133.5 199t-199 133.5t-235 46.5z" />
<glyph unicode="&#x2600;" horiz-adv-x="2048" d="M470 1040q0 -35 7 -80h-445v160h445q-7 -46 -7 -80zM1603 1120h445v-160h-445q7 45 7 80q0 34 -7 80zM1495 1382q-50 64 -114 113l315 314l113 -113zM585 698q46 -60 113 -113l-314 -314l-113 113zM1120 1603q-45 7 -80 7t-80 -7v445h160v-445zM960 477q46 -7 80 -7t80 7
v-445h-160v445zM1381 585q61 45 114 113l314 -314l-113 -113zM698 1495q-67 -53 -113 -113l-314 314l113 113zM1040 1472q178 0 305 -127t127 -305t-127 -305t-305 -127t-305 127t-127 305t127 305t305 127zM1040 765q114 0 194.5 80.5t80.5 194.5t-80.5 194.5t-194.5 80.5
t-194.5 -80.5t-80.5 -194.5t80.5 -194.5t194.5 -80.5z" />
<glyph unicode="&#x2601;" horiz-adv-x="2048" d="M1488 320h-999q-175 0 -300 125.5t-125 301.5q0 141 74.5 249t206.5 159q2 251 156 418q84 90 201 138.5t252 48.5q206 0 368.5 -125.5t216.5 -324.5q199 -33 322 -168t123 -323q0 -135 -66.5 -250t-181 -182t-248.5 -67zM954 1600q-102 0 -188.5 -35t-147.5 -101
q-128 -138 -111 -361l5 -67l-65 -16q-105 -27 -164 -99.5t-59 -173.5q0 -110 78 -188.5t187 -78.5h999q139 0 237.5 99.5t98.5 239.5q0 137 -99.5 232t-256.5 107l-63 5l-10 61q-29 164 -153.5 270t-287.5 106z" />
<glyph unicode="&#x2602;" horiz-adv-x="2048" d="M1008 1920q172 0 329 -67t271 -181t181 -271t67 -329v-80h-1696v80q0 172 67 329t181 271t271 181t329 67zM325 1152h1366q-19 169 -114.5 308t-245.5 219.5t-323 80.5t-323 -80.5t-245.5 -219.5t-114.5 -308zM1344 446v66h160v-66q0 -118 -84.5 -202t-203.5 -84
t-203.5 84t-84.5 202v418h160v-418q0 -52 37.5 -89t90.5 -37t90.5 37t37.5 89z" />
<glyph unicode="&#x2607;" horiz-adv-x="2048" d="M1571 1534q199 -33 322 -168t123 -323q0 -135 -66.5 -250t-181 -182t-248.5 -67h-180l163 160h17q139 0 237.5 99.5t98.5 239.5q0 137 -99.5 232t-256.5 107l-63 5l-10 61q-29 164 -153.5 270t-287.5 106q-209 0 -336 -136q-128 -138 -111 -361l5 -67l-65 -16
q-105 -26 -164 -98.5t-59 -174.5q0 -110 78 -188.5t187 -78.5h76l-70 -160h-6q-176 0 -300.5 125t-124.5 302q0 141 74.5 249t206.5 159q2 251 156 418q84 90 201 138.5t252 48.5q206 0 368.5 -125.5t216.5 -324.5zM1192 992l-125 -288h254l-681 -672l201 512h-173l195 448
h329z" />
<glyph unicode="&#x260f;" horiz-adv-x="2048" d="M1120 1344v160h512v-160h-512zM1184 1088q-26 0 -45 19t-19 45t19 45t45 19t45 -19t19 -45t-19 -45t-45 -19zM1376 1216q26 0 45 -19t19 -45t-19 -45t-45 -19t-45 19t-19 45t19 45t45 19zM1568 1088q-26 0 -45 19t-19 45t19 45t45 19t45 -19t19 -45t-19 -45t-45 -19z
M1184 896q-26 0 -45 19t-19 45t19 45t45 19t45 -19t19 -45t-19 -45t-45 -19zM1376 1024q26 0 45 -19t19 -45t-19 -45t-45 -19t-45 19t-19 45t19 45t45 19zM1568 896q-26 0 -45 19t-19 45t19 45t45 19t45 -19t19 -45t-19 -45t-45 -19zM1184 832q26 0 45 -19t19 -45t-19 -45
t-45 -19t-45 19t-19 45t19 45t45 19zM1376 832q26 0 45 -19t19 -45t-19 -45t-45 -19t-45 19t-19 45t19 45t45 19zM1568 704q-26 0 -45 19t-19 45t19 45t45 19t45 -19t19 -45t-19 -45t-45 -19zM1925 1766q91 -325 91 -662t-91 -661q-7 -26 -28.5 -42.5t-48.5 -16.5h-888v-64
q0 -93 -65.5 -158.5t-158.5 -65.5q-76 0 -135.5 44.5t-79.5 115.5h215q26 0 45 19t19 45v224h993q69 264 69 560t-69 560h-833v-992h-160v1072q0 33 23 56.5t56 23.5h969q27 0 48.5 -16.5t28.5 -41.5zM671 464q0 -33 -23.5 -56.5t-56.5 -23.5h-320q-26 0 -47.5 15.5
t-29.5 41.5q-98 326 -98 663t98 663q8 26 29.5 41.5t47.5 15.5h320q33 0 56.5 -23.5t23.5 -56.5v-62v-62v-60t0.5 -56t0.5 -50v-43v-33v-22v-7q0 -26 -15.5 -47.5t-40.5 -28.5l-72 -23v-292l72 -23q25 -8 40.5 -29t15.5 -47v-7v-21.5v-32.5v-42.5t-0.5 -50t-0.5 -56.5v-60
v-62.5v-62.5zM440 824q-25 8 -40.5 29t-15.5 47v401q0 32 15.5 53.5t40.5 29.5l73 23q-1 60 -1 257h-187q-75 -264 -75 -560t75 -560h187q0 197 1 256z" />
<glyph unicode="&#x2614;" horiz-adv-x="2048" d="M1571 1534q199 -33 322 -168.5t123 -323.5q0 -196 -131.5 -339t-323.5 -159l46 170q109 30 179 121t70 207q0 137 -99.5 232t-256.5 107l-63 5l-10 61q-29 164 -153.5 270.5t-287.5 106.5q-208 0 -336 -137t-111 -361l5 -67l-65 -16q-105 -27 -164 -99.5t-59 -173.5
q0 -85 47.5 -153t124.5 -98l-43 -155q-128 44 -208.5 155t-80.5 251q0 141 74.5 249t206.5 159q2 253 156 418q84 91 201 139.5t252 48.5q206 0 368.5 -125.5t216.5 -324.5zM706 960q22 -6 39.5 -86.5t5.5 -125.5q-11 -44 -45 -63t-75 -8q-43 11 -62.5 44.5t-7.5 77.5
q13 44 68.5 105t76.5 56zM610 576q22 -6 39.5 -86.5t5.5 -125.5q-11 -44 -45 -63t-75 -8q-42 11 -62 44.5t-8 77.5q13 45 68.5 105.5t76.5 55.5zM1122 1088q22 -6 39.5 -86.5t5.5 -125.5q-11 -44 -44.5 -63t-75.5 -8t-62 45t-8 77q13 45 68.5 105.5t76.5 55.5zM1026 704
q22 -6 39 -86t6 -126q-10 -44 -44 -63t-77 -8q-41 11 -61 45t-8 77q13 44 68.5 105t76.5 56zM930 352q22 -6 39.5 -86.5t5.5 -125.5q-10 -44 -44 -63t-76 -8t-62 45t-8 77q13 44 68.5 105t76.5 56zM1410 864q22 -6 39.5 -86.5t5.5 -125.5q-10 -44 -44 -63t-76 -8t-62 45
t-8 77q13 44 68.5 105t76.5 56zM1314 480q22 -6 39.5 -86.5t5.5 -125.5q-10 -44 -44 -63t-76 -8t-62 45t-8 77q13 44 68.5 105t76.5 56z" />
<glyph unicode="&#x2615;" horiz-adv-x="2048" d="M832 1408q-45 32 -58 68t-0.5 69.5t35.5 68l46 69t35.5 68t-0.5 69.5t-58 68h160q45 -32 58 -68t0.5 -69.5t-35.5 -68l-46 -69t-35.5 -68t0.5 -69.5t58 -68h-160zM1152 1408q-45 32 -58 68t-0.5 69.5t35.5 68l46 69t35.5 68t-0.5 69.5t-58 68h160q45 -32 58 -68
t0.5 -69.5t-35.5 -68l-46 -69t-35.5 -68t0.5 -69.5t58 -68h-160zM1023 190q149 0 292 17t236.5 38.5t181 50.5t118.5 42.5t55 25.5l4 2l77 -140q-20 -11 -48 -24t-123 -46.5t-197 -58t-264 -45t-332 -20.5t-331 20t-265.5 45.5t-196 57.5t-123.5 47t-47 24l77 140l2 -1
q23 -11 51.5 -24t116.5 -43t181.5 -51.5t238.5 -39t296 -17.5zM438 755q-52 170 -79 438l-7 87h1369q128 0 211.5 -77t83.5 -195t-83.5 -195t-211.5 -77h-113q-35 -107 -88 -185t-108.5 -121.5t-126.5 -69t-129.5 -33t-129.5 -7.5q-72 0 -131.5 7.5t-131.5 34.5t-128 72.5
t-109.5 127t-87.5 193.5zM1685 1120q-11 -106 -35 -224h71q54 0 94.5 27.5t40.5 84.5t-40.5 84.5t-94.5 27.5h-36zM1525 1120h-997q23 -190 62 -317q30 -99 72.5 -164.5t100 -100t118.5 -47.5t145 -13t145.5 13t118.5 47.5t99.5 100t72.5 164.5q37 120 63 317z" />
<glyph unicode="&#x2665;" horiz-adv-x="2048" d="M1823 1277q15 -257 -199 -480q-84 -87 -170.5 -177t-150.5 -156.5t-115 -120t-78 -81.5l-28 -29l-58 -61l-58 61l-28 29q-27 28 -78 81.5t-114.5 120t-150.5 156.5t-171 177q-214 223 -199 480q6 104 50 195.5t116 149.5q131 106 301 106q219 0 332 -157q113 157 332 157
q170 0 301 -106q72 -58 116 -149.5t50 -195.5zM1509 908q167 173 154 360q-4 76 -35 136.5t-72 92.5q-85 71 -200 71q-76 0 -129 -26.5t-77.5 -72.5t-32 -68.5t-12.5 -53.5q-1 -3 -1 -4q-12 -63 -77 -63q-39 0 -59.5 19t-23.5 45q-24 165 -156 210q-43 14 -96 14
q-115 0 -200 -71q-41 -32 -72 -92.5t-35 -136.5q-13 -187 154 -360q379 -393 485 -504q106 111 485 504z" />
<glyph unicode="&#x2668;" horiz-adv-x="2048" d="M673 961l-158 25l109 704l158 -25zM1470 1198q128 -39 209 -145t81 -240q0 -160 -112.5 -276.5t-274.5 -125.5q-64 -116 -178.5 -183.5t-250.5 -67.5t-250.5 67.5t-177.5 183.5q-163 9 -275.5 125t-112.5 277q0 134 81 240t209 145l-29 -191q-47 -34 -74 -84.5
t-27 -109.5q0 -100 73.5 -171.5t177.5 -71.5l79 6l22 -55q38 -92 120.5 -146.5t183.5 -54.5q102 0 184.5 54.5t119.5 146.5l22 55q43 -6 79 -6q104 0 177.5 71.5t73.5 171.5q0 59 -27 109.5t-74 84.5zM1215 961l-109 704l158 25l109 -704zM1024 736h-160v640h160v-640z" />
<glyph unicode="&#x266b;" horiz-adv-x="2048" d="M576 1609l1056 155v-740v-320v-44q0 -167 -88 -270t-231 -103q-133 0 -211 84.5t-78 194.5q0 115 73 199t199 113l48 10v-163l-15 -3q-23 -5 -45 -15t-46.5 -27.5t-39 -47t-14.5 -66.5q0 -43 30.5 -81t98.5 -38q74 0 116.5 56.5t42.5 156.5v488l-736 -108v-539
q0 -166 -88.5 -269t-231.5 -103q-133 0 -210.5 84t-77.5 195q0 115 73 199t198 113l49 10v-163l-15 -3q-24 -6 -46 -15.5t-46.5 -27t-39.5 -47t-15 -66.5q0 -43 31 -81t99 -38q75 0 117.5 56.5t42.5 155.5v1108zM1472 1309v270l-736 -108v-269z" />
<glyph unicode="&#x267f;" horiz-adv-x="2048" d="M1598 193l-59 511q-3 20 -12.5 26.5t-29.5 5.5h-409v447q0 39 -29 65q-51 43 -154 28l-15 -2q-219 -30 -258 -56q-23 -19 -99.5 -118.5t-143.5 -200.5l-133 89q74 111 160 222.5t126 138.5q42 29 116.5 47t208.5 37l15 2q177 25 281 -67q85 -73 85 -185v-287h272
q65 0 115.5 -45.5t61.5 -117.5l60 -522zM1216 1504q-93 0 -158.5 65.5t-65.5 158.5t65.5 158.5t158.5 65.5t158.5 -65.5t65.5 -158.5t-65.5 -158.5t-158.5 -65.5zM1216 1827q-41 0 -70 -29t-29 -70t29 -70t70 -29t70 29t29 70t-29 70t-70 29zM1314 608h156q2 -22 2 -32
q0 -104 -40.5 -198.5t-109.5 -163.5t-163.5 -109.5t-198.5 -40.5t-198.5 40.5t-163.5 109.5t-109.5 163.5t-40.5 198.5q0 186 118.5 327.5t297.5 175.5v-161q-113 -32 -186 -126.5t-73 -215.5q0 -147 104 -251t251 -104t251 104t104 251q0 21 -1 32z" />
<glyph unicode="&#x2691;" horiz-adv-x="2048" d="M1752 1500l104 30v-1163l-59 -16q-10 -3 -22.5 -6t-54.5 -10.5t-85 -11t-108 -3t-129 8.5q-77 10 -154 38.5t-111 47.5t-106 65q-13 8 -20 12q-132 84 -216 107q-110 29 -279 11v161q193 17 320 -18q49 -13 99.5 -36t80 -40.5t80.5 -49.5q5 -3 27.5 -17.5t29.5 -18.5
t28 -16.5t30 -17.5t29.5 -15t33 -15t32.5 -12.5t37 -11.5t37.5 -8t41.5 -7q132 -17 278 4v835q-139 -22 -297 -2q-83 10 -161.5 37.5t-121.5 51t-109 64.5q-47 28 -71 42t-65.5 33t-79.5 29q-150 40 -407 -7v-1479h-160v1605l60 15q10 3 40 10t92.5 16.5t127.5 14.5
t144.5 0.5t143.5 -21.5q108 -29 258 -122q62 -38 97.5 -57.5t99 -42t130.5 -30.5q184 -23 334 16h1z" />
<glyph unicode="&#x26a0;" horiz-adv-x="2048" d="M1040 1920l883 -1728h-1766zM1040 1568l-621 -1216h1242zM960 512v160h160v-160h-160zM960 1216h160v-192l-32 -256h-96l-32 256v192z" />
<glyph unicode="&#x26c5;" horiz-adv-x="2048" d="M1760 1120h320v-160h-320q7 36 7 80t-7 80zM1671 1334q-46 65 -113 114l226 226l113 -114zM1344 1536q-36 7 -80 7t-80 -7v320h160v-320zM970 1448q-66 -48 -114 -114l-226 226l113 114zM1558 632q66 48 113 113l226 -225l-113 -114zM1264 1408q152 0 260 -108t108 -260
q0 -89 -40 -166.5t-108 -128.5q-45 65 -107 113q46 29 73.5 77t27.5 105q0 88 -63 151t-151 63q-61 0 -112.5 -32t-78.5 -85q-58 52 -128 86q49 84 134 134.5t185 50.5zM1120 834q142 -29 231 -129.5t89 -235.5q0 -154 -110 -263.5t-265 -109.5h-709q-134 0 -229 95t-95 228
q0 102 53 181.5t147 120.5q6 175 115 291q131 140 339 140q150 0 269.5 -88.5t164.5 -229.5zM1065 255q89 0 152 62.5t63 151.5q0 88 -63.5 147t-167.5 67l-63 5l-10 61q-18 106 -100 174.5t-190 68.5q-139 0 -222 -88q-83 -90 -72 -234l6 -67l-66 -16q-67 -17 -103.5 -61
t-36.5 -107q0 -67 48 -115.5t116 -48.5h709z" />
<glyph unicode="&#x26c8;" horiz-adv-x="2048" d="M1571 1534q199 -33 322 -168t123 -323t-123 -328t-305 -166l69 185q89 40 144 123.5t55 185.5q0 137 -99.5 232t-256.5 107l-63 5l-10 61q-29 164 -153.5 270t-287.5 106q-209 0 -336 -136q-128 -138 -111 -361l5 -67l-65 -16q-105 -26 -164 -98.5t-59 -174.5
q0 -87 50 -156t129 -96l-65 -147q-122 47 -198 155.5t-76 243.5q0 141 74.5 249t206.5 159q2 251 156 418q84 90 201 138.5t252 48.5q206 0 368.5 -125.5t216.5 -324.5zM1152 704l-672 -672l192 512h-173l195 448h329l-125 -288h254zM1499 1059q26 -11 35 -115t-13 -160
q-21 -53 -68 -72t-97 3q-51 21 -70 66t3 99q24 55 104 122.5t106 56.5zM1307 611q26 -11 35 -115t-13 -160q-21 -53 -68 -72t-97 3q-51 21 -70 66t3 99q24 55 104 122.5t106 56.5z" />
<glyph unicode="&#x26d4;" horiz-adv-x="2048" d="M1567 1567q109 -109 167 -249t58 -294q0 -209 -103 -385.5t-279.5 -279.5t-385.5 -103q-154 0 -294 58t-249 167t-167 249t-58 294q0 209 103 385.5t279.5 279.5t385.5 103q154 0 294 -58t249 -167zM1024 410q125 0 238.5 48.5t196 131t131 196t48.5 238.5
q0 123 -46.5 235t-133.5 199t-199 133.5t-235 46.5q-125 0 -238.5 -48.5t-196 -131t-131 -196t-48.5 -238.5q0 -123 46.5 -235t133.5 -199t199 -133.5t235 -46.5zM640 928v192h768v-192h-768z" />
<glyph unicode="&#x2709;" horiz-adv-x="2048" d="M1728 562v570l160 135v-947h-1632v978l160 -136v-601l305 384l129 -95l-294 -370h1033l-279 350l129 95zM256 1600h1632v-166l-644 -491q-62 -46 -151 -46q-88 0 -150 46l-687 522v135zM1149 1069l501 371h-1113l501 -371q22 -16 55.5 -16t55.5 16z" />
<glyph unicode="&#x270b;" horiz-adv-x="2048" d="M1728 1760h160v-880q0 -183 -76 -341.5t-215 -263.5q-194 -147 -446 -147q-117 0 -237 33q-105 29 -209.5 88.5t-181 123.5t-142.5 134.5t-102.5 119t-53.5 79.5q-32 57 -33 121.5t29 119.5q26 48 71 76.5t101 32.5q31 1 66 -8t54 -18t55 -27q32 -17 49 -25t43 -15t49 -5
q30 3 44.5 32.5t14.5 67.5v894h160v-894q0 -106 -57.5 -178.5t-147.5 -80.5q-45 -4 -91 6.5t-73 23t-66 33.5q-68 35 -90 34q-29 -2 -42 -25q-22 -43 4 -87q13 -23 43 -63.5t87 -101.5t123 -117.5t156.5 -109t181.5 -77.5q152 -42 293 -19.5t251 106.5q109 83 168.5 208
t59.5 270v880zM1248 1952v-894h-160v894h160zM1568 1920v-864h-160v864h160z" />
<glyph unicode="&#x270e;" horiz-adv-x="2048" d="M1859 1601q60 -62 60 -148q0 -85 -60 -147l-193 -192l-520 521l192 192q61 61 147 61t147 -61zM1746 1420q13 12 13 33t-13 34l-227 227q-14 14 -34 14t-34 -14l-79 -79l294 -295zM851 525l612 612l113 -113l-639 -639l-785 -264l265 784l638 639l113 -113l-612 -612
l-111 -330l76 -75zM677 645q-24 22 -24 56q0 33 24 57l582 582l113 -113l-582 -582q-24 -24 -57 -24t-56 24z" />
<glyph unicode="&#x2710;" horiz-adv-x="2048" d="M1744 704q126 0 215 -89t89 -215t-89 -215t-215 -89t-215 89t-89 215t89 215t215 89zM1744 256q59 0 101.5 42.5t42.5 101.5t-42.5 101.5t-101.5 42.5t-101.5 -42.5t-42.5 -101.5t42.5 -101.5t101.5 -42.5zM1072 288q60 0 102 -42.5t42 -101.5t-42 -101.5t-102 -42.5
t-102 42.5t-42 101.5t42 101.5t102 42.5zM93 742l192 192l521 -521l-193 -192q-61 -61 -147 -61t-147 61l-226 226q-61 63 -61 148q0 84 61 147zM500 334l79 79l-294 295l-79 -80q-14 -12 -14 -33q0 -20 14 -34l226 -227q14 -14 34 -14t34 14zM1799 1927l-264 -784
l-639 -639l-113 113l612 612l111 330l-76 75l-329 -110l-612 -613l-113 113l638 639zM1298 1347q0 -32 -23 -57l-583 -582l-113 113l583 582q22 24 56 24q33 0 57 -24q23 -23 23 -56z" />
<glyph unicode="&#x2712;" horiz-adv-x="2048" d="M1440 1426l192 -461l-450 -901h-284l-450 901l192 461v270h160v-302l-176 -423l336 -672v520q-43 22 -69.5 64.5t-26.5 92.5q0 73 51.5 124.5t124.5 51.5t124.5 -51.5t51.5 -124.5q0 -50 -26.5 -92.5t-69.5 -64.5v-521l336 673l-176 423v302h160v-270zM1568 1984v-160
h-1056v160h1056z" />
<glyph unicode="&#x2713;" horiz-adv-x="2048" d="M936 345l-608 774l126 99l466 -595l676 1083l136 -84z" />
<glyph unicode="&#x2744;" horiz-adv-x="2048" d="M300 1488l448 -448l-448 -448l-113 114l254 254h-281v160h281l-254 255zM1920 1120v-160h-282l254 -254l-113 -114l-448 448l448 448l113 -113l-254 -255h282zM691 1502l170 -169l89 89l-358 358l113 113l255 -255v282h160v-281l254 254l113 -113l-357 -358l89 -89
l169 169l114 -113l-283 -283l-179 180l-179 -180l-283 283zM1388 578l-169 169l-89 -89l357 -358l-113 -113l-254 254v-281h-160v282l-255 -255l-113 113l358 358l-89 89l-170 -169l-113 113l283 283l179 -180l179 180l113 -113l170 -170z" />
<glyph unicode="&#x2746;" horiz-adv-x="2048" d="M1568 1600h320v-160h-363l-128 -128h299v-160h-576v576h160v-307l128 128v371h160v-320zM800 1426v302h160v-576h-576v160h304l-128 128h-368v160h320v320h160v-366zM1397 832l128 -128h363v-160h-320v-320h-160v371l-128 128v-307h-160v576h576v-160h-299zM384 832v160
h576v-576h-160v301l-128 -128v-365h-160v320h-320v160h368l128 128h-304z" />
<glyph unicode="&#x2753;" horiz-adv-x="2048" d="M1040 1792q159 0 304 -62t250.5 -167.5t167.5 -250.5t62 -304q0 -157 -59.5 -300t-170.5 -254t-254 -170.5t-300 -59.5q-159 0 -304 62t-250.5 167.5t-167.5 250.5t-62 304q0 157 59.5 300t170.5 254t254 170.5t300 59.5zM1486 562q89 89 136.5 204.5t47.5 241.5
q0 171 -84.5 316t-229.5 229.5t-316 84.5q-126 0 -241.5 -47.5t-204.5 -136.5t-136.5 -204.5t-47.5 -241.5q0 -171 84.5 -316t229.5 -229.5t316 -84.5q127 0 242 47.5t204 136.5zM960 608v160h160v-160h-160zM1056 1440q110 0 183 -64t73 -160q0 -46 -20 -85.5t-48 -67
t-56 -52.5t-48 -54.5t-20 -60.5v-32h-160v52q0 47 18.5 85.5t45.5 64t54.5 47t48.5 46t24 50.5q5 47 -21 75t-74 28q-45 0 -70.5 -38t-25.5 -90h-160q0 117 72.5 186.5t183.5 69.5z" />
<glyph unicode="&#x27a1;" horiz-adv-x="2048" d="M1009 1845l837 -837l-837 -837l-114 113l644 644h-1347v160h1347l-644 644z" />
<glyph unicode="&#x2922;" horiz-adv-x="2048" d="M919 1033l114 -113l-504 -504h463v-160h-736v736h160v-463zM1056 1792h736v-736h-160v463l-503 -504l-114 114l504 503h-463v160z" />
<glyph unicode="&#x2b05;" horiz-adv-x="2048" d="M1856 1088v-160h-1347l644 -644l-114 -113l-837 837l837 837l114 -113l-644 -644h1347z" />
<glyph unicode="&#x2b06;" horiz-adv-x="2048" d="M1848 1009l-114 -114l-646 647v-1350h-160v1345l-642 -642l-113 114l837 837z" />
<glyph unicode="&#x2b07;" horiz-adv-x="2048" d="M1734 1153l114 -114l-838 -837l-837 837l113 114l642 -642v1345h160v-1350z" />
<glyph unicode="&#x2b08;" horiz-adv-x="2048" d="M448 1632h1184v-1184h-160v909l-950 -950l-113 113l952 952h-913v160z" />
<glyph unicode="&#x2b09;" horiz-adv-x="2048" d="M1642 520l-113 -113l-953 953v-912h-160v1184h1184v-160h-910z" />
<glyph unicode="&#x2b0a;" horiz-adv-x="2048" d="M1472 1600h160v-1184h-1184v160h911l-953 953l113 113l953 -953v911z" />
<glyph unicode="&#x2b0b;" horiz-adv-x="2048" d="M1642 1530l-953 -954h911v-160h-1184v1184h160v-910l953 953z" />
<glyph unicode="&#xe001;" horiz-adv-x="2048" d="M1784 376l-113 -114l-523 523l-245 -514l-655 1528l1527 -654l-513 -247zM911 659l153 322l324 155l-836 359z" />
<glyph unicode="&#xe002;" horiz-adv-x="2048" d="M1817 344l-113 -113l-421 421q-177 -138 -402 -138q-131 0 -250 49t-212 142q-92 92 -141.5 211.5t-49.5 250.5t49.5 250.5t141.5 211.5q93 92 212.5 141.5t249.5 49.5q131 0 250.5 -49.5t211.5 -141.5q93 -92 142.5 -211.5t49.5 -250.5q0 -224 -139 -402zM531 818
q145 -145 350 -145t350 145q144 144 144 349q0 204 -144 350q-146 144 -350 144t-350 -144q-144 -146 -144 -350q0 -205 144 -349zM960 1472v-224h224v-160h-224v-224h-160v224h-224v160h224v224h160z" />
<glyph unicode="&#xe003;" horiz-adv-x="2048" d="M1819 342l-113 -113l-422 422q-180 -139 -403 -139q-131 0 -251 49.5t-213 142.5t-142.5 212.5t-49.5 250.5t50 251t142 213q93 93 213 142.5t251 49.5t250.5 -49.5t212.5 -142.5t142.5 -213t49.5 -251q0 -225 -139 -403zM530 817q145 -145 351 -145q99 0 189.5 37.5
t160.5 107.5q145 145 145 350q0 206 -145 351q-70 70 -160.5 107.5t-189.5 37.5q-206 0 -351 -145q-145 -147 -145 -351q0 -203 145 -350zM576 1088v160h608v-160h-608z" />
<glyph unicode="&#xe011;" horiz-adv-x="2048" d="M908 543q36 36 47 86t-6 95l117 119q51 -82 51 -177q0 -140 -97 -235l-109 -110q-95 -97 -234 -97q-138 0 -235 97l-147 148q-97 98 -97 235.5t97 235.5l109 109q95 97 234 97q96 0 178 -51l-118 -118q-30 11 -60 11q-73 0 -122 -51l-109 -109q-51 -51 -51 -123.5
t51 -123.5l147 -148q51 -51 123 -51t123 51zM1726 1610q97 -98 97 -236t-97 -236l-110 -110q-95 -97 -234 -97q-95 0 -177 51l119 118q30 -10 58 -10q72 0 123 51l109 109q51 51 51 123.5t-51 123.5l-148 149q-51 51 -123 51t-123 -51l-109 -110q-51 -51 -51 -123
q0 -31 11 -61l-118 -118q-51 82 -51 179q0 140 97 235l109 110q97 97 235 97t235 -97zM794 1365l-113 -114l-296 296l113 113zM1222 712l114 114l295 -296l-113 -113z" />
<glyph unicode="&#xe070;" horiz-adv-x="2048" d="M1553 608l-113 113l207 207h-527v-527l207 207l113 -113l-399 -399l-400 400l113 113l206 -206v525h-527l207 -207l-113 -113l-399 399l400 400l113 -113l-206 -206h525v525l-206 -206l-113 113l400 400l399 -399l-113 -113l-207 207v-527h525l-206 206l113 113l400 -400
z" />
<glyph unicode="&#xe071;" horiz-adv-x="2048" d="M1859 1306l-193 -192l-520 521l192 192q61 61 147 61t147 -61l227 -226q60 -62 60 -148q0 -85 -60 -147zM1451 1714l-79 -79l294 -295l80 80q13 12 13 33t-13 34l-227 227q-14 14 -34 14t-34 -14zM851 525l237 237l113 -113l-264 -264l-785 -264l265 784l264 265
l113 -114l-238 -237l-111 -330l76 -75zM677 645q-24 22 -24 56q0 33 24 57l208 208l113 -113l-208 -208q-24 -24 -57 -24t-56 24zM1410 858l618 -617l-114 -113l-1760 1760l113 113l623 -622l165 165l113 -113l-165 -166l91 -90l165 165l113 -113l-165 -165l90 -91l166 166
l113 -113z" />
<glyph unicode="&#xe0d0;" horiz-adv-x="2048" d="M1440 448v960h160v-1120h-1216v1120h160v-960h896zM736 1408h160v-800h-160v800zM1088 1408h160v-800h-160v800zM1368 1696h328v-160h-1408v160h328l97 288h558zM785 1696h414l-43 128h-328z" />
<glyph unicode="&#xe100;" horiz-adv-x="2048" d="M1920 1934l68 -922l-954 -954l-977 977l953 953zM1034 285l789 788l-52 710l-698 41l-790 -789zM1059 1384l113 -113l-416 -416l-113 113zM858 754l415 415l114 -113l-416 -415zM1354 1558q42 42 102 42t102 -42t42 -102t-42 -102t-102 -42t-102 42t-42 102t42 102z" />
<glyph unicode="&#xe200;" horiz-adv-x="2048" d="M767 577l274 274l113 -114l-291 -291q-19 -19 -43 -22l-56 -11q-16 -81 -73 -140q-81 -79 -193 -79q-113 0 -192 79q-80 80 -80 193q0 114 80 192q57 58 140 74l10 56q5 26 22 42l292 292l113 -113l-274 -274l-17 -93q-5 -30 -29.5 -49t-55.5 -16h-10q-46 0 -78 -32
q-33 -33 -33 -79t33 -79q31 -32 79 -32t79 32q37 37 32 88q-2 31 16.5 55.5t49.5 29.5zM1854 1421q-2 -167 -152 -317q-54 -54 -138 -111t-165 -93l153 -153l-113 -113l-773 772l113 114l153 -153q36 81 93 164.5t112 138.5q149 149 316 151h3q153 0 275 -122
q125 -125 123 -278zM1589 1217q103 103 105 205q0 88 -76 164q-75 75 -162 75h-2q-100 0 -204 -104q-58 -58 -117 -154t-77 -160l219 -219q63 17 159.5 76t154.5 117z" />
<glyph unicode="&#xe201;" horiz-adv-x="2048" d="M1888 576v-160h-288v-288h-160v288h-1056v1056h-288v160h288v288h160v-1344h1344zM1440 704v768h-768v160h928v-928h-160z" />
<glyph unicode="&#xe202;" horiz-adv-x="2048" d="M1562 859l151 97l317 -184l-1001 -639l-1001 639l316 184l152 -97l-161 -93l694 -443l693 443zM1029 671l-1001 639l1001 580l1001 -580zM335 1303l694 -443l693 443l-693 402z" />
<glyph unicode="&#xe206;" horiz-adv-x="2048" d="M1792 1280h-352v-512h352v-160h-352v-352h-160v352h-512v-352h-160v352h-352v160h352v512h-352v160h352v352h160v-352h512v352h160v-352h352v-160zM1280 768v512h-512v-512h512z" />
<glyph unicode="&#xe207;" horiz-adv-x="2048" d="M1039 234l845 540l156 -91l-1001 -639l-1001 639l157 91zM1039 576l845 540l156 -91l-1001 -639l-1001 639l157 91zM1039 729l-1001 639l1001 580l1001 -580zM346 1361l693 -442l693 442l-693 403z" />
<glyph unicode="&#xe2a0;" horiz-adv-x="2048" d="M1808 1248q-77 0 -120 64h-197q198 -170 204 -480h193v-544h-544v544h191q-3 154 -68.5 262.5t-186.5 163.5v-138h-544v138q-248 -113 -256 -426h192v-544h-544v544h193q6 309 205 480h-198q-44 -64 -120 -64q-60 0 -102 42.5t-42 101.5t42 101.5t102 42.5q77 0 120 -64
h408v192h544v-192h408q43 64 120 64q60 0 102 -42.5t42 -101.5t-42 -101.5t-102 -42.5zM512 672h-224v-224h224v224zM1120 1280v224h-224v-224h224zM1728 672h-224v-224h224v224z" />
<glyph unicode="&#xe2a1;" horiz-adv-x="2048" d="M1312 896h480v-640h-1600v1600h640v-480h480v-480zM672 416v320h-320v-320h320zM672 896v320h-320v-320h320zM672 1376v320h-320v-320h320zM1152 416v320h-320v-320h320zM1152 896v320h-320v-320h320zM1632 416v320h-320v-320h320z" />
<glyph unicode="&#xe300;" horiz-adv-x="2048" d="M1322 1059l-205 206q-47 46 -52.5 92.5t20.5 94.5q20 44 64 140q73 158 104 228q8 18 15 30.5t21.5 31t37 28.5t51.5 10q24 0 66 -12q77 -22 149 -62t132 -93.5t96 -124t35 -145.5q-2 -126 -77 -308t-210 -363l-114 114q115 159 177.5 313t64.5 246q1 81 -89.5 158.5
t-208.5 111.5h-1q-16 -36 -104 -230q-29 -61 -63 -138q-1 -3 -3 -7q0 -1 2 -3l171 -171l-24 -51l-7 -13q-6 -12 -19.5 -35.5t-28.5 -47.5zM1974 188l-113 -113l-500 500q-214 -206 -456 -325.5t-405 -121.5h-3q-75 0 -144.5 36t-123 96t-93 131.5t-61.5 148.5q-21 73 -1 117
t89 74q70 31 228 104q79 35 140 63q50 22 81 22q54 0 107 -53l89 -89q110 65 199 150l-891 892l113 113zM498 288q124 1 339 106.5t411 293.5l-128 128q-141 -134 -291 -209l-51 -25l-172 172l-2 2q-2 -1 -8 -3q-131 -60 -138 -63q-104 -49 -230 -104v-2q34 -117 111 -206.5
t158 -89.5h1z" />
<glyph unicode="&#xe400;" horiz-adv-x="2048" d="M193 518l-10 -134h-148l10 147q13 143 117.5 221.5t283.5 78.5q42 0 74 -4q-46 -67 -64 -154q-1 0 -4.5 0.5t-5.5 0.5q-65 0 -114 -13t-74 -30.5t-40.5 -42t-19.5 -39.5t-5 -31zM2003 532l11 -148h-149l-10 135q-1 16 -5 31t-19.5 39t-40.5 41.5t-74 30.5t-114 13
q-1 0 -4.5 -0.5t-5.5 -0.5q-16 83 -63 154q31 4 73 4q178 0 283 -78t118 -221zM713 600l-18 -216h-149l18 227q15 151 135 233.5t325 82.5t325 -82.5t135 -232.5l18 -228h-149l-18 217q-8 83 -88 126t-223 43t-223 -43t-88 -127zM416 896q-110 0 -183 83.5t-73 208.5
q0 109 72.5 180.5t183.5 71.5t183.5 -71.5t72.5 -180.5q0 -125 -73 -208.5t-183 -83.5zM416 1286q-42 0 -71.5 -24t-29.5 -73q0 -60 28.5 -99.5t72.5 -39.5t72.5 39.5t28.5 99.5q0 49 -29.5 73t-71.5 24zM1600 896q-110 0 -183 83.5t-73 208.5q0 109 72.5 180.5t183.5 71.5
q109 0 182.5 -72.5t73.5 -179.5q0 -125 -73 -208.5t-183 -83.5zM1599 1286q-42 0 -71.5 -24t-29.5 -73q0 -60 28.5 -99.5t72.5 -39.5t72.5 39.5t28.5 99.5q0 52 -29 74.5t-72 22.5zM1008 992q-116 0 -194 88.5t-78 220.5q0 113 78.5 190t193.5 77t193.5 -77t78.5 -190
q0 -132 -78 -220.5t-194 -88.5zM1008 1414q-50 0 -84 -32t-34 -80q0 -67 33.5 -111.5t84.5 -44.5t84.5 44.5t33.5 111.5q0 48 -34 80t-84 32z" />
<glyph unicode="&#xe407;" horiz-adv-x="2048" d="M1024 864q-191 0 -319.5 154t-128.5 384q0 121 61 226t164.5 166.5t222.5 61.5t222.5 -61.5t164.5 -166.5t61 -226q0 -230 -128.5 -384t-319.5 -154zM1024 1699q-116 0 -203.5 -89t-87.5 -207q0 -163 83 -272.5t208 -109.5t208 109.5t83 272.5q0 118 -87.5 207t-203.5 89
zM1170 470l-81 -75l85 -331h-300l85 331l-81 75l146 231zM611 679l65 187q63 -54 138 -87l-83 -239l-44 -9q-209 -41 -267 -55q-68 -18 -78 -98q-4 -34 -23 -314h-159q13 236 24 333q11 91 62.5 152.5t135.5 81.5q81 20 229 48zM1864 397q6 -53 24 -333h-160
q-15 259 -22 314q-10 80 -78 98q-58 14 -267 55l-44 9l-84 239q75 33 139 87l65 -187q148 -28 229 -48q84 -20 135.5 -81.5t62.5 -152.5z" />
<glyph unicode="&#xe410;" horiz-adv-x="2048" d="M1059 1344h893v-160h-893q-107 0 -179 57t-80 148q-4 44 7 91t22 72t33 66q36 66 35 90q-1 28 -26 42q-41 22 -87 -4q-23 -13 -63 -43t-101.5 -87.5t-118 -123.5t-108.5 -156.5t-77 -181.5q-42 -152 -20 -292.5t106 -250.5q83 -108 208 -167.5t271 -59.5h879v-160h-879
q-184 0 -342 75.5t-264 214.5q-107 141 -136 317.5t23 365.5q29 105 88 209.5t123.5 181t135 143t118.5 102.5t79 53q57 32 122 33t120 -29q48 -26 76.5 -71.5t31.5 -101.5q2 -31 -7 -65.5t-18 -54t-28 -54.5q-16 -31 -24.5 -49t-15 -43.5t-4.5 -48.5q2 -30 32 -44t68 -14z
M1056 864v160h896v-160h-896zM1056 544v160h864v-160h-864z" />
<glyph unicode="&#xe450;" horiz-adv-x="2048" d="M1218 0h-391l-10 68q-5 26 -22 160.5t-38 426t-21 561.5h159q0 -519 70 -1056h116q72 552 72 1056h159q0 -270 -22 -562t-39 -425.5t-22 -160.5zM1568 736h-160v560q0 33 -23.5 56.5t-56.5 23.5h-608q-33 0 -56.5 -23.5t-23.5 -56.5v-560h-160v560q0 99 70.5 169.5
t169.5 70.5h608q99 0 169.5 -70.5t70.5 -169.5v-560zM1024 1600q-92 0 -158 65.5t-66 158.5q0 92 66 158t158 66t158 -66t66 -158q0 -93 -66 -158.5t-158 -65.5zM1024 1923q-41 0 -70 -29t-29 -70t29 -70t70 -29t70 29t29 70t-29 70t-70 29z" />
<glyph unicode="&#xe451;" horiz-adv-x="2048" d="M1236 1234l257 -754h-218l-51 -480h-400l-51 480h-218l256 755l108 -180l-141 -415h139l51 -480h112l51 480h139l-142 415zM523 790l-151 53l181 518q26 74 97 124.5t149 50.5h450q78 0 149 -50.5t97 -123.5l180 -515l-151 -53l-180 515q-9 26 -38 46.5t-57 20.5h-450
q-28 0 -57 -20.5t-38 -46.5zM1024 1600q-92 0 -158 65.5t-66 158.5q0 92 66 158t158 66t158 -66t66 -158q0 -93 -66 -158.5t-158 -65.5zM1024 1923q-41 0 -70 -29t-29 -70t29 -70t70 -29t70 29t29 70t-29 70t-70 29z" />
<glyph unicode="&#xe500;" horiz-adv-x="2048" d="M576 352q66 0 113 -47t47 -113t-47 -113t-113 -47t-113 47t-47 113t47 113t113 47zM1600 352q66 0 113 -47t47 -113t-47 -113t-113 -47t-113 47t-47 113t47 113t113 47zM563 1696h1325l-7 -86q-2 -42 -20 -259.5t-27 -274.5q-14 -97 -90 -163.5t-189 -82.5q-2 0 -787 -94
v161q82 10 262 31t322.5 38t181.5 23q59 7 97 37t45 74q11 71 39 436h-1139v-831q0 -44 28.5 -70.5t77.5 -26.5h1078v-160h-1078q-114 0 -190 73.5t-76 183.5v913q0 44 -35.5 77t-82.5 33h-298v160h298q91 0 164.5 -54t100.5 -138z" />
<glyph unicode="&#xe551;" horiz-adv-x="2048" d="M1552 1952q86 0 147 -61t61 -147v-1376q0 -86 -61 -147t-147 -61h-1056q-86 0 -147 61t-61 147v1376q0 86 61 147t147 61h1056zM1600 368v1376q0 20 -14 34t-34 14h-1056q-20 0 -34 -14t-14 -34v-1376q0 -20 14 -34t34 -14h1056q20 0 34 14t14 34zM640 1440v160h768v-160
h-768zM736 704q40 0 68 -28t28 -68t-28 -68t-68 -28t-68 28t-28 68t28 68t68 28zM1024 704q40 0 68 -28t28 -68t-28 -68t-68 -28t-68 28t-28 68t28 68t68 28zM1312 704q40 0 68 -28t28 -68t-28 -68t-68 -28t-68 28t-28 68t28 68t68 28zM736 992q40 0 68 -28t28 -68t-28 -68
t-68 -28t-68 28t-28 68t28 68t68 28zM1024 992q40 0 68 -28t28 -68t-28 -68t-68 -28t-68 28t-28 68t28 68t68 28zM1312 992q40 0 68 -28t28 -68t-28 -68t-68 -28t-68 28t-28 68t28 68t68 28zM736 1280q40 0 68 -28t28 -68t-28 -68t-68 -28t-68 28t-28 68t28 68t68 28z
M1024 1280q40 0 68 -28t28 -68t-28 -68t-68 -28t-68 28t-28 68t28 68t68 28zM1312 1280q40 0 68 -28t28 -68t-28 -68t-68 -28t-68 28t-28 68t28 68t68 28z" />
<glyph unicode="&#xe570;" horiz-adv-x="2048" d="M1136 1664q153 0 292 -59.5t240 -160.5t160.5 -240t59.5 -292t-59.5 -292t-160.5 -240t-240 -160.5t-292 -59.5t-292 59.5t-240 160.5t-160.5 240t-59.5 292v16h160v-16q0 -120 47 -230t126 -189t189 -126t230 -47t230 47t189 126t126 189t47 230t-47 230t-126 189
t-189 126t-230 47h-16v160h16zM912 1888q28 0 80 -4v-828h-828q-4 52 -4 80t4 80q19 173 111 319t238 238t319 111q52 4 80 4zM326 1216h506v506q-197 -27 -338 -168t-168 -338z" />
<glyph unicode="&#xe670;" horiz-adv-x="2048" d="M887 178l-655 1528l1528 -655l-591 -283zM537 1401l358 -835l154 322l324 155z" />
<glyph unicode="&#xe671;" horiz-adv-x="2048" d="M1026 1792q208 0 385 -103t280 -280t103 -385q0 -154 -58 -294t-167 -249t-249 -167t-294 -58q-208 0 -385 103t-280 280t-103 385q0 209 103 385.5t279.5 279.5t385.5 103zM1460 590q87 87 133.5 199t46.5 235q0 125 -49 238.5t-131 196t-195.5 131t-238.5 48.5
t-238.5 -48.5t-196 -131t-131 -196t-48.5 -238.5t48.5 -238.5t131 -196t196 -131t238.5 -48.5q123 0 235 46.5t199 133.5zM912 1137l378 209l57 -56l-210 -379l-378 -209l-57 56zM1026 950q31 0 52.5 21.5t21.5 52.5t-21.5 52.5t-52.5 21.5t-52.5 -21.5t-21.5 -52.5
t21.5 -52.5t52.5 -21.5z" />
<glyph unicode="&#xe672;" horiz-adv-x="2048" d="M1742 1248l337 -357l-337 -347h-750v-352h-160v352h-224v704h1134zM1674 704l183 189l-184 195h-905v-384h906zM223 1437l183 -189h74v-160h-142l-337 347l337 357h494v192h160v-192h480v-416h-160v256h-905z" />
<glyph unicode="&#xe6d0;" horiz-adv-x="2048" d="M1008 1536q86 0 147 -61t61 -147t-61 -147t-147 -61t-147 61t-61 147t61 147t147 61zM1008 1920q133 0 254.5 -52t209.5 -140.5t140 -210t52 -255.5q0 -104 -24 -202t-72 -190t-93 -160.5t-114 -158.5l-290 -374l-63 -81l-63 81q-208 267 -290 374q-69 90 -114 158.5
t-93 160.5t-72 190t-24 202q0 134 52 255.5t140 210t209.5 140.5t254.5 52zM1236 645q142 185 207.5 324.5t65.5 294.5q0 136 -67 252t-182.5 183.5t-251.5 67.5t-251.5 -67.5t-182.5 -183.5t-67 -252q0 -155 65.5 -294.5t207.5 -324.5q62 -82 228 -296q166 214 228 296z
" />
<glyph unicode="&#xe7a0;" horiz-adv-x="2048" d="M1552 1920q86 0 147 -61t61 -147v-1280q0 -86 -61 -147t-147 -61h-1120q-86 0 -147 61t-61 147v1280q0 86 61 147t147 61h1120zM1552 384q20 0 34 14t14 34v304h-1088v160h1088v352h-1088v160h1088v304q0 20 -14 34t-34 14h-1120q-20 0 -34 -14t-14 -34v-1280
q0 -20 14 -34t34 -14h1120zM1376 1664v-160h-160v160h160zM1376 1152v-160h-160v160h160zM1216 480v160h160v-160h-160z" />
<glyph unicode="&#xe7b0;" horiz-adv-x="2048" d="M1312 512v160h160v-160h-160zM1838 805q18 -47 18 -85v-183v-73q0 -86 -61 -147t-147 -61h-1280q-86 0 -147 61t-61 147v256q0 38 17 83q186 521 236 608q92 157 259 157h672q163 0 258 -155q23 -38 112 -273.5t124 -334.5zM1696 464v256q0 10 -4 18v1q-12 29 -44 29
h-1180q11 28 61 160h1094q-136 367 -158 401q-28 47 -55.5 63t-65.5 16h-672q-39 0 -66.5 -16t-53.5 -61q-10 -17 -94.5 -233.5t-125.5 -330.5q-12 -32 -12 -78v-225q0 -20 14 -34t34 -14h1280q20 0 34 14t14 34z" />
<glyph unicode="&#xe7c0;" horiz-adv-x="2048" d="M160 1584q0 86 61 147t147 61h48v-160h-48q-20 0 -34 -14t-14 -34v-1120q0 -20 14 -34t34 -14h48v-160h-48q-86 0 -147 61t-61 147v1120zM864 1632h-320v320h160v-160h160v-160zM1312 1632h-320v320h160v-160h160v-160zM544 416h320v-160h-160v-160h-160v320zM1648 1792
q86 0 147 -61t61 -147v-1120q0 -86 -61 -147t-147 -61h-48v-160h-160v320h208q20 0 34 14t14 34v1120q0 20 -14 34t-34 14h-208v320h160v-160h48zM992 416h320v-160h-160v-160h-160v320zM1472 1408v-768h-928v768h928zM1312 800v448h-608v-448h608z" />
<glyph unicode="&#xe800;" horiz-adv-x="2048" d="M224 1696h1568v-1152h-348l-112 160h300v832h-1248v-832h300l-113 -160h-347v1152zM502 224l506 718l505 -718h-1011zM811 384h394l-197 280z" />
<glyph unicode="&#xe803;" horiz-adv-x="2048" d="M288 1378l316 31l420 352v-1470l-422 355l-314 48v684zM864 1418l-195 -164l-221 -21v-402l223 -34l193 -163v784zM1299 1519q138 -229 138 -500q0 -265 -133 -490l-130 94q103 185 103 396q0 217 -109 407zM1535 1687q191 -306 191 -668q0 -354 -185 -658l-131 93
q156 262 156 565q0 312 -162 575z" />
<glyph unicode="&#xe8a0;" horiz-adv-x="2048" d="M896 384h-480v1280h480v-1280zM576 544h160v960h-160v-960zM1632 384h-480v1280h480v-1280zM1312 544h160v960h-160v-960z" />
<glyph unicode="&#xe8a1;" horiz-adv-x="2048" d="M416 1920q151 0 261.5 -103t121.5 -253q1 -8 1 -23v-853q0 -86 -61 -147t-147 -61h-352q-86 0 -147 61t-61 147v853q0 1 0.5 3t0.5 3q4 155 115.5 264t267.5 109zM640 688v537q-100 -73 -224 -73t-224 73v-537q0 -20 14 -34t34 -14h352q20 0 34 14t14 34zM416 1307
q94 0 161.5 67.5t67.5 161.5t-67.5 161.5t-161.5 67.5t-161 -67t-67 -162t67 -162t161 -67zM1776 1600q86 0 147 -61t61 -147v-704q0 -86 -61 -147t-147 -61h-672q-86 0 -147 61t-61 147v144h160v-144q0 -20 14 -34t34 -14h672q20 0 34 14t14 34v704q0 20 -14 34t-34 14
h-672q-20 0 -34 -14t-14 -34v-144h-160v144q0 86 61 147t147 61h672zM1312 832v416l288 -208z" />
<glyph unicode="&#xe8b0;" horiz-adv-x="2048" d="M1216 608v160h128v-160h-128zM1472 608v160h128v-160h-128zM1344 1472v-160h-128v160h128zM1600 1472v-160h-128v160h128zM1728 608v864h160v-864h-160zM1077 1760h811v-160h-960v89q0 29 -21 50t-50 21h-498q-29 0 -50 -21t-21 -50v-1298q0 -29 21 -50t50 -21h498
q29 0 50 21t21 50v1081h160v-992h800v-160h-811q-23 -71 -83.5 -115.5t-136.5 -44.5h-498q-96 0 -163.5 67.5t-67.5 163.5v1298q0 96 67.5 163.5t163.5 67.5h498q76 0 136.5 -44.5t83.5 -115.5z" />
<glyph unicode="&#xe901;" horiz-adv-x="2048" d="M1728 384v480h160v-640h-1664v640h160v-480h1344zM1587 1920l333 -454v-474h-480v-80q0 -86 -61 -147t-147 -61h-352q-86 0 -147 61t-61 147v80h-512v474l333 454h1094zM574 1760l-211 -288h1354l-211 288h-932zM1280 912v80h-448v-80q0 -20 14 -34t34 -14h352
q20 0 34 14t14 34zM1760 1152v160h-1440v-160h1440z" />
<glyph unicode="&#xe902;" horiz-adv-x="2048" d="M1642 1568l246 -718v-658h-1760v658l246 718h169l-241 -704h545l9 -70q2 -13 8 -28t21 -39t47 -39.5t76 -15.5t76.5 16t47.5 41t20.5 39t7.5 25v1l9 70h545l-241 704h169zM288 352h1440v352h-428q-32 -80 -104 -136t-188 -56t-188 56t-104 136h-428v-352zM512 992v160
h992v-160h-992zM1408 1440v-160h-800v160h800zM1312 1728v-160h-608v160h608z" />
<glyph unicode="&#xe9a1;" horiz-adv-x="2048" d="M160 1792h1696v-1504h-1696v1504zM1696 1632h-1376v-288h1376v288zM1696 1184h-1376v-288h1376v288zM320 448h1376v288h-1376v-288z" />
<glyph unicode="&#xe9a2;" horiz-adv-x="2048" d="M160 1792h1696v-1504h-1696v1504zM1184 1632h-352v-1184h352v1184zM320 1632v-1184h352v1184h-352zM1696 448v1184h-352v-1184h352z" />
<glyph unicode="&#xe9a3;" horiz-adv-x="2048" d="M256 1792h1504v-1504h-1504v1504zM1600 1120v512h-512v-512h512zM928 1632h-512v-512h512v512zM416 960v-512h512v512h-512zM1088 448h512v512h-512v-512z" />
<glyph unicode="&#xea00;" horiz-adv-x="2048" d="M416 1664v-800h-160v960h1536v-960h-160v800h-1216zM608 1536l559 -208l-155 -83l188 -188l-114 -113l-188 188l-81 -155zM1793 736l255 -288v-160h-2048v160l255 288h1538zM214 448h1620l-113 128h-1394z" />
<glyph unicode="&#xea01;" horiz-adv-x="2048" d="M1808 1792q86 0 147 -61t61 -147v-1088q0 -86 -61 -147t-147 -61h-1568q-86 0 -147 61t-61 147v1088q0 86 61 147t147 61h1568zM192 496q0 -20 14 -34t34 -14h1168v1184h-1168q-20 0 -34 -14t-14 -34v-1088zM1856 496v1088q0 20 -14 34t-34 14h-240v-1184h240q20 0 34 14
t14 34zM1712 1120q33 0 56.5 -23.5t23.5 -56.5t-23.5 -56.5t-56.5 -23.5t-56.5 23.5t-23.5 56.5t23.5 56.5t56.5 23.5z" />
<glyph unicode="&#xea02;" horiz-adv-x="2048" d="M1424 1920q86 0 147 -61t61 -147v-1376q0 -86 -61 -147t-147 -61h-768q-86 0 -147 61t-61 147v1376q0 86 61 147t147 61h768zM656 1760q-20 0 -34 -14t-14 -34v-176h864v176q0 20 -14 34t-34 14h-768zM1472 1376h-864v-640h864v640zM1424 288q20 0 34 14t14 34v240h-864
v-240q0 -20 14 -34t34 -14h768zM1040 512q33 0 56.5 -23.5t23.5 -56.5t-23.5 -56.5t-56.5 -23.5t-56.5 23.5t-23.5 56.5t23.5 56.5t56.5 23.5z" />
<glyph unicode="&#xea10;" horiz-adv-x="2048" d="M1779 1344q86 0 145.5 -60.5t59.5 -147.5v-228q0 -86 -59.5 -145t-145.5 -59h-83v-16q0 -86 -61 -147t-147 -61h-1184q-86 0 -147 61t-61 147v672q0 86 61 147t147 61h1184q86 0 147 -61t61 -147v-16h83zM1536 688v672q0 20 -14 34t-34 14h-1184q-20 0 -34 -14t-14 -34
v-672q0 -20 14 -34t34 -14h1184q20 0 34 14t14 34zM1824 908v228q0 20 -13 34t-32 14h-83v-320h83q20 0 32.5 12.5t12.5 31.5zM384 768v512h160v-512h-160zM672 768v512h160v-512h-160zM960 768v512h160v-512h-160z" />
<glyph unicode="&#xea11;" horiz-adv-x="2048" d="M1779 1344q86 0 145.5 -60.5t59.5 -147.5v-228q0 -86 -59.5 -145t-145.5 -59h-83v-16q0 -86 -61 -147t-147 -61h-1184q-86 0 -147 61t-61 147v672q0 86 61 147t147 61h1184q86 0 147 -61t61 -147v-16h83zM1536 688v672q0 20 -14 34t-34 14h-1184q-20 0 -34 -14t-14 -34
v-672q0 -20 14 -34t34 -14h1184q20 0 34 14t14 34zM1824 908v228q0 20 -13 34t-32 14h-83v-320h83q20 0 32.5 12.5t12.5 31.5zM384 768v512h160v-512h-160zM672 768v512h160v-512h-160z" />
<glyph unicode="&#xea12;" horiz-adv-x="2048" d="M1779 1344q86 0 145.5 -60.5t59.5 -147.5v-228q0 -86 -59.5 -145t-145.5 -59h-83v-16q0 -86 -61 -147t-147 -61h-1184q-86 0 -147 61t-61 147v672q0 86 61 147t147 61h1184q86 0 147 -61t61 -147v-16h83zM1536 688v672q0 20 -14 34t-34 14h-1184q-20 0 -34 -14t-14 -34
v-672q0 -20 14 -34t34 -14h1184q20 0 34 14t14 34zM1824 908v228q0 20 -13 34t-32 14h-83v-320h83q20 0 32.5 12.5t12.5 31.5zM384 768v512h160v-512h-160z" />
<glyph unicode="&#xea14;" horiz-adv-x="2048" d="M1779 1344q86 0 145.5 -60.5t59.5 -147.5v-228q0 -86 -59.5 -145t-145.5 -59h-83v-16q0 -86 -61 -147t-147 -61h-1184q-86 0 -147 61t-61 147v672q0 86 61 147t147 61h1184q86 0 147 -61t61 -147v-16h83zM1536 688v672q0 20 -14 34t-34 14h-1184q-20 0 -34 -14t-14 -34
v-672q0 -20 14 -34t34 -14h1184q20 0 34 14t14 34zM1824 908v228q0 20 -13 34t-32 14h-83v-320h83q20 0 32.5 12.5t12.5 31.5zM992 1280v-256h416l-608 -256v256h-416z" />
<glyph unicode="&#xea40;" horiz-adv-x="2048" d="M1632 2016h160v-152q0 -96 -70.5 -164t-169.5 -68h-417q-32 0 -55.5 -23t-23.5 -56v-113q88 -3 159.5 -15.5t120.5 -31t86 -44.5t58 -53t34 -61t17 -64t4 -65l1 -315v-208q0 -249 -133 -405q-149 -178 -427 -178q-276 0 -428 178q-132 157 -132 406v209v7v18v27.5v35.5
t0.5 41t0.5 45v47v47v45q0 79 28 138.5t72.5 95t110 58t128 31.5t140.5 11v113q0 99 70 169t169 70h417q32 0 56 21.5t24 50.5v152zM1376 1106q0 19 -1 30.5t-7 31.5t-17.5 32.5t-35 28.5t-56.5 26t-85 18t-118 10v-483h-160v483q-66 -2 -118 -10t-85 -18t-56.5 -26
t-35 -28.5t-17.5 -32.5t-7 -31.5t-1 -30.5v-528q0 -191 95 -303q102 -121 305 -121t305 121q95 110 95 302v529z" />
<glyph unicode="&#xea41;" horiz-adv-x="2048" d="M1392 508l135 -220h169v-160h-1280v160h162l128 210q-175 92 -280.5 263t-105.5 375q0 146 57 279.5t153.5 230t230 153.5t279.5 57t279.5 -57t230 -153.5t153.5 -230t57 -279.5q0 -198 -100.5 -365.5t-267.5 -262.5zM474 1136q0 -153 76 -283.5t206.5 -206.5t283.5 -76
t283.5 76t206.5 206.5t76 283.5t-76 283.5t-206.5 206.5t-283.5 76t-283.5 -76t-206.5 -206.5t-76 -283.5zM858 439l-92 -151h573l-96 157q-98 -29 -203 -29q-93 0 -182 23zM1344 1136q0 -126 -89 -215t-215 -89t-215 89t-89 215t89 215t215 89t215 -89t89 -215zM889 1136
q0 -62 44.5 -106.5t106.5 -44.5t106.5 44.5t44.5 106.5t-44.5 106.5t-106.5 44.5t-106.5 -44.5t-44.5 -106.5z" />
<glyph unicode="&#xea42;" horiz-adv-x="2048" d="M1863 1267q25 -47 25 -99v-352q0 -73 -45.5 -129.5t-114.5 -72.5v554q0 20 -14 34t-34 14h-1344q-20 0 -34 -14t-14 -34v-554q-69 16 -114.5 72.5t-45.5 129.5v352q0 55 26 101q27 58 123.5 253t127.5 246q93 152 261 152h685q163 0 261 -151q26 -40 121.5 -233.5
t130.5 -268.5h-1zM384 1376h1249q-137 278 -156 306q-29 45 -57.5 61.5t-68.5 16.5h-685q-42 0 -70.5 -17.5t-54.5 -58.5q-16 -26 -157 -308zM1120 690q2 -33 -31 -57.5t-81 -24.5t-81 24.5t-31 57.5q1 33 34 55.5t78 22.5t78 -22.5t34 -55.5zM416 928v160h1184v-160h-135
q105 -92 128 -208q19 -94 -17 -184.5t-113.5 -159t-197 -110.5t-257.5 -42t-257.5 42t-197 110.5t-113.5 159t-17 184.5q6 35 27 80h167q-34 -47 -43 -97q-20 -128 107.5 -225t326.5 -97t326.5 97t107.5 225q-12 73 -74 132t-156 93h-796z" />
<glyph unicode="&#xea80;" horiz-adv-x="2048" d="M1104 1696q33 0 56.5 -23.5t23.5 -56.5t-23.5 -56.5t-56.5 -23.5t-56.5 23.5t-23.5 56.5t23.5 56.5t56.5 23.5zM1424 1696q33 0 56.5 -23.5t23.5 -56.5t-23.5 -56.5t-56.5 -23.5t-56.5 23.5t-23.5 56.5t23.5 56.5t56.5 23.5zM1792 1312h-1408v-976q0 -33 23.5 -56.5
t56.5 -23.5h1088q33 0 56.5 23.5t23.5 56.5v848h160v-848q0 -100 -70.5 -170t-169.5 -70h-1088q-100 0 -170 70t-70 170v1344q0 99 70 169.5t170 70.5h1088q99 0 169.5 -70.5t70.5 -169.5v-368zM384 1680v-208h1248v208q0 33 -23.5 56.5t-56.5 23.5h-1088q-33 0 -56.5 -23.5
t-23.5 -56.5zM608 784q0 166 117 283t283 117t283 -117t117 -283t-117 -283t-283 -117t-283 117t-117 283zM1250 784q0 100 -71 171t-171 71t-171 -71t-71 -171t71 -171t171 -71t171 71t71 171z" />
<glyph unicode="&#xeb00;" horiz-adv-x="2048" d="M1539 1310q199 -33 322 -168t123 -323q0 -135 -66.5 -250t-181 -182t-248.5 -67h-176v160h176q139 0 237.5 99.5t98.5 239.5q0 137 -99.5 232t-256.5 107l-63 5l-10 61q-29 164 -153.5 270t-287.5 106q-102 0 -188.5 -35t-147.5 -101q-128 -138 -111 -361l5 -67l-65 -16
q-105 -27 -164 -99.5t-59 -173.5q0 -110 78 -188.5t187 -78.5h215v-160h-215q-175 0 -300 125.5t-125 301.5q0 141 74.5 249t206.5 159q2 251 156 418q84 90 201 138.5t252 48.5q206 0 368.5 -125.5t216.5 -324.5zM1297 861l116 -110l-405 -425l-405 425l116 110l209 -219
v510h160v-510z" />
<glyph unicode="&#xeb01;" horiz-adv-x="2048" d="M1632 832h160v-480h-1568v480h160v-320h1248v320zM1477 1115l-469 -469l-469 469l113 113l276 -276v648h160v-648l276 276z" />
<glyph unicode="&#xeb02;" horiz-adv-x="2048" d="M1120 1152v-295l151 151l114 -113l-345 -344l-344 344l113 113l151 -151v295h160zM1587 1920l333 -454v-1178h-1760v1178l333 454h1094zM1760 448v864h-512v160h469l-211 288h-386v-448h-160v448h-386l-211 -288h469v-160h-512v-864h1440z" />
<glyph unicode="&#xeb40;" horiz-adv-x="2048" d="M1539 1310q199 -33 322 -168t123 -323q0 -135 -66.5 -250t-181 -182t-248.5 -67h-176v160h176q139 0 237.5 99.5t98.5 239.5q0 137 -99.5 232t-256.5 107l-63 5l-10 61q-29 164 -153.5 270t-287.5 106q-102 0 -188.5 -35t-147.5 -101q-128 -138 -111 -361l5 -67l-65 -16
q-105 -27 -164 -99.5t-59 -173.5q0 -110 78 -188.5t187 -78.5h215v-160h-215q-175 0 -300 125.5t-125 301.5q0 141 74.5 249t206.5 159q2 251 156 418q84 90 201 138.5t252 48.5q206 0 368.5 -125.5t216.5 -324.5zM1413 721l-116 -110l-209 219v-510h-160v510l-209 -219
l-116 110l405 425z" />
<glyph unicode="&#xeb41;" horiz-adv-x="2048" d="M1632 832h160v-480h-1568v480h160v-320h1248v320zM928 1355l-276 -276l-113 114l469 469l469 -469l-113 -113l-276 276v-649h-160v648z" />
<glyph unicode="&#xeb42;" horiz-adv-x="2048" d="M696 865l344 345l345 -345l-114 -113l-151 151v-295h-160v295l-151 -151zM1587 1920l333 -454v-1178h-1760v1178l333 454h1094zM1760 448v864h-512v160h469l-211 288h-386v-448h-160v448h-386l-211 -288h469v-160h-512v-864h1440z" />
<glyph unicode="&#xeb80;" horiz-adv-x="2048" d="M1429 790l113 113l407 -407l-407 -408l-113 114l214 214h-391q-229 0 -353 220q-136 244 -196 324h-575v160h575q60 80 196 324q124 220 353 220h391l-214 214l113 113l407 -407l-407 -407l-113 113l214 214h-391q-136 0 -214 -138q-62 -112 -196 -326q149 -241 196 -326
q40 -72 91.5 -105t122.5 -33h391z" />
<glyph unicode="&#xeb81;" horiz-adv-x="2048" d="M1542 1446l407 -407l-407 -407l-113 113l215 215h-541q-34 -68 -198 -356q-122 -220 -352 -220h-425v160h425q135 0 213 138q22 41 101 182.5t98 175.5q-19 34 -98 175.5t-101 182.5q-78 138 -213 138h-425v160h425q230 0 352 -220q164 -288 198 -356h539l-213 213z" />
<glyph unicode="&#xeb82;" horiz-adv-x="2048" d="M1728 1632h160v-576h-576v160h304q-34 34 -107 108t-100 101q-108 107 -220 157t-245 50q-121 0 -232 -45t-193 -122t-135 -183.5t-62 -225.5h-160q9 151 74.5 287.5t169.5 235t244.5 156t293.5 57.5q165 0 306 -62t272 -192q27 -27 99.5 -100.5t106.5 -107.5v302z
M1104 352q121 0 232 45t193 122t135 183.5t62 225.5h160q-9 -151 -74.5 -287.5t-169.5 -235t-244.5 -156t-293.5 -57.5q-165 0 -306 62t-272 192q-60 60 -206 208v-302h-160v576h576v-160h-304q34 -34 107.5 -108t99.5 -101q108 -107 220 -157t245 -50z" />
<glyph unicode="&#xeb83;" horiz-adv-x="2048" d="M1120 1472h-160v416h160v-416zM1120 128h-160v416h160v-416zM1120 1472h-160v416h160v-416zM1120 128h-160v416h160v-416zM655 1280l-294 294l113 113l294 -294zM1606 329l-294 294l113 113l294 -294zM655 1280l-294 294l113 113l294 -294zM1606 329l-294 294l113 113
l294 -294zM576 928h-416v160h416v-160zM1920 928h-416v160h416v-160zM576 928h-416v160h416v-160zM1920 928h-416v160h416v-160zM474 329l-113 113l294 294l113 -113zM1425 1280l-113 113l294 294l113 -113zM474 329l-113 113l294 294l113 -113zM1425 1280l-113 113l294 294
l113 -113zM960 1472v416h160v-416h-160zM960 128v416h160v-416h-160zM576 1088v-160h-416v160h416zM1504 1088h416v-160h-416v160zM361 1574l113 113l294 -294l-113 -113zM1312 623l113 113l294 -294l-113 -113zM361 442l294 294l113 -113l-294 -294zM1719 1574l-294 -294
l-113 113l294 294z" />
<glyph unicode="&#xeb86;" horiz-adv-x="2048" d="M864 1408v160h160v-160h-160zM1344 1568v-160h-160v160h160zM1632 1152h160v-848q0 -86 -61 -147t-147 -61h-960q-86 0 -147 61t-61 147v848h160v832h1056v-832zM1632 304v688h-448v160h288v672h-736v-672h288v-160h-448v-688q0 -20 14 -34t34 -14h960q20 0 34 14t14 34z
" />
<glyph unicode="&#xec00;" horiz-adv-x="2048" d="M448 1760h1312v-1073l-524 -527h-788v1600zM1600 753v847h-992v-1280h561zM1152 768v-320h-160v480h480v-160h-320zM1472 2048v-160h-1152v-1440h-160v1600h1312z" />
<glyph unicode="&#xec01;" horiz-adv-x="2048" d="M320 1888h1440v-1201l-524 -527h-916v1728zM1600 753v975h-1120v-1408h689zM992 448v480h480v-160h-320v-320h-160zM960 1056v192h-192v160h192v192h160v-192h192v-160h-192v-192h-160z" />
<glyph unicode="&#xec02;" horiz-adv-x="2048" d="M320 1888h1440v-1201l-524 -527h-916v1728zM1600 753v975h-1120v-1408h689zM992 448v480h480v-160h-320v-320h-160zM1312 1408v-160h-544v160h544z" />
<glyph unicode="&#xec03;" horiz-adv-x="2048" d="M320 1888h1440v-1201l-524 -527h-916v1728zM1600 753v975h-1120v-1408h689zM992 448v480h480v-160h-320v-320h-160zM1375 1486l-363 -451l-288 317l118 108l163 -179l246 305z" />
<glyph unicode="&#xec04;" horiz-adv-x="2048" d="M320 1888h1440v-1201l-524 -527h-916v1728zM1600 753v975h-1120v-1408h689zM992 448v480h480v-160h-320v-320h-160zM904 1079l-113 113l136 136l-136 136l113 113l136 -136l136 136l113 -113l-136 -136l136 -136l-113 -113l-136 136z" />
<glyph unicode="&#xec30;" horiz-adv-x="2048" d="M608 1248v-96h-288v416h288v-96h-192v-64h160v-96h-160v-64h192zM781 1152h-128l131 222l-119 194h131l55 -117l54 117h125l-117 -195l130 -221h-135l-62 128zM1408 1472h-192v-64h160v-96h-160v-64h192v-96h-320v416h320v-96zM992 448v480h480v-160h-320v-320h-160z
M320 1888h1440v-1201l-524 -527h-916v832h160v-672h689l431 433v975h-1280v160z" />
<glyph unicode="&#xec31;" horiz-adv-x="2048" d="M992 448v480h480v-160h-320v-320h-160zM320 1888h1440v-1201l-524 -527h-916v832h160v-672h689l431 433v975h-1280v160zM640 1248v-96h-320v101l170 219h-170v96h320v-91l-173 -229h173zM1145 1568q66 0 100 -53t34 -107q0 -71 -40 -115.5t-103 -44.5h-80v-96h-96v416
h185zM1113 1344q23 0 41 17.5t18 46.5q0 27 -16 45.5t-37 18.5h-63v-128h57zM736 1568h128v-416h-128v416z" />
<glyph unicode="&#xec32;" horiz-adv-x="2048" d="M992 448v480h480v-160h-320v-320h-160zM320 1888h1440v-1201l-524 -527h-916v832h160v-672h689l431 433v975h-1280v160zM667 1361q0 -209 -187 -209h-160v416h182q86 0 125.5 -58.5t39.5 -148.5zM416 1248h58q32 0 51.5 21.5t24 44.5t4.5 49q0 14 -2.5 29t-10.5 35
t-27.5 32.5t-47.5 12.5h-50v-224zM890 1568q83 0 134.5 -58.5t51.5 -149.5t-51.5 -149.5t-134.5 -58.5t-134 58.5t-51 149.5t51 149.5t134 58.5zM890 1251q28 0 50.5 25t22.5 84t-22.5 84t-50.5 25q-27 0 -49.5 -25t-22.5 -84t22.5 -84t49.5 -25zM1302 1472q-37 0 -53.5 -31
t-16.5 -76q0 -47 17 -81.5t53 -34.5q48 0 60 58h110q0 -57 -46 -106t-121 -49q-86 0 -135.5 60t-49.5 151q0 93 50.5 149t134.5 56q151 -1 165 -157h-109q-2 29 -14.5 45t-44.5 16z" />
<glyph unicode="&#xec34;" horiz-adv-x="2048" d="M960 448v480h480v-160h-320v-320h-160zM288 1888h1440v-1201l-524 -527h-916v832h160v-672h689l431 433v975h-1280v160zM384 1248v-96h-96v416h185q66 0 100 -53t34 -107q0 -71 -40 -115.5t-103 -44.5h-80zM384 1472v-128h57q23 0 41 17.5t18 46.5q0 27 -16 45.5
t-37 18.5h-63zM855 1568q57 0 95.5 -32.5t53.5 -78t15 -99.5q0 -94 -47 -150t-139 -56h-161v416h183zM830 1248q32 0 51.5 21.5t24 43t4.5 45.5q0 14 -2.5 29t-10.5 36.5t-27.5 35t-47.5 13.5h-54v-224h62zM1376 1472h-192v-64h160v-96h-160v-160h-96v416h288v-96z" />
<glyph unicode="&#xec35;" horiz-adv-x="2048" d="M992 448v480h480v-160h-320v-320h-160zM320 1888h1440v-1201l-524 -527h-916v832h160v-672h689l431 433v975h-1280v160zM462 1152q-142 0 -142 143v17h96v-6q0 -25 13 -42t37 -17q21 0 33.5 19t12.5 37v265h96v-263q0 -82 -34 -117.5t-112 -35.5zM1202 1468
q-76 0 -76 -112q0 -23 6 -46t26 -44.5t52 -21.5q61 0 68 36h-62v64h160v-192h-70l-3 49q-34 -47 -104 -47q-79 0 -127 60t-48 148q0 105 54 155t126 50q69 0 112.5 -42.5t56.5 -116.5h-104q-9 60 -67 60zM848 1248h-80v-96h-96v416h185q66 0 100 -53t34 -107
q0 -71 -40 -115.5t-103 -44.5zM768 1472v-128h57q23 0 41 17.5t18 46.5q0 27 -16 45.5t-37 18.5h-63z" />
<glyph unicode="&#xec36;" horiz-adv-x="2048" d="M992 448v480h480v-160h-320v-320h-160zM320 1888h1440v-1201l-524 -527h-916v832h160v-672h689l431 433v975h-1280v160zM1266 1468q-75 0 -75 -112q0 -23 5.5 -46t25.5 -44.5t52 -21.5q61 0 67 36h-61v64h160v-192h-70l-3 49q-35 -47 -104 -47q-79 0 -127 60t-48 148
q0 105 54 155t126 50q69 0 112.5 -42.5t56.5 -116.5h-104q-7 60 -67 60zM928 1344v224h96v-416h-103l-121 224v-224h-96v416h113zM416 1248v-96h-96v416h185q66 0 100 -53t34 -107q0 -71 -40 -115.5t-103 -44.5h-80zM416 1472v-128h57q23 0 41 17.5t18 46.5q0 27 -16 45.5
t-37 18.5h-63z" />
<glyph unicode="&#xec37;" horiz-adv-x="2048" d="M992 448v480h480v-160h-320v-320h-160zM320 1888h1440v-1201l-524 -527h-916v832h160v-672h689l431 433v975h-1280v160zM416 1408v-256h-96v416h157l52 -224h1l52 224h154v-416h-96v256h-5l-63 -256h-84l-64 256h-8zM985 1568q66 0 100 -53t34 -107q0 -71 -40 -115.5
t-103 -44.5h-80v-96h-96v416h185zM953 1344q23 0 41 17.5t18 46.5q0 27 -16 45.5t-37 18.5h-63v-128h57zM1312 1244q50 0 50 46q0 42 -50 42q-7 0 -31 -3v79q3 0 13 -1t18 -1q51 0 51 37q0 18 -15 27t-34 9q-44 0 -50 -39h-100q6 61 45 94q43 34 108 34q72 0 107.5 -35
t35.5 -69q0 -24 -5 -41.5t-12 -26t-14.5 -13t-12.5 -5.5l-5 -2v-1q0 -1 6.5 -2.5t15.5 -6.5t17.5 -14t15 -28t6.5 -44q0 -48 -37 -88t-118 -40q-47 0 -81 14.5t-49.5 32t-24 44t-9.5 39t-1 29.5h102q-1 -32 14 -49q14 -18 44 -18z" />
<glyph unicode="&#xec38;" horiz-adv-x="2048" d="M992 448v480h480v-160h-320v-320h-160zM320 1888h1440v-1201l-524 -527h-916v832h160v-672h689l431 433v975h-1280v160zM416 1280v-128h-96v416h233q45 0 77 -36t32 -90q0 -34 -13 -68t-37 -44q43 -20 49 -96q3 -53 11 -82h-102q-2 12 -4 23t-3 17.5t-2 15.5
q-1 24 -3.5 36.5t-13 24t-29.5 11.5h-99zM416 1472v-96h98q17 0 31.5 12.5t14.5 35.5q0 48 -51 48h-93zM1462 1442q0 -34 -13 -68t-37 -44q43 -20 49 -96q3 -53 11 -82h-102q-2 12 -4 23t-3 17.5t-2 15.5q-1 24 -3.5 36.5t-13 24t-29.5 11.5h-99v-128h-96v416h234
q44 0 76 -36t32 -90zM1314 1376q17 0 31 12.5t14 35.5q0 48 -50 48h-93v-96h98zM841 1568h112l135 -416h-119l-15 64h-118l-17 -64h-115zM848 1280h95l-45 160h-1z" />
<glyph unicode="&#xec39;" horiz-adv-x="2048" d="M992 448v480h480v-160h-320v-320h-160zM320 1888h1440v-1201l-524 -527h-916v832h160v-672h689l431 433v975h-1280v160zM498 1469q-75 0 -75 -112q0 -24 5.5 -46.5t25.5 -44t52 -21.5q62 0 67 35h-61v64h160v-192h-70l-3 49q-35 -47 -104 -47q-79 0 -127 60.5t-48 148.5
q0 105 54 155t126 50q69 0 112.5 -42.5t56.5 -116.5h-104q-7 60 -67 60zM768 1568h128v-416h-128v416zM1280 1472h-192v-64h160v-96h-160v-160h-96v416h288v-96z" />
<glyph unicode="&#xec76;" horiz-adv-x="2048" d="M788 1088h1196l-46 -111q-5 -10 -138.5 -329.5t-145.5 -345.5q-29 -63 -74 -102.5t-127 -39.5h-1037q-63 0 -104 24q-53 29 -86.5 90.5t-33.5 155.5v1106h642l64 -160h296l160 -160h-564l-65 160h-373v-992q0 -51 40 -60q20 -5 42.5 5t31.5 31zM1508 367l236 561h-852
l-269 -608h830q21 0 30.5 7t24.5 40zM1955 1602l-403 -403l-403 403l113 113l210 -210v511h160v-511l210 210z" />
<glyph unicode="&#xec77;" horiz-adv-x="2048" d="M788 1088h1196l-46 -111q-5 -10 -138.5 -329.5t-145.5 -345.5q-29 -63 -74 -102.5t-127 -39.5h-1037q-63 0 -104 24q-53 29 -86.5 90.5t-33.5 155.5v1106h642l64 -160h446v-160h-554l-65 160h-373v-992q0 -51 40 -60q20 -5 42.5 5t31.5 31zM1508 367l236 561h-852
l-269 -608h830q21 0 30.5 7t24.5 40zM1472 1734l-210 -210l-113 113l403 403l403 -403l-113 -113l-210 210v-518h-160v518z" />
<glyph unicode="&#xed40;" horiz-adv-x="2048" d="M1808 1440q86 0 147 -61t61 -147v-640q0 -86 -61 -147t-147 -61h-144v160h144q20 0 34 14t14 34v640q0 20 -14 34t-34 14h-1568q-20 0 -34 -14t-14 -34v-640q0 -20 14 -34t34 -14h144v-160h-144q-86 0 -147 61t-61 147v640q0 86 61 147t147 61h208v480h1152v-480h208z
M608 1760v-320h832v320h-832zM512 224v640h160v-640h-160zM800 0v864h160v-864h-160zM1088 0v864h160v-864h-160zM1376 224v640h160v-640h-160zM1728 1152v-160h-160v160h160z" />
<glyph unicode="&#xed42;" horiz-adv-x="2048" d="M608 608v160h896v-160h-896zM1504 1120v-160h-896v160h896zM1024 1344v148l636 317l72 -143l-325 -162h209q86 0 147 -61t61 -147v-119l412 207l72 -144l-644 -320v376q0 20 -14 34t-34 14h-592zM1664 777l572 286l72 -143l-484 -241v-279q0 -86 -61 -147t-147 -61h-1120
q-86 0 -147 61t-61 147v1312q0 86 61 147t147 61h480q85 0 145.5 -59.5t62.5 -145.5l-160 -80v77q0 20 -14 34t-34 14h-480q-20 0 -34 -14t-14 -34v-1312q0 -20 14 -34t34 -14h1120q20 0 34 14t14 34v377z" />
<glyph unicode="&#xed43;" horiz-adv-x="2048" d="M96 1216h1920v-672h-1920v672zM1856 704v352h-1600v-352h1600zM1978 1434l-40 -154l-1758 453l40 155zM1728 960v-160h-160v160h160z" />
<glyph unicode="&#xed44;" horiz-adv-x="2048" d="M1840 1856q86 0 147 -61t61 -147v-640q0 -86 -61 -147t-147 -61h-80v160h80q20 0 34 14t14 34v640q0 20 -14 34t-34 14h-1568q-20 0 -34 -14t-14 -34v-640q0 -20 14 -34t34 -14h80v-160h-80q-86 0 -147 61t-61 147v640q0 86 61 147t147 61h1568zM480 128v1152h1152v-1152
h-1152zM640 1120v-832h832v832h-832zM1760 1568v-160h-160v160h160zM1120 952q67 -18 116.5 -67.5t67.5 -116.5h72v-128h-72q-18 -67 -67 -116.5t-117 -67.5v-72h-128v72q-68 18 -117 67t-67 117h-72v128h72q18 67 67 116.5t117 67.5v72h128v-72zM1056 573q54 0 92.5 38.5
t38.5 92.5t-38.5 92.5t-92.5 38.5t-92.5 -38.5t-38.5 -92.5t38.5 -92.5t92.5 -38.5zM1024 672v64h64v-64h-64z" />
<glyph unicode="&#xee01;" horiz-adv-x="2048" d="M1833 1720l-504 -504h463v-160h-736v736h160v-463l504 504zM256 832v160h736v-736h-160v463l-504 -504l-113 113l504 504h-463z" />
<glyph unicode="&#xee02;" horiz-adv-x="2048" d="M384 1600v-1184h736v-160h-896v1504h896v-160h-736zM1061 539l-113 113l276 276h-648v160h648l-276 276l113 113l469 -469z" />
<glyph unicode="&#xee03;" horiz-adv-x="2048" d="M800 1760h896v-1504h-896v160h736v1184h-736v160zM773 1477l469 -469l-469 -469l-113 113l276 276h-648v160h648l-276 276z" />
<glyph unicode="&#xee04;" horiz-adv-x="2048" d="M288 1760h640v-160h-367l360 -360l-113 -113l-360 360v-367h-160v640zM921 808l-360 -360h367v-160h-640v640h160v-367l360 360zM1120 1760h640v-640h-160v367l-360 -360l-113 113l360 360h-367v160zM1600 561v367h160v-640h-640v160h367l-360 360l113 113z" />
<glyph unicode="&#xee05;" horiz-adv-x="2048" d="M1393 1280h367v-160h-640v640h160v-367l359 359l113 -113zM288 928h640v-640h-160v367l-359 -359l-113 113l359 359h-367v160zM768 1393v367h160v-640h-640v160h367l-359 359l113 113zM1120 928h640v-160h-367l359 -359l-113 -113l-359 359v-367h-160v640z" />
<glyph unicode="&#xefe0;" horiz-adv-x="2048" d="M1056 1888q175 0 335 -68.5t276 -184.5t184.5 -276t68.5 -335t-68.5 -335t-184.5 -276t-276 -184.5t-335 -68.5t-335 68.5t-276 184.5t-184.5 276t-68.5 335t68.5 335t184.5 276t276 184.5t335 68.5zM1056 313q193 0 356.5 95.5t259 259t95.5 356.5t-95.5 356.5t-259 259
t-356.5 95.5t-356.5 -95.5t-259 -259t-95.5 -356.5t95.5 -356.5t259 -259t356.5 -95.5zM1570 981q21 -91 -33 -171.5t-151 -103.5l-32 134l-101 -24l-40 169l101 24l-32 134q97 23 181.5 -24.5t106.5 -137.5zM1376 1392q0 -46 -33 -79t-79 -33t-79 33t-33 79t33 79t79 33
t79 -33t33 -79zM912 768q46 0 79 -33t33 -79t-33 -79t-79 -33t-79 33t-33 79t33 79t79 33zM992 1152q0 -92 -66 -158t-158 -66t-158 66t-66 158t66 158t158 66t158 -66t66 -158zM768 1051q42 0 71.5 29.5t29.5 71.5t-29.5 71.5t-71.5 29.5t-71.5 -29.5t-29.5 -71.5
t29.5 -71.5t71.5 -29.5z" />
<glyph unicode="&#xefe1;" horiz-adv-x="2048" d="M1117 808l-136 84l50 82l-109 67q49 79 135 103t160 -21q73 -45 90.5 -133t-31.5 -167l-109 67zM672 800q0 40 28 68t68 28t68 -28t28 -68t-28 -68t-68 -28t-68 28t-28 68zM1779 1333q224 -433 238 -917h-513q0 -93 -65.5 -158.5t-158.5 -65.5t-158.5 65.5t-65.5 158.5
h-128v-160q0 -93 -65.5 -158.5t-158.5 -65.5t-158.5 65.5t-65.5 158.5v161h-430l975 1384q315 -248 498 -601q121 -233 173 -495h-164q-48 225 -151 421q-129 249 -328 439l-695 -989h282v-320q0 -26 19 -45t45 -19t45 19t19 45v320h448v-160q0 -26 19 -45t45 -19t45 19
t19 45v160h501q-41 363 -208 683q-200 385 -539 647l92 131q371 -285 589 -704z" />
<glyph unicode="&#xeff0;" horiz-adv-x="2048" d="M1910 366l77 -140q-20 -11 -48 -24t-123 -46.5t-197 -58t-264 -45t-332 -20.5t-331 20t-265.5 45.5t-196 57.5t-123.5 47t-47 24l77 140l2 -1q23 -11 51.5 -24t116.5 -43t181.5 -51.5t238.5 -39t296 -17.5q149 0 292 17t236.5 38.5t181 50.5t118.5 42.5t55 25.5z
M832 1088q-45 32 -58 68t-0.5 69.5t35.5 68l46 69t35.5 68t-0.5 69.5t-58 68h160q45 -32 58 -68t0.5 -69.5t-35.5 -68l-46 -69t-35.5 -68t0.5 -69.5t58 -68h-160zM1152 1088q-45 32 -58 68t-0.5 69.5t35.5 68l46 69t35.5 68t-0.5 69.5t-58 68h160q45 -32 58 -68t0.5 -69.5
t-35.5 -68l-46 -69t-35.5 -68t0.5 -69.5t58 -68h-160zM633 604q-7 23 -14 50.5t-11.5 52.5t-9 49t-7 45t-4.5 36t-3 25t-1 11l-7 87h739h161h38q121 0 199.5 -72.5t78.5 -183.5t-78.5 -183.5t-199.5 -72.5h-176q-102 -128 -312 -128q-48 0 -88 5t-88 22.5t-85.5 47.5t-73 83
t-58.5 126zM1460 800q-18 -122 -41 -192h95q47 0 82.5 23.5t35.5 72.5t-35.5 72.5t-82.5 23.5h-54zM1298 800h-544q14 -93 32 -148q33 -103 88 -138.5t152 -35.5t151.5 35.5t87.5 138.5q19 61 33 148z" />
<glyph unicode="&#xeff1;" horiz-adv-x="2048" d="M1008 1376q-46 0 -79 33t-33 79t33 79t79 33t79 -33t33 -79t-33 -79t-79 -33zM720 1600q-46 0 -79 33t-33 79t33 79t79 33t79 -33t33 -79t-33 -79t-79 -33zM1296 1600q-46 0 -79 33t-33 79t33 79t79 33t79 -33t33 -79t-33 -79t-79 -33zM1008 1824q-46 0 -79 33t-33 79
t33 79t79 33t79 -33t33 -79t-33 -79t-79 -33zM448 1248h1120l-150 -1216h-820zM1360 864l28 224h-760l111 -896h538l64 512h-517l-19 160h555z" />
<glyph unicode="&#xeff2;" horiz-adv-x="2048" d="M843 1230q-88 -21 -133 -42.5t-72 -67.5h-174q14 41 34.5 76t41 59t50 44.5t52 32.5t57 24t53.5 17t53 13q96 23 137.5 47t60.5 84l23 75l76 -22q15 -4 48 -16t102 -48.5t131 -83.5t124 -127.5t92 -174.5h-172q-33 70 -93 129.5t-110 89.5t-103 53q-24 -39 -56 -68
t-75 -47t-70.5 -26.5t-76.5 -20.5zM1721 992q128 0 211.5 -77t83.5 -195t-83.5 -195t-211.5 -77h-113q-35 -107 -88 -185t-108.5 -121.5t-126.5 -69t-129.5 -33t-129.5 -7.5q-72 0 -131.5 7.5t-131.5 34.5t-128 72.5t-109.5 127t-87.5 193.5q-52 171 -79 438l-7 87h1369z
M1462 514q37 123 63 318h-997q23 -189 62 -318q24 -79 57.5 -137t71.5 -93.5t88.5 -56.5t101.5 -29t117 -8t117.5 8t101.5 29t88 57t71.5 93.5t57.5 136.5zM1721 608q54 0 94.5 27.5t40.5 84.5t-40.5 84.5t-94.5 27.5h-36q-11 -106 -35 -224h71z" />
<glyph unicode="&#xeff3;" horiz-adv-x="2048" d="M1008 736q-33 0 -56.5 23.5t-23.5 56.5t23.5 56.5t56.5 23.5t56.5 -23.5t23.5 -56.5t-23.5 -56.5t-56.5 -23.5zM816 576q-33 0 -56.5 23.5t-23.5 56.5t23.5 56.5t56.5 23.5t56.5 -23.5t23.5 -56.5t-23.5 -56.5t-56.5 -23.5zM1200 576q-33 0 -56.5 23.5t-23.5 56.5
t23.5 56.5t56.5 23.5t56.5 -23.5t23.5 -56.5t-23.5 -56.5t-56.5 -23.5zM1008 416q-33 0 -56.5 23.5t-23.5 56.5t23.5 56.5t56.5 23.5t56.5 -23.5t23.5 -56.5t-23.5 -56.5t-56.5 -23.5zM448 1248h1120l-150 -1216h-820zM1277 192l111 896h-760l111 -896h538zM863 1487
q-37 -11 -55 -17t-42.5 -18.5t-40.5 -31t-29 -44.5h-169q16 56 43.5 100.5t53.5 69.5t66.5 46t63.5 29t65 20q80 23 112 46t47 83l22 83l81 -28q18 -6 41.5 -16.5t85 -48.5t112.5 -84t104 -126.5t79 -173.5h-168q-36 95 -101.5 160.5t-135.5 104.5q-21 -37 -49 -64
t-64.5 -44.5t-59 -25.5t-62.5 -20z" />
<glyph unicode="&#xeff4;" horiz-adv-x="2048" d="M1407 1248h161l-150 -1216h-820l-150 1216h161l130 -1056h538l63 512h-514l-19 160h553zM716 1351l-113 113l120 120l-120 120l113 113l153 -153h59v59l-153 153l113 113l120 -120l120 120l113 -113l-153 -153v-59h59l153 153l114 -113l-120 -120l120 -120l-114 -113
l-153 153h-59v-59l153 -153l-113 -113l-120 119l-120 -119l-113 113l153 152v60h-59z" />
<glyph unicode="&#xeff5;" horiz-adv-x="2048" d="M1040 32q-207 0 -363 106t-240.5 302t-84.5 456t84.5 456t240.5 302t363 106t363 -106t240.5 -302t84.5 -456t-84.5 -456t-240.5 -302t-363 -106zM1040 1607q-247 0 -390 -191t-143 -520t143 -520t390 -191t390 191t143 520t-143 520t-390 191zM970 318q-7 12 -18.5 38.5
t-29 91.5t-23.5 134t10 164t59 183q32 64 44.5 134.5t8.5 123.5t-15.5 102t-21 72.5t-14.5 34.5l-1 1l142 74q9 -18 18.5 -39.5t28 -91t23.5 -136.5t-10.5 -163t-58.5 -183q-32 -65 -44.5 -135t-9.5 -120t15.5 -101.5t20.5 -70.5t15 -35l1 -2z" />
<glyph unicode="&#xeff6;" horiz-adv-x="2048" d="M1721 992q128 0 211.5 -77t83.5 -195t-83.5 -195t-211.5 -77h-113q-35 -107 -88 -185t-108.5 -121.5t-126.5 -69t-129.5 -33t-129.5 -7.5q-72 0 -131.5 7.5t-131.5 34.5t-128 72.5t-109.5 127t-87.5 193.5q-52 171 -79 438l-7 87h1369zM1462 514q37 123 63 318h-997
q23 -189 62 -318q24 -79 57.5 -137t71.5 -93.5t88.5 -56.5t101.5 -29t117 -8t117.5 8t101.5 29t88 57t71.5 93.5t57.5 136.5zM1721 608q54 0 94.5 27.5t40.5 84.5t-40.5 84.5t-94.5 27.5h-36q-11 -106 -35 -224h71zM1008 1216q-46 0 -79 33t-33 79t33 79t79 33t79 -33
t33 -79t-33 -79t-79 -33zM720 1440q-46 0 -79 33t-33 79t33 79t79 33t79 -33t33 -79t-33 -79t-79 -33zM1296 1440q-46 0 -79 33t-33 79t33 79t79 33t79 -33t33 -79t-33 -79t-79 -33zM1008 1664q-46 0 -79 33t-33 79t33 79t79 33t79 -33t33 -79t-33 -79t-79 -33z" />
<glyph unicode="&#xeff7;" horiz-adv-x="2048" d="M1023 190q149 0 292 17t236.5 38.5t181 50.5t118.5 42.5t55 25.5l4 2l77 -140q-20 -11 -48 -24t-123 -46.5t-197 -58t-264 -45t-332 -20.5t-331 20t-265.5 45.5t-196 57.5t-123.5 47t-47 24l77 140l2 -1q23 -11 51.5 -24t116.5 -43t181.5 -51.5t238.5 -39t296 -17.5z
M438 755q-52 170 -79 438l-7 87h1369q128 0 211.5 -77t83.5 -195t-83.5 -195t-211.5 -77h-113q-35 -107 -88 -185t-108.5 -121.5t-126.5 -69t-129.5 -33t-129.5 -7.5q-72 0 -131.5 7.5t-131.5 34.5t-128 72.5t-109.5 127t-87.5 193.5zM1685 1120q-11 -106 -35 -224h71
q54 0 94.5 27.5t40.5 84.5t-40.5 84.5t-94.5 27.5h-36zM1525 1120h-997q23 -190 62 -317q30 -99 72.5 -164.5t100 -100t118.5 -47.5t145 -13t145.5 13t118.5 47.5t99.5 100t72.5 164.5q37 120 63 317zM544 1408h-160v1q0 147 102.5 251.5t247.5 106.5q50 72 126 112.5
t164 40.5t164 -40.5t126 -112.5q145 -2 247.5 -106.5t102.5 -251.5v-1h-160q0 82 -57 140.5t-136 58.5q-17 0 -39 -2.5t-36 -5.5l-13 -3l-26 53q-24 51 -71 81t-102 30t-102 -30t-71 -81l-26 -53q-44 11 -88 11q-79 0 -136 -58.5t-57 -140.5z" />
<glyph unicode="&#xeff8;" horiz-adv-x="2048" d="M1721 992q128 0 211.5 -77t83.5 -195t-83.5 -195t-211.5 -77h-113q-35 -107 -88 -185t-108.5 -121.5t-126.5 -69t-129.5 -33t-129.5 -7.5q-72 0 -131.5 7.5t-131.5 34.5t-128 72.5t-109.5 127t-87.5 193.5q-52 171 -79 438l-7 87h1369zM1462 514q37 123 63 318h-997
q23 -189 62 -318q24 -79 57.5 -137t71.5 -93.5t88.5 -56.5t101.5 -29t117 -8t117.5 8t101.5 29t88 57t71.5 93.5t57.5 136.5zM1721 608q54 0 94.5 27.5t40.5 84.5t-40.5 84.5t-94.5 27.5h-36q-11 -106 -35 -224h71zM1415 1552l-407 -407l-407 407l407 407zM1008 1733
l-181 -181l181 -181l181 181z" />
<glyph unicode="&#xeff9;" horiz-adv-x="2048" d="M1824 1024v-160h-192l-228 -768h-728l-229 768h-191v160h1568zM1285 256l181 608h-852l181 -608h490zM1040 1120q-102 0 -194 26.5t-168 77.5t-121 135.5t-45 192.5t45 192.5t121 135.5t168 77.5t194 26.5t194 -26.5t168 -77.5t121 -135.5t45 -192.5t-45 -192.5
t-121 -135.5t-168 -77.5t-194 -26.5zM1040 1827q-175 0 -273.5 -73t-98.5 -202q0 -127 100 -201t272 -74t272 74t100 201q0 129 -98.5 202t-273.5 73zM1013 1494q-46 21 -70.5 28.5t-55.5 4t-63 -26.5l-73 105q46 32 91 44.5t89.5 5t69.5 -16.5t66 -28q46 -21 70 -28.5
t55 -3.5t64 27l73 -105q-73 -52 -152 -52q-65 0 -164 46z" />
<glyph unicode="&#xeffa;" horiz-adv-x="2048" d="M1349 640h-522l-148 480h-103v160h1024v-160h-103zM1330 1120h-484l99 -320h286zM1699 1603q122 -122 187.5 -280t65.5 -331t-65.5 -331t-187.5 -280t-280 -187.5t-331 -65.5v0q-183 0 -338.5 68t-298.5 211q-24 24 -227 229v-220h-160v512h512v-160h-257
q221 -225 245 -248q121 -121 247 -176.5t277 -55.5q141 0 269.5 53t228.5 153t153 228.5t53 269.5t-53 269.5t-153 228.5t-228.5 153t-269.5 53q-176 0 -327 -78t-249 -217t-121 -313h-162q18 154 92.5 295t187.5 245t264.5 166t314.5 62q173 0 331 -65.5t280 -187.5z" />
<glyph unicode="&#xeffb;" horiz-adv-x="2048" d="M256 1856h1568v-160h-192l-228 -768h-728l-229 768h-191v160zM1285 1088l181 608h-852l181 -608h490zM1120 417l210 210l113 -113l-403 -403l-403 403l113 113l210 -210v383h160v-383z" />
<glyph unicode="&#xeffc;" horiz-adv-x="2048" d="M1742 1312l242 -308v-780h-864v780l242 308h380zM1824 384v564l-160 204h-224l-160 -204v-564h544zM1472 1440q0 106 -75 181t-181 75t-181 -75t-75 -181v-608q0 -146 -103 -249t-249 -103t-249 103t-103 249v320h-224v672h608v-672h-224v-320q0 -80 56 -136t136 -56
t136 56t56 136v608q0 172 122 294t294 122t294 -122t122 -294h-160zM192 1664v-352h288v352h-288z" />
<glyph unicode="&#xf100;" horiz-adv-x="2048" d="M1298 502q-18 -12 -18 -30q0 -24 19 -40q28 -23 73 -52q33 -22 51 -35.5t43 -40t38 -54t22.5 -71.5t9.5 -99v-80h-1024v80q0 68 12 117t39 84t49 53.5t63 45.5q43 27 74 52q19 16 19 40q0 18 -18 30q-17 12 -69 37q-34 17 -54.5 27.5t-56 33.5t-57.5 44t-49 56
t-42.5 72.5t-26.5 90.5t-11 113v80h1280v-80q0 -60 -11 -113t-26.5 -90.5t-43 -72.5t-49 -56t-57 -44t-55.5 -33.5t-55 -27.5q-52 -25 -69 -37zM1200 307q-39 31 -60.5 76t-19.5 95q3 99 88 156q27 18 89 49q36 17 54.5 27t47 29.5t44.5 39t31.5 50t22.5 67.5h-946
q7 -37 22.5 -67.5t31.5 -50t44.5 -39t47 -29.5t54.5 -27q62 -31 89 -49q85 -57 88 -156q2 -50 -19.5 -95t-60.5 -76q-37 -30 -84 -60q-67 -45 -83 -87h687q-9 23 -27 42t-57 45q-47 30 -84 60zM643 1184h-157q-6 40 -6 81q0 142 49 272t126.5 219.5t175 142.5t193.5 53
t193.5 -53t175 -142.5t126.5 -219.5t49 -272q0 -41 -6 -81h-157q7 45 7 80q0 120 -52.5 243t-144 206.5t-191.5 83.5t-191.5 -83.5t-144 -206.5t-52.5 -243q0 -34 7 -80z" />
<glyph unicode="&#xf101;" horiz-adv-x="2048" d="M800 1216q-53 0 -90.5 37.5t-37.5 90.5t37.5 90.5t90.5 37.5t90.5 -37.5t37.5 -90.5t-37.5 -90.5t-90.5 -37.5zM1088 416q-66 0 -113 47t-47 113t47 113t113 47t113 -47t47 -113t-47 -113t-113 -47zM224 1824h1504v-478q-15 3 -32 3q-68 0 -116.5 -48.5t-48.5 -116.5
t48.5 -116.5t116.5 -48.5q17 0 32 3v-958h-1504v579q25 -10 48 -10q50 0 84.5 34.5t34.5 84.5t-34.5 84.5t-84.5 34.5q-23 0 -48 -10v963zM1568 1477v187h-1184v-664q72 -33 116 -100t44 -148t-44 -148t-116 -100v-280h1184v667q-86 37 -139 116.5t-53 176.5t53 176.5
t139 116.5z" />
<glyph unicode="&#xf107;" horiz-adv-x="2048" d="M960 966q0 -148 -89 -253t-215 -105t-215 105t-89 253q0 98 39 192t110 156t155 62t155 -62t110 -156t39 -192zM508 966q0 -83 44 -144t104 -61t104 61t44 144q0 96 -48.5 176.5t-99.5 80.5t-99.5 -80.5t-48.5 -176.5zM1696 966q0 -148 -89 -253t-215 -105t-215 105
t-89 253q0 98 39 192t110 156t155 62t155 -62t110 -156t39 -192zM1244 966q0 -83 44 -144t104 -61t104 61t44 144q0 96 -48.5 176.5t-99.5 80.5t-99.5 -80.5t-48.5 -176.5zM1818 1696l230 -704l-230 -704h-672l-122 147l-122 -147h-672l-209 640h168l156 -480h482l197 237
l197 -237h482l177 544l-177 544h-1358l-156 -480h-168l209 640h1588z" />
<glyph unicode="&#xf111;" horiz-adv-x="2048" d="M1535 1351l144 33q64 -209 -109 -381q-196 -196 -473.5 -397t-519.5 -337q-81 -45 -166 -45q-109 0 -180 71q-63 63 -70.5 158.5t44.5 187.5q136 242 337 519.5t397 473.5q126 126 274 126q50 0 106 -17l-34 -142q-1 -3 -1 -7t-1 -7q-37 14 -70 14q-82 0 -161 -80l-8 -8
l202 -201l-113 -114l-198 199q-181 -205 -374 -486l142 -142l-113 -114l-119 119q-75 -120 -127 -211q-25 -44 -25 -87.5t25 -67.5q25 -25 67 -25q44 0 88 25q258 144 533 348l-171 171l113 113l186 -186q177 141 298 262q111 111 66 233q2 1 5.5 1.5t5.5 0.5zM1488 1473
q-33 0 -57 24q-32 32 -21 75l97 416l156 -36l-68 -291l291 68l36 -156l-416 -98q-12 -2 -18 -2z" />
<glyph unicode="&#xf112;" horiz-adv-x="2048" d="M1766 756q33 -60 53.5 -136.5t27.5 -140t8 -125t-0.5 -91t-3.5 -39.5l-5 -52l-49 -16q-8 -3 -28.5 -8.5t-72.5 -12.5t-108 -7q-185 0 -369 70q-136 53 -264.5 142.5t-225.5 193t-167.5 211t-104.5 205.5q-60 175 -31 368q-73 69 -156 189.5t-145 293.5l150 55
q31 -85 71.5 -162t75.5 -125.5t68 -86t50 -53t20 -16.5l43 -34l-15 -53v-1q-6 -24 -10.5 -55.5t-0.5 -113t29 -153.5q40 -115 135 -241t238 -240t296 -173q223 -85 421 -51q6 242 -69 380q-18 33 -38 57t-49 44.5t-47 31t-60 32.5q-52 27 -83 45t-80 57t-90 87
q-40 47 -110 164q-72 122 -110 164q-82 91 -202 85q-24 -2 -49 -6q-67 46 -134 124q112 36 206 34t153 -24.5t117.5 -81.5t85 -99t70.5 -114q65 -107 94 -141q32 -37 70 -67t63.5 -45t71.5 -39q38 -20 56 -30t52.5 -33t56 -43t48 -53t47.5 -71zM1392 416q-59 0 -101.5 42
t-42.5 102t42.5 102t101.5 42t101.5 -42t42.5 -102t-42.5 -102t-101.5 -42zM1040 640q-59 0 -101.5 42.5t-42.5 101.5q0 60 42.5 102t101.5 42t101.5 -42t42.5 -102q0 -59 -42.5 -101.5t-101.5 -42.5zM816 1280q60 0 102 -42.5t42 -101.5q0 -60 -42 -102t-102 -42t-102 42
t-42 102q0 59 42 101.5t102 42.5z" />
<glyph unicode="&#xf114;" horiz-adv-x="2048" d="M1094 757l154 -40q-30 -119 -87 -211t-125 -145t-137.5 -79t-137.5 -26q-36 0 -71 8q-46 11 -85.5 29t-81.5 53t-71 82t-48 119t-19 160q0 123 -53 349q-13 54 -20 84t-15 81t-8.5 84.5t3.5 78.5t17 79.5t37 72t59 70.5q107 100 244 89q38 -3 86 -18q-2 -96 22 -185
q-65 40 -120 44q-68 4 -124 -47q-28 -26 -43.5 -57.5t-21 -61.5t-0.5 -78.5t13 -88t25 -110.5q19 -79 28.5 -123t19.5 -120.5t10 -142.5q0 -77 15.5 -132.5t44.5 -85.5t57 -45t65 -24q42 -10 93.5 4t104 51.5t99 111t71.5 170.5zM1684 1641q41 -27 69.5 -62.5t44 -69.5
t21 -80.5t5 -81.5t-9 -87.5t-16 -84t-20.5 -83.5q-50 -190 -50 -288q0 -44 -1.5 -78.5t-9 -89.5t-20.5 -97.5t-38.5 -92t-60.5 -84.5t-89 -62.5t-122 -38.5q-30 -5 -53 -5q-90 0 -180 48q55 56 101 129q54 -23 107 -14q41 6 70.5 18.5t56.5 39t43.5 68t26 106.5t9.5 153
q0 116 55 328q44 153 41 242.5t-69 133.5q-29 20 -59 23t-67 -12t-68.5 -34.5t-84.5 -57.5q-32 -22 -50 -34t-51 -31t-58.5 -25t-57.5 -10t-63 6.5t-60 33.5q-51 39 -80 117t-32 159q-6 164 85 246q71 64 200 80.5t355 13.5l-2 -159q-49 2 -117.5 0.5t-132 -4.5t-118.5 -16
t-78 -34q-36 -31 -33 -121q2 -54 18.5 -99t31.5 -56q17 -14 49 0t101 64q38 27 51 35.5t54.5 34t65 34t65.5 20.5t74 9.5t73 -14t78 -36.5z" />
<glyph unicode="&#xf115;" horiz-adv-x="2048" d="M1527 1511q74 -70 114 -113.5t95 -121t75.5 -165t9.5 -186.5q-9 -80 -43.5 -153.5t-80.5 -127t-107 -102t-113 -78.5t-108 -56l-94 138q364 163 389 396q9 79 -15.5 151.5t-62 122.5t-99.5 112q-72 -33 -126 -63t-129 -83t-144.5 -129t-128.5 -172l-136 84
q60 98 131 178.5t145 137.5t134.5 94t129.5 71q-29 28 -54 57q-121 133 -177 321h-152q-56 -188 -177 -321q-32 -36 -109 -109q-115 -109 -157 -163q-106 -137 -89 -289q25 -233 388 -396l-93 -138q-56 26 -108 56t-113 78.5t-107 102t-80.5 127t-43.5 153.5
q-24 225 136 423q49 60 157 163q67 62 101 99q39 43 68.5 89.5t43.5 80.5t23 65.5t10.5 44.5t1.5 17l3 77h442l3 -77q0 -5 2 -18t10.5 -44.5t23 -65.5t43.5 -80t68 -89q29 -32 100 -99zM1056 580q42 0 66 -35l260 -385h-193l-133 197l-133 -197h-193l260 385q24 35 66 35z
" />
<glyph unicode="&#xf116;" horiz-adv-x="2048" d="M1176 672q12 8 23 -1q9 -9 5 -26l-3 -9q-3 -10 -7.5 -22t-11 -29t-13.5 -33t-16 -32t-17 -27q-22 -28 -48 -37q-29 -11 -47 5.5t-15.5 49t27.5 64.5q16 21 47 45.5t50.5 36.5t25.5 15zM1297 669l6 -5q6 -4 14 -10t18.5 -15t20 -18.5t18 -21t13.5 -22.5q13 -28 6 -61
t-30 -51q-19 -17 -46 -11.5t-41 36.5q-17 39 -17 150q1 17 14 26.5t24 2.5zM1325 778l9 8q9 9 22 20.5t28.5 24.5t33 24.5t31.5 16.5q33 13 55 0.5t25 -39.5q1 -12 -3 -28.5t-20.5 -37t-42.5 -30.5q-46 -18 -134 -5q-15 2 -15 18.5t11 27.5zM814 706q-34 -2 -52 -2
q-107 0 -201.5 41.5t-165.5 118.5q-79 87 -113.5 205t-21.5 251q17 173 111 327.5t238.5 253t304.5 113.5q122 11 231 -30t187 -128q79 -87 114.5 -204.5t21.5 -251.5q-17 -174 -111 -328.5t-238.5 -252.5t-304.5 -113zM511 967q110 -123 288 -106q125 11 239 90t188 203
t88 263q20 208 -97 336q-97 108 -250 108q-12 0 -38 -2q-125 -11 -239 -90t-188 -203t-88 -263q-20 -208 97 -336zM709 1362q-33 0 -50 7q-30 11 -38.5 41t5.5 54q22 45 68 45q12 0 24 -5q19 -7 43 -30t34.5 -36.5t15.5 -21.5q8 -11 1 -27t-21 -18q-1 -1 -12.5 -3t-31.5 -4
t-38 -2zM816 1304q10 -10 5 -26l-4 -12q-4 -12 -10.5 -29t-14.5 -36.5t-18.5 -39t-20.5 -32.5q-21 -27 -47 -37q-29 -11 -47 5t-15.5 48t26.5 64q16 21 47 45.5t50.5 36.5t25.5 15q13 6 23 -2zM913 1302q72 -48 91 -91q13 -28 6 -60t-31 -50q-18 -17 -45 -11.5t-41 36.5
q-17 38 -17 148q1 16 14 25.5t23 2.5zM946 1365q-15 2 -15 18.5t10 25.5q74 74 124 94q33 12 55.5 -0.5t24.5 -38.5q3 -21 -12.5 -50.5t-53.5 -44.5q-51 -19 -133 -4zM906 1452q-10 -16 -23.5 -15t-16.5 14q-3 10 -7 30.5t-8.5 57.5t1.5 61q7 42 31 65.5t46 21.5
q24 -1 36 -25.5t6 -58.5q-2 -12 -6.5 -26t-10 -28t-12 -28t-13 -26t-11.5 -21t-8 -16zM1714 1231q80 -89 115.5 -208t22.5 -255q-17 -176 -111 -332t-239 -255.5t-305 -114.5q-36 -2 -52 -2q-219 0 -366 159q-130 145 -139 358q63 -11 122 -11q6 0 17 0.5t16 0.5
q12 -147 99 -244q112 -123 287 -106q192 18 343.5 183t173.5 381q20 211 -99 343q-19 21 -47 43q29 82 42 156q69 -39 120 -96z" />
<glyph unicode="&#xf117;" horiz-adv-x="2048" d="M1952 1184q0 -143 -68.5 -265t-187.5 -196.5t-260 -81.5q-78 -247 -102 -504l-6 -73h-608l-6 73q-17 184 -65 376q8 -1 23 -1q63 0 138 15q36 -147 55 -303h318q26 221 90 433q-70 19 -128 52q57 57 101 127q78 -36 162 -36q159 0 271.5 112.5t112.5 271.5
q0 151 -104 262t-256 121l-41 2l-22 36q-53 88 -140 137.5t-189 49.5t-189 -49.5t-140 -137.5l-22 -36l-41 -2q-152 -10 -256 -121t-104 -262q0 -159 112.5 -271.5t271.5 -112.5q90 0 169.5 39.5t134.5 111.5l64 83q52 -76 101 -125q-50 -84 -124 -144v-1
q-151 -124 -345 -124q-148 0 -273 73t-198 198t-73 273q0 203 134 356.5t334 181.5q77 109 193.5 169.5t250.5 60.5t250.5 -60.5t193.5 -169.5q200 -28 334 -181.5t134 -356.5z" />
<glyph unicode="&#xf126;" horiz-adv-x="2048" d="M1217 1244l155 -155q65 -65 65 -158t-65 -159q-65 -65 -159 -65q-93 0 -158 65l-155 155q-65 65 -65 159q0 93 65 158t158 65q94 0 159 -65zM1258 885q19 18 19 46q0 27 -19 45l-154 155q-18 18 -46 18q-27 0 -45 -18t-18 -45q0 -28 18 -46l155 -155q18 -18 45.5 -18
t44.5 18zM1577 1320q48 -48 80.5 -105t46.5 -110.5t19 -90.5t5 -70v-640q0 -105 -83.5 -188.5t-188.5 -83.5h-896q-105 0 -188.5 83.5t-83.5 188.5v1024q0 100 77.5 181.5t178.5 89.5v353h608v-358q176 -25 297 -145zM1568 304v640q0 20 -3 44.5t-12.5 63t-32.5 80t-56 75.5
l-128 129q-34 33 -76 56t-80.5 32.5t-63 12.5t-44.5 3h-240v160h160v192h-288v-192v-45v-115h-144q-39 0 -75.5 -36.5t-36.5 -75.5v-1024q0 -38 37 -75t75 -37h896q39 0 75.5 36.5t36.5 75.5z" />
<glyph unicode="&#xf12a;" horiz-adv-x="2048" d="M891 1760l8 -70q3 -20 6 -49t9.5 -105.5t10 -145.5t3 -152t-8.5 -142q-24 -175 -114 -283.5t-229 -133.5v-391h192v-160h-544v160h192v391q-140 25 -229.5 133.5t-113.5 283.5q-8 59 -8.5 142t3 152t10 145.5t9.5 105.5t6 49l8 70h157q-9 -70 -23 -253q-4 -50 -10 -162
v-3q-4 -151 7 -225q5 -37 14 -71t28.5 -75t47 -70t73 -49t101.5 -20t101 20t72.5 49t47.5 70t29 75t14 71q20 144 -12 483h-377q9 115 16 160h504zM1776 1056q99 0 169.5 -70.5t70.5 -169.5t-70.5 -169.5t-169.5 -70.5h-74l-54 -448h-512l-112 928h736h16zM1507 288l73 608
h-376l74 -608h229zM1776 736q33 0 56.5 23.5t23.5 56.5t-23.5 56.5t-56.5 23.5h-35l-20 -160h55z" />
<glyph unicode="&#xf12b;" horiz-adv-x="2048" d="M1784 1248q107 0 185 -80.5t78 -191.5q0 -110 -78 -191t-185 -81h-103q-2 -14 -8 -50t-9 -55q-55 -298 -169 -432.5t-311 -134.5q-203 0 -320 146q-115 -146 -320 -146q-197 0 -311 134.5t-168 432.5q-8 43 -15 92.5t-12.5 95t-10.5 93t-8.5 86.5t-6.5 76.5t-4.5 61.5
t-2.5 42l-1 18l-4 84h1139q107 0 185 -80.5t78 -191.5q0 -110 -78 -191t-185 -81h-98q-2 -14 -8 -50t-9 -55q-29 -156 -73 -266q24 -45 52.5 -75t59.5 -43.5t58.5 -18.5t62.5 -5q43 0 74.5 6.5t70.5 32t68.5 71t59 128.5t51.5 199q24 122 42.5 323t20.5 297h213zM1079 1088
q-4 -82 -19 -224h79q41 0 71.5 33.5t30.5 78.5t-30.5 78.5t-71.5 33.5h-60zM544 191q36 0 62.5 4.5t59.5 19t59 44.5t53 76.5t49.5 120.5t40.5 172q32 171 53 460h-754q21 -289 53 -460q21 -116 50.5 -199.5t59 -128.5t68.5 -70.5t71 -32t75 -6.5zM1784 864q41 0 72 33.5
t31 78.5t-31 78.5t-72 33.5h-65q-4 -82 -19 -224h84z" />
<glyph unicode="&#xf134;" horiz-adv-x="2048" d="M1568 1568v-512h-1056v512h448v416h160v-416h448zM1408 1216v192h-736v-192h736zM1724 411q33 -141 -50 -243q-82 -104 -226 -104h-816q-144 0 -226 104q-83 102 -50 243l119 517h165l-128 -553q-15 -64 19 -108q34 -43 101 -43h816q67 0 101 43q34 44 19 108l-128 553
h165zM1040 832q33 0 56.5 -23.5t23.5 -56.5t-23.5 -56.5t-56.5 -23.5t-56.5 23.5t-23.5 56.5t23.5 56.5t56.5 23.5zM768 592q0 33 23.5 56.5t56.5 23.5t56.5 -23.5t23.5 -56.5t-23.5 -56.5t-56.5 -23.5t-56.5 23.5t-23.5 56.5zM1152 592q0 33 23.5 56.5t56.5 23.5
t56.5 -23.5t23.5 -56.5t-23.5 -56.5t-56.5 -23.5t-56.5 23.5t-23.5 56.5zM1040 512q33 0 56.5 -23.5t23.5 -56.5t-23.5 -56.5t-56.5 -23.5t-56.5 23.5t-23.5 56.5t23.5 56.5t56.5 23.5z" />
<glyph unicode="&#xf135;" horiz-adv-x="2048" d="M2012 1042l-588 -589l-204 204l-203 -204l-204 204l-204 -204l-588 589l588 588l589 -588l-272 -272l91 -90l362 362l-475 475l113 113l588 -588l-271 -272l90 -90l362 362l-475 475l113 113zM247 1042l362 -362l363 362l-363 362z" />
<glyph unicode="&#xf140;" horiz-adv-x="2048" d="M640 576v160h768v-160h-768zM1408 1024v-160h-768v160h768zM592 1696q33 0 56.5 -23.5t23.5 -56.5t-23.5 -56.5t-56.5 -23.5t-56.5 23.5t-23.5 56.5t23.5 56.5t56.5 23.5zM880 1696q33 0 56.5 -23.5t23.5 -56.5t-23.5 -56.5t-56.5 -23.5t-56.5 23.5t-23.5 56.5t23.5 56.5
t56.5 23.5zM1168 1696q33 0 56.5 -23.5t23.5 -56.5t-23.5 -56.5t-56.5 -23.5t-56.5 23.5t-23.5 56.5t23.5 56.5t56.5 23.5zM1456 1696q33 0 56.5 -23.5t23.5 -56.5t-23.5 -56.5t-56.5 -23.5t-56.5 23.5t-23.5 56.5t23.5 56.5t56.5 23.5zM1824 1312h-1440v-976
q0 -33 23.5 -56.5t56.5 -23.5h1120q33 0 56.5 23.5t23.5 56.5v848h160v-848q0 -100 -70 -170t-170 -70h-1120q-100 0 -170 70t-70 170v1344q0 99 70 169.5t170 70.5h1120q100 0 170 -70.5t70 -169.5v-368zM384 1472h1280v208q0 33 -23.5 56.5t-56.5 23.5h-1120
q-33 0 -56.5 -23.5t-23.5 -56.5v-208z" />
<glyph unicode="&#xf141;" horiz-adv-x="2048" d="M1696 1440q-40 0 -68 28t-28 68t28 68t68 28t68 -28t28 -68t-28 -68t-68 -28zM1696 1280q40 0 68 -28t28 -68t-28 -68t-68 -28t-68 28t-28 68t28 68t68 28zM1696 928q40 0 68 -28t28 -68t-28 -68t-68 -28t-68 28t-28 68t28 68t68 28zM1696 576q40 0 68 -28t28 -68
t-28 -68t-68 -28t-68 28t-28 68t28 68t68 28zM1168 1728q139 0 237.5 -98.5t98.5 -237.5t-98.5 -237.5t-237.5 -98.5t-237.5 98.5t-98.5 237.5t98.5 237.5t237.5 98.5zM1168 1214q74 0 126 52t52 126t-52 126t-126 52t-126 -52t-52 -126t52 -126t126 -52zM1168 960
q139 0 237.5 -98.5t98.5 -237.5t-98.5 -237.5t-237.5 -98.5t-237.5 98.5t-98.5 237.5t98.5 237.5t237.5 98.5zM1168 446q74 0 126 52t52 126t-52 126t-126 52t-126 -52t-52 -126t52 -126t126 -52zM400 1728q139 0 237.5 -98.5t98.5 -237.5t-98.5 -237.5t-237.5 -98.5
t-237.5 98.5t-98.5 237.5t98.5 237.5t237.5 98.5zM400 1214q74 0 126 52t52 126t-52 126t-126 52t-126 -52t-52 -126t52 -126t126 -52zM400 960q139 0 237.5 -98.5t98.5 -237.5t-98.5 -237.5t-237.5 -98.5t-237.5 98.5t-98.5 237.5t98.5 237.5t237.5 98.5zM400 446
q74 0 126 52t52 126t-52 126t-126 52t-126 -52t-52 -126t52 -126t126 -52z" />
<glyph unicode="&#xf143;" horiz-adv-x="2048" d="M798 864l-160 -160h-542v481l576 357v410h160v-499l-576 -357v-232h542zM1344 1542l576 -357v-481h-542l-160 160h542v232l-576 357v499h160v-410zM605 489l403 404l403 -404l-113 -113l-210 210v-522h-160v522l-210 -210z" />
<glyph unicode="&#xf144;" horiz-adv-x="2048" d="M1344 1542l576 -357v-481h-1824v481l576 357v410h160v-499l-576 -357v-232h1504v232l-576 357v499h160v-410zM1088 576q45 -32 58 -68t0.5 -69.5t-35.5 -68l-46 -69t-35.5 -68t0.5 -69.5t58 -68h-160q-45 32 -58 68t-0.5 69.5t35.5 68l46 69t35.5 68t-0.5 69.5t-58 68
h160zM672 576q45 -32 58 -68t0.5 -69.5t-35.5 -68l-46 -69t-35.5 -68t0.5 -69.5t58 -68h-160q-45 32 -58 68t-0.5 69.5t35.5 68l46 69t35.5 68t-0.5 69.5t-58 68h160zM1504 576q45 -32 58 -68t0.5 -69.5t-35.5 -68l-46 -69t-35.5 -68t0.5 -69.5t58 -68h-160q-45 32 -58 68
t-0.5 69.5t35.5 68l46 69t35.5 68t-0.5 69.5t-58 68h160z" />
<glyph unicode="&#xf151;" horiz-adv-x="2048" d="M736 1264v688h160v-688q0 -130 -81.5 -230.5t-206.5 -128.5v-809h-160v809q-125 28 -206.5 128.5t-81.5 230.5v688h160v-688q0 -86 61 -147t147 -61t147 61t61 147zM1680 1056q99 0 169.5 -70t70.5 -170v-480q0 -100 -70.5 -170t-169.5 -70h-304v672h160v-512h144
q33 0 56.5 23.5t23.5 56.5v480q0 33 -23.5 56.5t-56.5 23.5h-448q-33 0 -56.5 -23.5t-23.5 -56.5v-480q0 -33 23.5 -56.5t56.5 -23.5h16v-160h-16q-100 0 -170 70t-70 170v480q0 100 70 170t170 70h144v896h160v-896h144z" />
<glyph unicode="&#xf152;" horiz-adv-x="2048" d="M1933 1915l-515 -515q-13 -57 -31 -125t-57.5 -194t-83 -237t-107.5 -232.5t-130 -201.5q-206 -251 -436 -251q-189 0 -348 161q-29 27 -53 60l743 743l113 -113l-629 -629q88 -62 174 -62q153 0 313 193q193 234 349 818q-94 -25 -189 -55t-216 -75t-230.5 -102
t-182.5 -117q-185 -154 -193 -301q-1 -27 6 -61l-127 -127q-44 95 -38 196q9 217 250 416q80 66 201.5 130t232.5 107.5t237 83t194 57.5t125 31l515 515zM1699 1384q145 -150 196.5 -351.5t0 -402.5t-196.5 -351q-4 -4 -12 -11.5t-12 -11.5h213v-160h-512v512h160v-262
q26 21 48 45q116 120 157.5 280.5t0 321t-157.5 280.5z" />
<glyph unicode="&#xf153;" horiz-adv-x="2048" d="M1852 1852q70 -70 70 -169.5t-70 -169.5l-365 -365q96 -173 110 -369l-160 -11q-15 224 -156 400l-517 -517l-113 113l517 517q-176 141 -400 156l10 160q197 -14 370 -110l365 365q70 70 169 70q100 0 170 -70zM1739 1626q23 23 23 56.5t-23 56.5t-57 23t-56 -23
l-344 -344q26 -21 59 -54t54 -59zM1138 844l121 121q75 -162 43.5 -347t-163.5 -317q-84 -83 -192.5 -128t-226.5 -45t-226.5 45t-192.5 128q-83 84 -128 192.5t-45 226.5t45 226.5t128 191.5q84 84 192.5 129t226.5 45q127 0 245 -53l-121 -121q-60 18 -124 18
q-181 0 -308 -127q-128 -128 -128 -309t128 -309q127 -127 308 -127q180 0 309 127q86 86 114.5 204.5t-5.5 228.5z" />
<glyph unicode="&#xf162;" horiz-adv-x="2048" d="M562 1760h1431l-265 -624v-672q0 -86 -61 -147t-147 -61h-704q-86 0 -147 61t-61 147v1008h160v-1008q0 -20 14 -34t34 -14h704q20 0 34 14t14 34v704l183 432h-1189q-59 0 -93 -28.5t-49 -107.5l-134 -659l-156 32l133 658q15 78 47.5 133t76 82t86 38.5t89.5 11.5z
M992 640v128h352v-128h-352zM992 896v128h352v-128h-352zM1344 1280v-128h-352v128h352z" />
<glyph unicode="&#xf163;" horiz-adv-x="2048" d="M2048 1472v-160h-256v-155q0 -195 -95.5 -361t-256.5 -266v-306h-832v328q-148 103 -234 262t-86 343v155h-256v160h256v256h1504v-256h256zM1632 1157v411h-1184v-411q0 -165 87.5 -303.5t232.5 -212.5v-63v-112v-82h512v71v105v66q158 69 255 213t97 318zM720 1088
q-33 0 -56.5 23.5t-23.5 56.5t23.5 56.5t56.5 23.5t56.5 -23.5t23.5 -56.5t-23.5 -56.5t-56.5 -23.5zM1040 1088q-33 0 -56.5 23.5t-23.5 56.5t23.5 56.5t56.5 23.5t56.5 -23.5t23.5 -56.5t-23.5 -56.5t-56.5 -23.5zM880 800q-33 0 -56.5 23.5t-23.5 56.5t23.5 56.5
t56.5 23.5t56.5 -23.5t23.5 -56.5t-23.5 -56.5t-56.5 -23.5zM1200 800q-33 0 -56.5 23.5t-23.5 56.5t23.5 56.5t56.5 23.5t56.5 -23.5t23.5 -56.5t-23.5 -56.5t-56.5 -23.5zM1360 1088q-33 0 -56.5 23.5t-23.5 56.5t23.5 56.5t56.5 23.5t56.5 -23.5t23.5 -56.5t-23.5 -56.5
t-56.5 -23.5z" />
<glyph unicode="&#xf165;" horiz-adv-x="2048" d="M864 512l176 256l176 -256h-352zM1040 1888q108 0 211.5 -41.5t188.5 -112.5t157.5 -167t122 -204.5t77 -226.5t27.5 -230q0 -171 -62 -327t-167.5 -268.5t-250.5 -179.5t-304 -67t-304 67t-250.5 179.5t-167.5 268.5t-62 327q0 112 27.5 230t77 226.5t122 204.5
t157.5 167t188.5 112.5t211.5 41.5zM1040 216q160 0 298 81.5t225 222.5t104 312h-131v160h129q-14 134 -69 266.5t-136 238.5t-192 172t-228 66t-228 -66t-192 -172t-136 -238.5t-69 -266.5h417v-160h-419q17 -171 104 -312t225 -222.5t298 -81.5zM1120 1184v-352h-160v352
h160zM1248 832v352h160v-352h-160z" />
<glyph unicode="&#xf166;" horiz-adv-x="2048" d="M1008 1444q-187 0 -338 -108t-236 -299.5t-85 -428.5h-157q0 200 55.5 376.5t153 305t233.5 209t294 97.5v164h160v-164q158 -17 294 -97.5t233.5 -209t153 -305t55.5 -376.5h-157q0 237 -85 428.5t-236 299.5t-338 108zM64 480h1888v-160h-1888v160zM928 1152
q45 -37 58 -77.5t0.5 -78t-35.5 -77l-46 -79t-35.5 -77t0.5 -78t58 -77.5h-160q-45 37 -58 77.5t-0.5 78t35.5 77l46 79t35.5 77t-0.5 78t-58 77.5h160zM1248 1152q45 -37 58 -77.5t0.5 -78t-35.5 -77l-46 -79t-35.5 -77t0.5 -78t58 -77.5h-160q-45 37 -58 77.5t-0.5 78
t35.5 77l46 79t35.5 77t-0.5 78t-58 77.5h160z" />
<glyph unicode="&#xf167;" horiz-adv-x="2048" d="M1040 285q232 0 434 57t333 156t166 220q11 -39 11 -78q0 -139 -126.5 -257t-344 -186.5t-473.5 -68.5t-473.5 68.5t-344 186.5t-126.5 257q0 39 11 78q35 -121 166 -220t333 -156t434 -57zM1040 605q232 0 434 57t333 156t166 220q11 -39 11 -78q0 -139 -126.5 -257
t-344 -186.5t-473.5 -68.5t-473.5 68.5t-344 186.5t-126.5 257q0 39 11 78q35 -121 166 -220t333 -156t434 -57zM1040 768q-260 0 -477 67.5t-342 185.5t-125 259t125 259t342 185.5t477 67.5t477 -67.5t342 -185.5t125 -259t-125 -259t-342 -185.5t-477 -67.5zM1040 1636
q-169 0 -320 -32t-252.5 -83t-160.5 -114.5t-59 -126.5t59 -126.5t160.5 -114.5t252.5 -83t320 -32t320 32t252.5 83t160.5 114.5t59 126.5t-59 126.5t-160.5 114.5t-252.5 83t-320 32zM514 1178q-66 49 -66 102q0 61 79 112.5t215.5 81.5t297.5 30t297.5 -30t215.5 -81.5
t79 -112.5q0 -53 -66 -102q2 6 2 9q0 44 -70.5 80.5t-192 58t-265.5 21.5t-265.5 -21.5t-192 -58t-70.5 -80.5q0 -3 2 -9z" />
<glyph unicode="&#xf168;" horiz-adv-x="2048" d="M1760 1328v-80h-1504v80q0 105 99.5 193.5t251 140.5t321.5 63v131h160v-131q169 -11 321 -63t251.5 -140.5t99.5 -193.5zM467 1408h1082q-75 65 -220 113.5t-321 48.5t-321 -48.5t-220 -113.5zM1600 1120h416v-160h-256v-496q0 -112 -80 -192t-192 -80h-960
q-112 0 -192 80t-80 192v496h-256v160h416v-656q0 -46 33 -79t79 -33h960q46 0 79 33t33 79v656z" />
<glyph unicode="&#xf172;" horiz-adv-x="2048" d="M1991 1575q24 -77 25 -155.5t-17 -145.5t-52.5 -133.5t-75 -120t-90 -104.5t-93 -87.5t-88.5 -68.5v-568h-1120v568q-45 32 -88.5 68.5t-93 87.5t-90 104.5t-74.5 120t-52.5 133.5t-17.5 145.5t25 155.5q43 135 146 206.5t255 71.5q69 0 140 -15q197 146 410 146
t410 -146q71 15 140 15q152 0 255 -71.5t146 -206.5zM1474 867q30 21 60 44.5t69 58t72.5 72t68 81t58 91.5t39 98t15 105.5t-17.5 109.5q-52 166 -248 166q-15 0 -30.5 -1t-28.5 -2.5t-25 -3.5t-21.5 -4t-16 -3.5t-10.5 -2.5l-4 -1l-43 -14l-34 31l-2 2q-116 94 -250 121
q-43 9 -85 9q-61 0 -122.5 -17.5t-107 -43.5t-69 -42t-36.5 -27l-2 -2l-34 -31l-44 14q-61 18 -135 18q-196 0 -248 -166q-17 -54 -17.5 -109.5t15 -105.5t39 -98t58 -91.5t68 -81t72.5 -72t69 -58t60 -44.5l34 -24v-491h800v491zM693 1189l150 54l128 -352l-150 -54z
M1109 891l128 352l150 -54l-128 -352z" />
<glyph unicode="&#xf192;" horiz-adv-x="2048" d="M1104 1696q33 0 56.5 -23.5t23.5 -56.5t-23.5 -56.5t-56.5 -23.5t-56.5 23.5t-23.5 56.5t23.5 56.5t56.5 23.5zM1424 1696q33 0 56.5 -23.5t23.5 -56.5t-23.5 -56.5t-56.5 -23.5t-56.5 23.5t-23.5 56.5t23.5 56.5t56.5 23.5zM1312 958q0 -97 -63 -173.5t-161 -102.5v-138
h128v-160h-416v160h128v138q-98 26 -161 102.5t-63 173.5v226h608v-226zM864 956q0 -52 42.5 -89t101.5 -37t101.5 37t42.5 89v68h-288v-68zM1792 1680v-368h-1408v-976q0 -33 23.5 -56.5t56.5 -23.5h1088q33 0 56.5 23.5t23.5 56.5v848h160v-848q0 -100 -70.5 -170
t-169.5 -70h-1088q-100 0 -170 70t-70 170v1344q0 99 70 169.5t170 70.5h1088q99 0 169.5 -70.5t70.5 -169.5zM1632 1472v208q0 33 -23.5 56.5t-56.5 23.5h-1088q-33 0 -56.5 -23.5t-23.5 -56.5v-208h1248z" />
<glyph unicode="&#xf193;" horiz-adv-x="2048" d="M672 1616q0 33 23.5 56.5t56.5 23.5t56.5 -23.5t23.5 -56.5t-23.5 -56.5t-56.5 -23.5t-56.5 23.5t-23.5 56.5zM960 1456q0 33 23.5 56.5t56.5 23.5t56.5 -23.5t23.5 -56.5t-23.5 -56.5t-56.5 -23.5t-56.5 23.5t-23.5 56.5zM2016 960v-160h-320v-496q0 -100 -70 -170
t-170 -70h-1056q-100 0 -170 70t-70 170v576q0 100 70 170t170 70h1056q77 0 139 -44.5t87 -115.5h334zM1536 304v576q0 33 -23.5 56.5t-56.5 23.5h-1056q-33 0 -56.5 -23.5t-23.5 -56.5v-576q0 -33 23.5 -56.5t56.5 -23.5h1056q33 0 56.5 23.5t23.5 56.5zM448 1343
q-128 111 -128 257q0 115 80.5 210.5t220 150.5t307.5 55t307.5 -55t220 -150.5t80.5 -210.5q0 -146 -128 -257v-95h-160v173l32 24q96 72 96 157q0 68 -61 127t-164.5 94t-222.5 35t-222.5 -35t-164.5 -94t-61 -127q0 -84 95 -157l33 -24v-173h-160v95z" />
<glyph unicode="&#xf194;" horiz-adv-x="2048" d="M1680 1760q99 0 169.5 -70t70.5 -170v-960q0 -100 -70.5 -170t-169.5 -70h-1312q-99 0 -169.5 70t-70.5 170v960q0 100 70.5 170t169.5 70h1312zM1760 560v960q0 33 -23.5 56.5t-56.5 23.5h-1312q-33 0 -56.5 -23.5t-23.5 -56.5v-960q0 -33 23.5 -56.5t56.5 -23.5h880
v992h160v-992h272q33 0 56.5 23.5t23.5 56.5zM1584 768q33 0 56.5 -23.5t23.5 -56.5t-23.5 -56.5t-56.5 -23.5t-56.5 23.5t-23.5 56.5t23.5 56.5t56.5 23.5zM1584 1024q33 0 56.5 -23.5t23.5 -56.5t-23.5 -56.5t-56.5 -23.5t-56.5 23.5t-23.5 56.5t23.5 56.5t56.5 23.5z
M416 1376q48 -41 100.5 -53.5t101.5 -1t99.5 33l101 43t99.5 33t101.5 -1t100.5 -53.5v-128q-48 41 -100.5 53.5t-101.5 1t-99.5 -33l-101 -43t-99.5 -33t-101.5 1t-100.5 53.5v128zM416 1120q48 -41 100.5 -53.5t101.5 -1t99.5 33l101 43t99.5 33t101.5 -1t100.5 -53.5
v-128q-48 41 -100.5 53.5t-101.5 1t-99.5 -33l-101 -43t-99.5 -33t-101.5 1t-100.5 53.5v128zM416 864q48 -41 100.5 -53.5t101.5 -1t99.5 33l101 43t99.5 33t101.5 -1t100.5 -53.5v-128q-48 41 -100.5 53.5t-101.5 1t-99.5 -33l-101 -43t-99.5 -33t-101.5 1t-100.5 53.5
v128z" />
<glyph unicode="&#xf195;" horiz-adv-x="2048" d="M896 768v128h256v-128h-256zM896 1024v128h256v-128h-256zM896 1280v128h256v-128h-256zM512 96v160h1120v-160h-1120zM17 521l55 150l312 -114v-170zM1878 1761l77 -32l-323 -685v-660h-1120v384h-128q-104 0 -180 76t-76 180v552q0 97 50 175.5t136 118.5
q227 104 674 76h3q305 -19 505.5 -64t381.5 -121zM1472 1080l267 565q-142 54 -318.5 91.5t-442.5 53.5q-411 25 -597 -62q-13 -6 -26.5 -15.5t-30 -26.5t-26.5 -44.5t-10 -61.5v-556q0 -37 29.5 -66.5t66.5 -29.5h128v710q70 16 160 24v-1118h800v536z" />
<glyph unicode="&#xf196;" horiz-adv-x="2048" d="M1792 800h-1312v-496q0 -33 23.5 -56.5t56.5 -23.5h992q33 0 56.5 23.5t23.5 56.5v368h160v-368q0 -100 -70.5 -170t-169.5 -70h-992q-100 0 -170 70t-70 170v656h1312v816q0 33 -23.5 56.5t-56.5 23.5h-992q-33 0 -56.5 -23.5t-23.5 -56.5v-688h-160v688q0 100 70 170
t170 70h992q99 0 169.5 -70t70.5 -170v-976zM1056 1248h448v-160h-448v160zM1504 512h-448v160h448v-160z" />
<glyph unicode="&#xf197;" horiz-adv-x="2048" d="M1792 1680v-368h-1408v-976q0 -33 23.5 -56.5t56.5 -23.5h1088q33 0 56.5 23.5t23.5 56.5v848h160v-848q0 -100 -70.5 -170t-169.5 -70h-1088q-100 0 -170 70t-70 170v1344q0 99 70 169.5t170 70.5h1088q99 0 169.5 -70.5t70.5 -169.5zM1632 1472v208q0 33 -23.5 56.5
t-56.5 23.5h-1088q-33 0 -56.5 -23.5t-23.5 -56.5v-208h1248zM1424 1696q33 0 56.5 -23.5t23.5 -56.5t-23.5 -56.5t-56.5 -23.5t-56.5 23.5t-23.5 56.5t23.5 56.5t56.5 23.5zM1301 1017l113 -113l-120 -120l120 -120l-113 -113l-153 153h-60v-58l154 -154l-113 -113
l-120 120l-120 -120l-113 113l152 152v60h-58l-153 -153l-114 113l120 120l-120 120l114 113l153 -153h58v60l-152 152l113 113l120 -120l120 120l113 -113l-154 -154v-58h59z" />
<glyph unicode="&#xf198;" horiz-adv-x="2048" d="M1008 1824q-46 0 -79 33t-33 79t33 79t79 33t79 -33t33 -79t-33 -79t-79 -33zM1008 1312q-46 0 -79 33t-33 79t33 79t79 33t79 -33t33 -79t-33 -79t-79 -33zM720 1568q-46 0 -79 33t-33 79t33 79t79 33t79 -33t33 -79t-33 -79t-79 -33zM1296 1568q-46 0 -79 33t-33 79
t33 79t79 33t79 -33t33 -79t-33 -79t-79 -33zM432 1312q-46 0 -79 33t-33 79t33 79t79 33t79 -33t33 -79t-33 -79t-79 -33zM1584 1312q-46 0 -79 33t-33 79t33 79t79 33t79 -33t33 -79t-33 -79t-79 -33zM1008 1120q260 0 477 -67.5t342 -185.5t125 -259t-125 -259
t-342 -185.5t-477 -67.5t-477 67.5t-342 185.5t-125 259t125 259t342 185.5t477 67.5zM1008 253q169 0 320 32t252.5 82.5t160.5 114t59 126.5t-59 126.5t-160.5 114.5t-252.5 83t-320 32t-320 -32t-252.5 -83t-160.5 -114.5t-59 -126.5t59 -126.5t160.5 -114t252.5 -82.5
t320 -32zM1008 832q161 0 297.5 -30t215.5 -81.5t79 -112.5q0 -55 -66 -102q2 6 2 10q0 66 -154.5 113t-373.5 47t-373.5 -47t-154.5 -113q0 -4 2 -10q-66 47 -66 102q0 61 79 112.5t215.5 81.5t297.5 30z" />
<glyph unicode="&#xf199;" horiz-adv-x="2048" d="M1342 1184l10 -68q4 -18 10.5 -76.5t12.5 -159t-7 -165.5q-20 -118 -94 -194.5t-186 -96.5v-264h192v-160h-544v160h192v264q-112 20 -186 96.5t-94 194.5q-13 65 -7 165.5t12.5 159t10.5 76.5l10 68h668zM1210 739q14 84 -7 285h-390q-21 -201 -7 -285q28 -165 202 -165
t202 165zM1008 1824q-46 0 -79 33t-33 79t33 79t79 33t79 -33t33 -79t-33 -79t-79 -33zM1008 1312q-46 0 -79 33t-33 79t33 79t79 33t79 -33t33 -79t-33 -79t-79 -33zM720 1568q-46 0 -79 33t-33 79t33 79t79 33t79 -33t33 -79t-33 -79t-79 -33zM1296 1792q46 0 79 -33
t33 -79t-33 -79t-79 -33t-79 33t-33 79t33 79t79 33zM432 1536q46 0 79 -33t33 -79t-33 -79t-79 -33t-79 33t-33 79t33 79t79 33zM1584 1536q46 0 79 -33t33 -79t-33 -79t-79 -33t-79 33t-33 79t33 79t79 33z" />
<glyph unicode="&#xf19a;" horiz-adv-x="2048" d="M928 992h160v-128h576v-160h-1312v160h576v128zM1920 576v-160h-256v-144q0 -112 -80 -192t-192 -80h-768q-112 0 -192 80t-80 192v144h-256v160h416v-304q0 -46 33 -79t79 -33h768q46 0 79 33t33 79v304h416zM1008 1632q-46 0 -79 33t-33 79t33 79t79 33t79 -33t33 -79
t-33 -79t-79 -33zM1008 1120q-46 0 -79 33t-33 79t33 79t79 33t79 -33t33 -79t-33 -79t-79 -33zM720 1376q-46 0 -79 33t-33 79t33 79t79 33t79 -33t33 -79t-33 -79t-79 -33zM1296 1376q-46 0 -79 33t-33 79t33 79t79 33t79 -33t33 -79t-33 -79t-79 -33zM432 1120
q-46 0 -79 33t-33 79t33 79t79 33t79 -33t33 -79t-33 -79t-79 -33zM1584 1120q-46 0 -79 33t-33 79t33 79t79 33t79 -33t33 -79t-33 -79t-79 -33z" />
<glyph unicode="&#xf19b;" horiz-adv-x="2048" d="M1616 1824q139 0 237.5 -97t98.5 -235v-321q0 -139 -99 -239t-237 -100h-16v160h16q72 0 124 53t52 126v321q0 72 -51.5 122t-124.5 50h-144v-1440h-1184v1074l-195 526h1523zM448 384h864v821q-55 12 -105 7.5t-105 -16t-105 -28t-105.5 -28.5t-105.5 -17.5t-105 5.5
t-105 40v160q50 -29 105 -40t105 -5.5t105.5 17.5t105.5 28.5t105 28t105 16t105 -7.5v299h-989l125 -338v-942z" />
<glyph unicode="&#xf19c;" horiz-adv-x="2048" d="M1632 1568q-45 32 -58 68t-0.5 69.5t35.5 68l46 69t35.5 68t-0.5 69.5t-58 68h160q45 -32 58 -68t0.5 -69.5t-35.5 -68l-46 -69t-35.5 -68t0.5 -69.5t58 -68h-160zM1050 1756q92 -9 169 -43.5t129.5 -85.5t87 -105t55.5 -114h332q0 -66 -31.5 -171.5t-89.5 -202.5
q-28 -48 -77 -104t-69 -96t-14 -100l42 -414h-161q-19 200 -41 407q-6 51 3 98t34 89.5t39.5 63t45.5 57.5q41 49 74 107t46 106h-258l-14 64q-2 12 -9.5 35.5t-34.5 71t-64.5 86t-106.5 68.5t-154 30q-320 0 -371 -355h-208q-98 0 -156 -62q-65 -71 -56 -215
q12 -187 193 -368l52 517h161l-90 -928h1091l20 -160h-1291l38 376q-38 30 -74 63.5t-83 89t-82 113t-61.5 133.5t-31.5 153q-15 213 98 335q50 54 121 83.5t151 29.5h81q50 152 156.5 240.5t262.5 106.5q-40 35 -40 85q0 46 33 79t79 33t79 -33t33 -79q0 -49 -38 -84z" />
<glyph unicode="&#xf1a0;" horiz-adv-x="2048" d="M1866 725q74 -52 103 -132t3 -161q-25 -80 -94 -128t-158 -48h-1359q-90 0 -158.5 48t-94.5 128q-26 81 3 160.5t102 131.5l685 461l-52 36q-68 49 -105 118t-37 147q0 129 85.5 217.5t209.5 88.5q102 0 183.5 -61.5t110.5 -159.5l-154 -44q-14 47 -52.5 76t-87.5 29
q-58 0 -96.5 -42t-38.5 -104q0 -82 74 -134l245 -168l-879 -592q-33 -23 -43.5 -56.5t0.5 -55.5q4 -13 12 -25.5t31.5 -25.5t56.5 -13h1359q46 0 69 20.5t30 43.5q11 22 0.5 55.5t-44.5 57.5l-620 417l143 97zM1040 1184l1 1z" />
<glyph unicode="&#xf1a1;" horiz-adv-x="2048" d="M848 1952h656v-160h-656q-62 0 -103 -37t-41 -94v-1291q0 -59 43 -102.5t101 -43.5h656v-160h-656q-126 0 -215 90t-89 216v1291q0 122 88 206.5t216 84.5zM1024 352v160h480v-160h-480zM1024 640v160h480v-160h-480zM1024 928v160h480v-160h-480zM1024 1216v160h480
v-160h-480zM1024 1504v160h480v-160h-480z" />
<glyph unicode="&#xf200;" horiz-adv-x="2048" d="M288 192h-160v1632h160v-1632zM416 1824l1600 -218v-652l-1600 -218v798l160 -22v-593l320 43v506l160 -22v-462l320 44v375l160 -22v-331l320 43v374l-1440 195v162z" />
<glyph unicode="&#xf201;" horiz-adv-x="2048" d="M1440 1680v-852q128 -121 128 -332q0 -135 -66.5 -249t-180.5 -180.5t-249 -66.5q-134 0 -248.5 66.5t-181 180.5t-66.5 249q0 211 128 332v852q0 152 108 260t260 108t260 -108t108 -260zM1072 160q139 0 237.5 98.5t98.5 237.5q0 142 -103 242l-25 24v918q0 86 -61 147
t-147 61t-147 -61t-61 -147v-918l-25 -24q-103 -100 -103 -242q0 -139 98.5 -237.5t237.5 -98.5zM1152 688q52 -25 90 -78t38 -114q0 -86 -61 -147t-147 -61t-147 61t-61 147q0 61 38 114t90 78v656h160v-656z" />
<glyph unicode="&#xf203;" horiz-adv-x="2048" d="M896 1680v-852q128 -121 128 -332q0 -135 -66.5 -249t-181 -180.5t-248.5 -66.5q-135 0 -249 66.5t-180.5 180.5t-66.5 249q0 211 128 332v852q0 152 108 260t260 108t260 -108t108 -260zM528 160q139 0 237.5 98.5t98.5 237.5q0 142 -103 242l-25 24v918q0 86 -61 147
t-147 61t-147 -61t-61 -147v-918l-25 -24q-103 -100 -103 -242q0 -139 98.5 -237.5t237.5 -98.5zM608 688q57 -24 92.5 -76t35.5 -116q0 -86 -61 -147t-147 -61t-147 61t-61 147q0 64 35.5 116t92.5 76v368h160v-368zM1552 1688l459 -459l-113 -113l-266 266v-582h-160v582
l-266 -266l-113 113z" />
<glyph unicode="&#xf204;" horiz-adv-x="2048" d="M896 1680v-852q128 -121 128 -332q0 -135 -66.5 -249t-181 -180.5t-248.5 -66.5q-135 0 -249 66.5t-180.5 180.5t-66.5 249q0 211 128 332v852q0 152 108 260t260 108t260 -108t108 -260zM528 160q139 0 237.5 98.5t98.5 237.5q0 142 -103 242l-25 24v918q0 86 -61 147
t-147 61t-147 -61t-61 -147v-918l-25 -24q-103 -100 -103 -242q0 -139 98.5 -237.5t237.5 -98.5zM608 688q57 -24 92.5 -76t35.5 -116q0 -86 -61 -147t-147 -61t-147 61t-61 147q0 64 35.5 116t92.5 76v880h160v-880zM1898 1259l113 -113l-459 -459l-459 459l113 113
l266 -266v575h160v-575z" />
<glyph unicode="&#xf211;" horiz-adv-x="2048" d="M1984 1040v160q-180 -77 -392 -77q-119 0 -267.5 24t-267.5 53t-268 53t-268 24q-213 0 -393 -77v-160q180 77 393 77q119 0 268 -24t268 -53t267.5 -53t267.5 -24q212 0 392 77zM728 1552q-85 -6 -151 -45.5t-100 -102.5q-95 -3 -179 -19q31 124 129.5 210t235.5 110
q51 124 167 200t257 76q185 0 311.5 -106t151.5 -278q212 -83 252 -322q-74 -17 -159 -22q0 75 -54 131t-133 75l-60 14l-2 61q-5 140 -94.5 213.5t-212.5 73.5q-102 0 -182.5 -58.5t-105.5 -151.5l-14 -59h-57zM128 912q177 77 390 77q119 0 268.5 -24t270 -53t270 -53
t268.5 -24q213 0 389 77v-160q-176 -77 -389 -77q-119 0 -268.5 24t-270 53t-270 53t-268.5 24q-213 0 -390 -77v160zM128 624q177 77 390 77q119 0 268.5 -24t270 -53t270 -53t268.5 -24q213 0 389 77v-160q-174 -76 -389 -76q-129 0 -283 26v-318h-512v418
q-160 27 -284 27q-212 0 -388 -77v160zM1152 256v188q-32 7 -96 20.5t-96 19.5v-228h192z" />
<glyph unicode="&#xf212;" horiz-adv-x="2048" d="M1475 672q119 0 203.5 -84.5t84.5 -203.5q0 -120 -84.5 -204.5t-203.5 -84.5v160q53 0 90.5 38t37.5 91t-37.5 90.5t-90.5 37.5h-995v160h995zM1728 992q146 0 249 -103t103 -249h-160q0 80 -56 136t-136 56h-1346q-145 0 -247.5 102.5t-102.5 246.5q0 112 58.5 198.5
t161.5 130.5q5 191 125 322q68 73 163 112.5t205 39.5q164 0 294.5 -97.5t177.5 -253.5q134 -25 227 -112t117 -209h103q65 0 112 47t47 113t-47 113t-112 47v160q132 0 225 -94t93 -226t-93 -226t-225 -94h-768v160h499q-24 71 -91 116.5t-159 52.5l-62 5l-10 61
q-21 121 -113.5 199t-214.5 78q-156 0 -251 -101q-93 -101 -81 -265l5 -67l-65 -16q-77 -19 -119 -70t-42 -124q0 -78 55.5 -133.5t134.5 -55.5h1346z" />
<glyph unicode="&#xf213;" horiz-adv-x="2048" d="M493 1424q-5 -5 -9 -13q-10 -18 -3 -34q8 -19 39 -39t88 -41.5t159 -35t231 -13.5q380 0 569 145q5 -51 -46.5 -132.5t-148.5 -120.5q-73 -29 -158 -40.5t-216 -11.5q-204 0 -358 35l-6 -3q-17 -8 -24 -26q-8 -18 1 -36q17 -36 120 -67t277 -31q176 0 291 33.5t168 77.5
q-20 -91 -58 -141t-95 -80q-54 -28 -122 -39t-184 -11q-141 0 -257 22q-27 -11 -40.5 -35.5t-0.5 -43.5q21 -29 85.5 -50t168.5 -21q117 0 210.5 19.5t137.5 45.5q-19 -102 -105 -163.5t-243 -61.5q-32 0 -61 3q-2 -32 15.5 -52t70.5 -53q22 -13 35 -21.5t35 -26.5t35.5 -34
t28 -41.5t20.5 -51.5t5 -61.5t-11 -74.5l-154 41q13 51 -2 74t-76 60q-31 20 -47 31t-44 37.5t-42 51.5t-23.5 64.5t-4.5 84.5q-114 37 -164 109q-59 86 -23 179q9 21 26 47q-81 44 -114 108q-47 97 7 193q-106 52 -141 136q-33 78 3 158q-210 86 -210 223q0 79 71.5 142
t190 101t260.5 57.5t294 19.5t294 -19.5t260.5 -57.5t190 -101t71.5 -142t-71.5 -142t-190 -101t-260.5 -57.5t-294 -19.5q-246 0 -451 48zM288 1696q1 -12 25.5 -31t79 -41.5t128 -42t185.5 -32.5t238 -13t238 13t185.5 32.5t128 42t79 41.5t25.5 31q-1 12 -25.5 31
t-79 41.5t-128 42t-185.5 32.5t-238 13t-238 -13t-185.5 -32.5t-128 -42t-79 -41.5t-25.5 -31z" />
<glyph unicode="&#xf214;" horiz-adv-x="2048" d="M587 1589q-54 14 -110 14t-115 -16q135 160 308.5 246.5t369.5 86.5q261 0 479.5 -152.5t358 -422.5t175.5 -612q-75 81 -180 123q-49 266 -167 470.5t-291.5 319t-374.5 114.5q-253 0 -453 -171zM1040 1632q208 0 376.5 -150.5t262.5 -408.5q-102 76 -221 99
q-79 142 -187 221t-231 79q-105 0 -204 -61q-23 34 -43 55q-28 33 -72 61q148 105 319 105zM1751 760q132 -27 214.5 -122t82.5 -222q0 -146 -103 -249t-249 -103h-654q-127 0 -216.5 89.5t-89.5 215.5q0 96 48.5 171.5t135.5 113.5q8 163 109 270q74 82 188 114
q-75 146 -177 146q-98 0 -159 -107q15 -37 15 -82q0 -94 -66 -160.5t-158 -66.5h-418q-105 0 -179.5 75.5t-74.5 182.5q0 88 54 156t142 92q33 89 110 143.5t171 54.5q136 0 223 -93q65 -70 76 -172q104 137 264 137q39 0 78 -11t88 -39.5t96 -90t83 -149.5
q127 -11 227 -91.5t139 -202.5zM672 928q27 0 45.5 19.5t18.5 47.5q0 56 -58 72l-65 16l5 67q6 75 -36 120q-39 42 -105 42q-51 0 -90 -34t-48 -87l-11 -62l-62 -5q-44 -3 -75 -28.5t-31 -69.5q0 -41 27.5 -69.5t66.5 -28.5h418zM1696 224q80 0 136 56t56 136
q0 79 -57.5 132t-150.5 61l-62 5l-11 61q-17 96 -90.5 158.5t-170.5 62.5q-126 0 -200 -80q-76 -82 -65 -213l5 -67l-65 -16q-60 -15 -92.5 -54.5t-32.5 -96.5q0 -60 42.5 -102.5t103.5 -42.5h654z" />
<glyph unicode="&#xf220;" horiz-adv-x="2048" d="M1823 1314q100 -27 162.5 -109.5t62.5 -190.5q0 -128 -83.5 -219t-200.5 -91h-129q6 48 6 73q0 38 -7 87h130q51 0 87.5 44t36.5 106q0 63 -38 104.5t-100 46.5l-63 6l-9 62q-12 76 -62 125.5t-114 49.5q-77 0 -126 -52q-31 -34 -45 -86q-36 18 -69 29q-21 53 -50 100
q20 36 48 66q97 103 242 103q110 0 198 -70.5t123 -183.5zM1162 1194q152 -32 247 -147t95 -270q0 -176 -116.5 -300.5t-281.5 -124.5h-763q-142 0 -242.5 107.5t-100.5 258.5q0 117 57 208t157 137q5 218 135 358q138 147 350 147q162 0 290 -104t173 -270zM1106 512
q98 0 168 78t70 187q0 110 -70.5 183.5t-184.5 83.5l-63 5l-10 62q-20 129 -110 213t-207 84q-143 0 -233 -96q-104 -112 -90 -299l4 -66l-63 -17q-75 -20 -116 -76t-41 -136q0 -85 53.5 -145.5t129.5 -60.5h763z" />
<glyph unicode="&#xf224;" horiz-adv-x="2048" d="M1571 1534q199 -33 322 -168.5t123 -323.5q0 -196 -131.5 -339t-323.5 -159l46 170q109 30 179 121t70 207q0 137 -99.5 232t-256.5 107l-63 5l-10 61q-29 164 -153.5 270.5t-287.5 106.5q-208 0 -336 -137t-111 -361l5 -67l-65 -16q-105 -27 -164 -99.5t-59 -173.5
q0 -85 48 -153t124 -98l-42 -155q-129 44 -209.5 155t-80.5 251q0 141 74.5 249t206.5 159q2 253 156 418q84 91 201 139.5t252 48.5q206 0 368.5 -125.5t216.5 -324.5zM647 1013l154 -42l-248 -928l-155 42zM1044 1122l155 -41l-278 -1038l-155 42zM1134 85l249 928
l154 -42l-248 -928z" />
<glyph unicode="&#xf230;" horiz-adv-x="2048" d="M1571 1534q199 -33 322 -168t123 -323q0 -186 -121.5 -326.5t-301.5 -166.5l48 177q95 37 155 123.5t60 192.5q0 137 -99.5 232t-256.5 107l-63 5l-10 61q-29 164 -153.5 270t-287.5 106q-209 0 -336 -136q-128 -138 -111 -361l5 -67l-65 -16q-105 -26 -164 -98.5
t-59 -174.5q0 -100 64.5 -174.5t160.5 -89.5l-42 -155q-148 29 -245.5 146.5t-97.5 272.5q0 141 74.5 249t206.5 159q2 251 156 418q84 90 201 138.5t252 48.5q206 0 368.5 -125.5t216.5 -324.5zM1120 976q0 -60 -42 -102t-102 -42t-102 42t-42 102t42 102t102 42t102 -42
t42 -102zM784 736q59 0 101.5 -42t42.5 -102t-42.5 -102t-101.5 -42t-101.5 42t-42.5 102t42.5 102t101.5 42zM1296 736q59 0 101.5 -42t42.5 -102t-42.5 -102t-101.5 -42t-101.5 42t-42.5 102t42.5 102t101.5 42zM592 352q60 0 102 -42t42 -102t-42 -102t-102 -42t-102 42
t-42 102t42 102t102 42zM1104 352q60 0 102 -42t42 -102t-42 -102t-102 -42t-102 42t-42 102t42 102t102 42z" />
<glyph unicode="&#xf231;" horiz-adv-x="2048" d="M1571 1534q199 -33 322 -168t123 -323q0 -185 -120 -324.5t-298 -167.5l48 178q94 38 152 123.5t58 190.5q0 137 -99.5 232t-256.5 107l-63 5l-10 61q-29 164 -153.5 270t-287.5 106q-209 0 -336 -136q-128 -138 -111 -361l5 -67l-65 -16q-105 -26 -164 -98.5t-59 -174.5
q0 -75 38.5 -138.5t101.5 -97.5l-42 -156q-116 49 -187 155.5t-71 236.5q0 141 74.5 249t206.5 159q2 251 156 418q84 90 201 138.5t252 48.5q206 0 368.5 -125.5t216.5 -324.5zM1461 1152l-73 -128h148v-160h-147l72 -126l-138 -80l-73 127l-74 -127l-138 80l73 126h-151
v160h152l-74 128l138 80l74 -127l73 127zM1016 578l-94 -162h198v-160h-198l94 -163l-138 -80l-94 163l-94 -163l-139 80l94 163h-197v160h197l-94 162l139 80l94 -162l94 162z" />
<glyph unicode="&#xf232;" horiz-adv-x="2048" d="M1571 1534q199 -33 322 -168t123 -323q0 -185 -120 -324.5t-298 -167.5l48 178q94 38 152 123.5t58 190.5q0 137 -99.5 232t-256.5 107l-63 5l-10 61q-29 164 -153.5 270t-287.5 106q-102 0 -188.5 -35t-147.5 -101q-128 -138 -111 -361l5 -67l-65 -16
q-105 -26 -164 -98.5t-59 -174.5q0 -75 38.5 -138.5t101.5 -97.5l-42 -157q-116 50 -187 156.5t-71 236.5q0 141 74.5 249t206.5 159q2 251 156 418q84 90 201 138.5t252 48.5q206 0 368.5 -125.5t216.5 -324.5zM1333 795l113 -113l-152 -153l152 -152l-113 -113l-186 185
h-91v-90l186 -186l-113 -113l-152 152l-153 -152l-113 113l186 186v90h-91l-185 -185l-114 113l153 152l-153 153l114 113l186 -187h90v92l-186 185l113 114l153 -153l152 153l113 -114l-186 -186v-91h90z" />
<glyph unicode="&#xf244;" horiz-adv-x="2048" d="M1539 1598q199 -33 322 -168t123 -323q0 -155 -85.5 -280.5t-223.5 -181.5l19 195q61 48 95.5 117.5t34.5 149.5q0 137 -99.5 232t-256.5 107l-63 5l-10 61q-29 164 -153.5 270t-287.5 106q-102 0 -188.5 -35t-147.5 -101q-128 -138 -111 -361l5 -67l-65 -16
q-105 -27 -164 -99.5t-59 -173.5q0 -81 43.5 -147t114.5 -97l-177 -73q-141 130 -141 317q0 141 74.5 249t206.5 159q2 251 156 418q84 90 201 138.5t252 48.5q206 0 368.5 -125.5t216.5 -324.5zM983 720l245 276l338 -148l-36 -368l-361 -79zM1396 748l-126 55l-91 -102
l69 -118l134 29zM878 1187l-132 -491l186 -220l-206 -331l-379 93l-28 389l273 111l131 490zM651 328l84 134l-102 120l-146 -59l11 -158z" />
<glyph unicode="&#xf270;" horiz-adv-x="2048" d="M1344 286v66h160v-66q0 -118 -84.5 -202t-203.5 -84t-203.5 84t-84.5 202v418h160v-418q0 -52 37.5 -89t90.5 -37t90.5 37t37.5 89zM894 1642q-53 14 -78 57t-9 98q10 36 47.5 87.5t78 86.5t58.5 30q27 -8 49 -110t8 -159q-14 -55 -57.5 -79.5t-96.5 -10.5zM1085 1196
q-53 14 -78 57t-9 98q16 56 86 134t97 70q28 -8 50 -109.5t8 -159.5q-14 -55 -57.5 -79.5t-96.5 -10.5zM1442 1524q-53 14 -78.5 56.5t-9.5 97.5q16 57 86.5 134.5t97.5 70.5q27 -8 49 -110t8 -159q-14 -55 -57 -79.5t-96 -10.5zM1655 1459q96 -113 148.5 -253.5
t52.5 -293.5v-80h-1696v80q0 260 144.5 472t376.5 310q10 -34 23 -57q27 -47 72 -78q-183 -66 -306 -219t-145 -348h1366q-27 231 -191 400q93 6 155 67z" />
<glyph unicode="&#xf280;" horiz-adv-x="2048" d="M1879 876q58 -58 84.5 -143.5t16.5 -184.5q-11 -116 -66 -215.5t-139 -155.5q-73 -48 -152 -48q-55 0 -109 24q-83 35 -151.5 118t-109.5 196q77 40 132 112q27 -99 79.5 -176.5t112.5 -102.5q55 -24 109 10q54 36 90.5 105t44.5 149q13 131 -55 199q-53 53 -129 75.5
t-149.5 17.5t-143.5 -30q-3 -117 -87 -199.5t-201 -82.5h-1q-29 -155 -127 -277.5t-245 -160.5q-43 -10 -80 -10q-125 0 -249 89q-96 68 -156.5 166t-68.5 199q-12 148 105 237q72 54 180 70.5t227 -7.5q-1 -6 -1 -18q0 -81 31 -155q-99 30 -194.5 25.5t-146.5 -43.5
q-47 -35 -41 -96q4 -64 48 -132.5t110 -115.5q105 -76 196 -54q105 27 172 121t84 209q-60 39 -95.5 102.5t-35.5 138.5q0 81 42 149q-117 102 -171.5 247.5t-13.5 292.5q22 78 84.5 144t153.5 108q106 48 220 51t204 -40q64 -31 103 -84t48 -123q11 -91 -31 -196.5
t-125 -200.5q-73 48 -163 63q79 74 123.5 161t36.5 153q-7 56 -61 83q-58 27 -136.5 23.5t-152.5 -36.5q-123 -57 -150 -149q-30 -109 16 -213t134 -175q60 30 127 30q77 0 142 -37.5t104 -100.5q98 34 200 36.5t203 -33t174 -109.5zM1056 698q56 0 95.5 39.5t39.5 94.5
t-39.5 94.5t-95.5 39.5t-95 -39t-39 -95t39 -95t95 -39z" />
<glyph unicode="&#xf4b0;" horiz-adv-x="2048" d="M1408 1408h448v-768h-448v-448h-768v448h-448v768h448v448h768v-448zM1696 800v448h-448v448h-448v-448h-448v-448h448v-448h448v448h448z" />
<glyph unicode="&#xf500;" horiz-adv-x="2048" d="M1639 690l-605 605l-605 -605l-113 113l718 718l718 -718z" />
<glyph unicode="&#xf501;" horiz-adv-x="2048" d="M1034 505l-718 718l113 114l605 -605l605 605l113 -114z" />
<glyph unicode="&#xf510;" horiz-adv-x="2048" d="M977 96q-202 0 -373.5 107t-280.5 302q-53 95 -85 211t-40 216t-5 196.5t11.5 156.5t18.5 94q23 80 86.5 132t139.5 52q78 0 139 -55q23 -20 40.5 -50.5t25.5 -52.5t18 -58q12 -37 17.5 -53t19.5 -40t31 -39q21 -17 50.5 -8.5t59.5 38.5l469 474l34 34q69 71 169 71
t169 -71q69 -70 69 -169t-69 -169l-222 -225q2 -2 8 -6.5t8 -6.5q62 -48 94 -108q32 -58 43 -165q4 -40 8 -59q2 -11 19 -43q14 -28 21.5 -46t16.5 -51.5t6 -71.5t-18 -79q-36 -100 -165 -229q-110 -111 -247.5 -170t-285.5 -59zM449 1403q-21 0 -42.5 -18.5t-29.5 -48.5
q-10 -34 -17.5 -107.5t-8.5 -182t26.5 -235.5t84.5 -228q88 -156 223 -242t292 -86q116 0 224.5 47.5t196.5 136.5q37 35 76 84.5t51 84.5q7 19 9 33.5t-2.5 30.5t-8.5 25.5t-15 30.5q-27 48 -35 88q-5 24 -9 72q-9 78 -25 106q-15 29 -52 57q-22 17 -34 28.5t-30.5 39.5
t-28.5 62l-14 46l298 300q23 23 23 57t-23 57q-22 23 -56 23t-56 -23l-33 -34q-399 -403 -470 -474q-87 -89 -192 -89q-76 0 -134 50q-34 29 -59 69.5t-35 67.5t-23 70q-21 73 -39 89q-14 13 -32 13z" />
<glyph unicode="&#xf511;" horiz-adv-x="2048" d="M96 1071q0 202 107 373.5t302 280.5q95 53 211 85t216 40t196.5 5t156.5 -11.5t94 -18.5q80 -23 132 -86.5t52 -139.5q0 -78 -55 -139q-20 -23 -50.5 -40.5t-52.5 -25.5t-58 -18q-37 -12 -53 -17.5t-40 -19.5t-39 -31q-17 -21 -8.5 -50.5t38.5 -59.5l474 -469l34 -34
q71 -69 71 -169t-71 -169q-70 -69 -169 -69t-169 69l-225 222q-2 -2 -6.5 -8t-6.5 -8q-48 -62 -108 -94q-58 -32 -165 -43q-40 -4 -59 -8q-11 -2 -43 -19q-28 -14 -46 -21.5t-51.5 -16.5t-71.5 -6t-79 18q-100 36 -229 165q-111 110 -170 247.5t-59 285.5zM1403 1599
q0 21 -18.5 42.5t-48.5 29.5q-34 10 -107.5 17.5t-182 8.5t-235.5 -26.5t-228 -84.5q-156 -88 -242 -223t-86 -292q0 -116 47.5 -224.5t136.5 -196.5q35 -37 84.5 -76t84.5 -51q19 -7 33.5 -9t30.5 2.5t25.5 8.5t30.5 15q48 27 88 35q24 5 72 9q78 9 106 25q29 15 57 52
q17 22 28.5 34t39.5 30.5t62 28.5l46 14l300 -298q23 -23 57 -23t57 23q23 22 23 56t-23 56l-34 33q-403 399 -474 470q-89 87 -89 192q0 76 50 134q29 34 69.5 59t67.5 35t70 23q73 21 89 39q13 14 13 32z" />
<glyph unicode="&#xf512;" horiz-adv-x="2048" d="M1723 538q-129 -129 -229 -165q-41 -15 -79 -18t-71.5 6t-51.5 16.5t-46 21.5q-32 17 -43 19q-19 4 -59 8q-107 11 -165 43q-60 32 -108 94q-2 2 -6.5 8t-6.5 8l-225 -222q-70 -69 -169 -69t-169 69q-71 69 -71 169t71 169l34 34q402 398 474 469q30 30 38.5 59.5
t-8.5 50.5q-15 17 -39 31t-40 19.5t-53 17.5q-36 10 -58 18t-52.5 25.5t-50.5 40.5q-55 61 -55 139q0 76 52 139.5t132 86.5q34 10 94 18.5t156.5 11.5t196.5 -5t216 -40t211 -85q195 -109 302 -280.5t107 -373.5q0 -148 -59 -285.5t-170 -247.5zM658 1567q16 -18 89 -39
q43 -13 70 -23t67.5 -35t69.5 -59q50 -58 50 -134q0 -105 -89 -192l-474 -470l-34 -33q-23 -22 -23 -56t23 -56q23 -23 57 -23t57 23l300 298l46 -14q34 -10 62 -28.5t39.5 -30.5t28.5 -34q28 -37 57 -52q28 -16 106 -25q48 -4 72 -9q40 -8 88 -35q21 -11 30.5 -15
t25.5 -8.5t30.5 -2.5t33.5 9q35 12 84.5 51t84.5 76q89 88 136.5 196.5t47.5 224.5q0 157 -86 292t-242 223q-101 57 -228 84.5t-235.5 26.5t-182 -8.5t-107.5 -17.5q-30 -8 -48.5 -29.5t-18.5 -42.5q0 -18 13 -32z" />
<glyph unicode="&#xf513;" horiz-adv-x="2048" d="M538 325q-129 129 -165 229q-15 41 -18 79t6 71.5t16.5 51.5t21.5 46q17 32 19 43q4 19 8 59q11 107 43 165q32 60 94 108q2 2 8 6.5t8 6.5l-222 225q-69 70 -69 169t69 169q69 71 169 71t169 -71l34 -34q398 -402 469 -474q30 -30 59.5 -38.5t50.5 8.5q17 15 31 39
t19.5 40t17.5 53q10 36 18 58t25.5 52.5t40.5 50.5q61 55 139 55q76 0 139.5 -52t86.5 -132q10 -34 18.5 -94t11.5 -156.5t-5 -196.5t-40 -216t-85 -211q-109 -195 -280.5 -302t-373.5 -107q-148 0 -285.5 59t-247.5 170zM1567 1390q-18 -16 -39 -89q-13 -43 -23 -70
t-35 -67.5t-59 -69.5q-58 -50 -134 -50q-105 0 -192 89l-470 474l-33 34q-22 23 -56 23t-56 -23q-23 -23 -23 -57t23 -57l298 -300l-14 -46q-10 -34 -28.5 -62t-30.5 -39.5t-34 -28.5q-37 -28 -52 -57q-16 -28 -25 -106q-4 -48 -9 -72q-8 -40 -35 -88q-11 -21 -15 -30.5
t-8.5 -25.5t-2.5 -30.5t9 -33.5q12 -35 51 -84.5t76 -84.5q88 -89 196.5 -136.5t224.5 -47.5q157 0 292 86t223 242q57 101 84.5 228t26.5 235.5t-8.5 182t-17.5 107.5q-8 30 -29.5 48.5t-42.5 18.5q-18 0 -32 -13z" />
<glyph unicode="&#xf600;" horiz-adv-x="2048" d="M752 544h461l157 -157q-21 -3 -42 -3h-576q-139 0 -237.5 98.5t-98.5 237.5v676l-214 -215l-113 113l407 408l407 -408l-113 -113l-214 214v-675q0 -73 51.5 -124.5t124.5 -51.5zM1878 899l114 -114l-408 -407l-407 407l113 114l214 -214v675q0 73 -51.5 124.5
t-124.5 51.5h-461l-157 157q21 3 42 3h576q139 0 237.5 -98.5t98.5 -237.5v-676z" />
<glyph unicode="&#xf601;" horiz-adv-x="2048" d="M1616 832q166 0 283 -117.5t117 -282.5t-117 -282.5t-283 -117.5q-165 0 -282.5 117.5t-117.5 282.5q0 112 58 206l-266 205l-266 -205q58 -94 58 -206q0 -165 -117 -282.5t-283 -117.5t-283 117.5t-117 282.5t117 282.5t283 117.5q130 0 234 -76l294 227v241
q-138 28 -229 138t-91 254q0 166 117 283t283 117t283 -117t117 -283q0 -144 -91 -254t-229 -138v-241l294 -227q104 76 234 76zM766 1616q0 -100 71 -171t171 -71t171 71t71 171t-71 171t-171 71t-171 -71t-71 -171zM400 190q100 0 171 71t71 171t-71 171t-171 71t-171 -71
t-71 -171t71 -171t171 -71zM1616 190q100 0 171 71t71 171t-71 171t-171 71t-171 -71t-71 -171t71 -171t171 -71z" />
<glyph unicode="&#x1f304;" horiz-adv-x="2048" d="M1888 224h-1664v1280h1664v-1280zM384 384h1344v960h-1344v-960zM763 512h-195l287 384l130 -84l215 329l352 -629h-179l-183 328l-159 -244l-138 90zM800 1072q0 -60 -42 -102t-102 -42q-59 0 -101.5 42t-42.5 102t42.5 102t101.5 42q60 0 102 -42t42 -102z" />
<glyph unicode="&#x1f305;" horiz-adv-x="2048" d="M830 864l-160 -160h-638v160h798zM1410 704l-161 160h799v-160h-638zM637 489l403 404l403 -404l-113 -113l-210 210v-522h-160v522l-210 -210zM345 1040q0 -16 2 -48h-315v160h322q-9 -54 -9 -112zM1726 1152h322v-160h-315q2 32 2 48q0 58 -9 112zM1584 1471
q-50 63 -113 113l225 225l113 -113zM1120 1730q-43 5 -80 5t-80 -5v318h160v-318zM609 1584q-63 -50 -113 -113l-225 225l113 113zM483 992q-3 0 -3 48q0 152 75 281t204 204t281 75t281 -75t204 -204t75 -281q0 -48 -2 -48h-158q3 0 3 48q0 166 -118.5 284.5t-284.5 118.5
t-284.5 -118.5t-118.5 -284.5q0 -48 3 -48h-157z" />
<glyph unicode="&#x1f307;" horiz-adv-x="2048" d="M345 1040q0 -16 2 -48h-315v160h322q-9 -54 -9 -112zM1726 1152h322v-160h-315q2 32 2 48q0 58 -9 112zM1584 1471q-50 63 -113 113l225 225l113 -113zM1120 1730q-43 5 -80 5t-80 -5v318h160v-318zM609 1584q-63 -50 -113 -113l-225 225l113 113zM483 992q-3 0 -3 48
q0 152 75 281t204 204t281 75t281 -75t204 -204t75 -281q0 -48 -2 -48h-158q3 0 3 48q0 166 -118.5 284.5t-284.5 118.5t-284.5 -118.5t-118.5 -284.5q0 -48 3 -48h-157zM832 864v-160h-800v160h800zM1248 704v160h800v-160h-800zM1120 342l210 210l113 -113l-403 -404
l-403 404l113 113l210 -210v522h160v-522z" />
<glyph unicode="&#x1f308;" horiz-adv-x="2048" d="M1024 1568q212 0 401.5 -87.5t326 -236.5t216.5 -356.5t80 -439.5h-160q0 198 -67.5 376t-182.5 306t-275 203t-339 75t-339 -75t-275 -203t-182.5 -306t-67.5 -376h-160q0 232 80 439.5t216.5 356.5t326 236.5t401.5 87.5zM1024 1280q152 0 288.5 -65t234.5 -176
t155.5 -265t57.5 -326h-160q0 139 -45 263.5t-121.5 214t-183.5 142t-226 52.5t-226 -52.5t-183.5 -142t-121.5 -214t-45 -263.5h-160q0 172 57.5 326t155.5 265t234.5 176t288.5 65zM1024 992q121 0 224.5 -73t163.5 -198t60 -273h-160q0 159 -84.5 272t-203.5 113
t-203.5 -113t-84.5 -272h-160q0 148 60 273t163.5 198t224.5 73z" />
<glyph unicode="&#x1f30e;" horiz-adv-x="2048" d="M1594 1562q111 -111 170.5 -254t59.5 -300t-59.5 -300t-170.5 -254t-254 -170.5t-300 -59.5t-300 59.5t-254 170.5t-170.5 254t-59.5 300t59.5 300t170.5 254t254 170.5t300 59.5t300 -59.5t254 -170.5zM1040 1638h-2q-27 -2 -61 -40.5t-67 -117.5q-65 -165 -76 -392h412
q-11 231 -76 392l-7 14q111 -27 201 -102q34 -139 42 -304h259q-28 215 -179 366q-89 89 -204.5 136.5t-241.5 47.5zM1040 378q26 0 61.5 38.5t68.5 119.5q65 161 76 392h-412q11 -227 76 -392q33 -81 68.5 -119.5t61.5 -38.5zM594 1454q-151 -151 -179 -366h259
q11 258 88 448q12 30 22 48q-108 -49 -190 -130zM415 928q28 -215 179 -366q86 -84 190 -129q-9 17 -22 47q-77 190 -88 448h-259zM1486 562q151 151 179 366h-259q-11 -258 -88 -448q-13 -30 -22 -47q104 45 190 129z" />
<glyph unicode="&#x1f312;" horiz-adv-x="2048" d="M800 432q172 72 278 228t106 348t-106 348t-278 228q-112 47 -235 48q108 82 235 123q117 37 240 37q160 0 305 -62t250 -167t167 -250t62 -305t-62 -305t-167 -250t-250 -167t-305 -62q-124 0 -240 38q-126 40 -235 122q123 1 235 48zM1035 384h5q170 0 313.5 83.5
t227 227t83.5 313.5t-83.5 313.5t-227 227t-313.5 83.5h-5q144 -110 226.5 -273.5t82.5 -350.5q0 -188 -82.5 -351.5t-226.5 -272.5zM651 1495q-45 9 -91 9q-70 0 -144 -21q-160 -211 -160 -475t160 -475q74 -21 144 -21q46 0 91 9q-109 87 -172 214.5t-63 272.5t63 272.5
t172 214.5z" />
<glyph unicode="&#x1f313;" horiz-adv-x="2048" d="M799 433q107 116 166 264t59 311t-59 311t-166 265q-66 69 -131 114q83 45 172 68q98 26 200 26q160 0 305 -62t250 -167t167 -250t62 -305t-62 -305t-167 -250t-250 -167t-305 -62q-102 0 -200 26q-89 23 -172 68q67 46 131 115zM971 388q29 -4 69 -4q170 0 314 83.5
t228 227t84 313.5t-84 313.5t-228 227t-314 83.5q-25 0 -69 -4q213 -274 213 -620t-213 -620zM553 1622q-139 -110 -218 -270.5t-79 -343.5t79 -343.5t218 -270.5q71 43 130 103q-123 86 -195 220.5t-72 290.5t72 290.5t195 220.5q-59 59 -130 103z" />
<glyph unicode="&#x1f314;" horiz-adv-x="2048" d="M636 1680q-174 -105 -277 -283.5t-103 -388.5t103 -388.5t277 -283.5q-225 307 -225 672t225 672zM544 1008q0 276 140 512q87 148 220 260q66 12 136 12q79 0 154 -15q104 -21 196 -68q196 -98 315 -286t119 -415t-119 -415.5t-315 -286.5q-94 -46 -196 -67
q-75 -15 -154 -15q-70 0 -136 12q-133 112 -220 260q-140 236 -140 512zM704 1008q0 -180 71.5 -341t198.5 -280q33 -3 66 -3q65 0 130 14q140 30 252.5 117t177 216.5t64.5 276.5q0 223 -140.5 394t-353.5 216q-65 14 -130 14q-37 0 -66 -4q-127 -118 -198.5 -278.5
t-71.5 -341.5z" />
<glyph unicode="&#x1f316;" horiz-adv-x="2048" d="M1444 1680q174 -105 277 -283.5t103 -388.5t-103 -388.5t-277 -283.5q225 307 225 672t-225 672zM1396 1520q140 -236 140 -512t-140 -512q-87 -148 -220 -260q-66 -12 -136 -12q-79 0 -154 15q-102 21 -196 67q-196 98 -315 286.5t-119 415.5t119 415t315 286
q92 47 196 68q75 15 154 15q70 0 136 -12q133 -112 220 -260zM1106 387q127 119 198.5 280t71.5 341q0 181 -71.5 341.5t-198.5 278.5q-29 4 -66 4q-65 0 -130 -14q-213 -45 -353.5 -216t-140.5 -394q0 -147 64.5 -276.5t177 -216.5t252.5 -117q65 -14 130 -14q33 0 66 3z
" />
<glyph unicode="&#x1f317;" horiz-adv-x="2048" d="M1056 1008q0 -163 59 -311t166 -264q62 -66 131 -115q-82 -44 -172 -68q-98 -26 -200 -26q-160 0 -305 62t-250 167t-167 250t-62 305t62 305t167 250t250 167t305 62q102 0 200 -26q90 -24 172 -68q-65 -45 -131 -114q-107 -117 -166 -265t-59 -311zM1040 384q40 0 69 4
q-213 274 -213 620t213 620q-46 4 -69 4q-170 0 -314 -83.5t-228 -227t-84 -313.5t84 -313.5t228 -227t314 -83.5zM1527 1622q139 -110 218 -270.5t79 -343.5t-79 -343.5t-217 -270.5q-71 43 -131 103q123 86 195 220.5t72 290.5t-72 290.5t-195 220.5q59 59 130 103z" />
<glyph unicode="&#x1f318;" horiz-adv-x="2048" d="M896 1008q0 -192 106 -348t278 -228q112 -47 235 -48q-109 -82 -235 -122q-116 -38 -240 -38q-160 0 -305 62t-250 167t-167 250t-62 305t62 305t167 250t250 167t305 62q123 0 240 -37q127 -41 235 -123q-123 -1 -235 -48q-172 -72 -278 -228t-106 -348zM1040 384h5
q-144 109 -226.5 272.5t-82.5 351.5q0 187 82.5 350.5t226.5 273.5h-5q-170 0 -313.5 -83.5t-227 -227t-83.5 -313.5t83.5 -313.5t227 -227t313.5 -83.5zM1429 1495q45 9 91 9q70 0 144 -21q160 -211 160 -475t-160 -475q-74 -21 -144 -21q-46 0 -91 9q109 87 172 214.5
t63 272.5t-63 272.5t-172 214.5z" />
<glyph unicode="&#x1f319;" horiz-adv-x="2048" d="M1545 636q119 8 231 63q-60 -122 -156 -215q-89 -86 -198 -141q-143 -71 -300 -81t-297.5 36.5t-260.5 147.5t-191 243t-80 299t38 297t149 260.5t245 191.5q114 56 231 74q131 21 265 -4q-111 -56 -189 -148q-122 -140 -147 -324t60 -359q85 -171 249.5 -262.5
t350.5 -77.5zM1351 486q1 0 5 2q-177 33 -324 141t-230 275q-83 172 -82 352t81 341q-1 0 -2.5 -0.5t-2.5 -1.5q-113 -57 -194.5 -152.5t-119.5 -207.5t-30.5 -236.5t63.5 -237.5q57 -113 152.5 -193.5t207.5 -117t237.5 -29t238.5 64.5z" />
<glyph unicode="&#x1f347;" horiz-adv-x="2048" d="M943 1523q-3 55 -26.5 105t-56 85.5t-75.5 67t-79.5 50t-74.5 33.5t-53 19.5t-22 6.5l39 156q212 -65 341 -180l200 150l96 -128l-193 -145q60 -103 64 -220q78 -25 127.5 -92t49.5 -151q0 -106 -75 -181t-181 -75t-181 75t-75 181q0 84 49 150.5t126 92.5zM1024 1383
q-43 0 -73 -30t-30 -73t30 -73t73 -30t73 30t30 73t-30 73t-73 30zM704 1280q0 -106 -75 -181t-181 -75t-181 75t-75 181t75 181t181 75t181 -75t75 -181zM448 1177q43 0 73 30t30 73t-30 73t-73 30t-73 -30t-30 -73t30 -73t73 -30zM1024 512q106 0 181 -75t75 -181
t-75 -181t-181 -75t-181 75t-75 181t75 181t181 75zM1024 153q43 0 73 30t30 73t-30 73t-73 30t-73 -30t-30 -73t30 -73t73 -30zM992 768q0 -106 -75 -181t-181 -75t-181 75t-75 181t75 181t181 75t181 -75t75 -181zM736 665q43 0 73 30t30 73t-30 73t-73 30t-73 -30
t-30 -73t30 -73t73 -30zM1312 1024q106 0 181 -75t75 -181t-75 -181t-181 -75t-181 75t-75 181t75 181t181 75zM1312 665q43 0 73 30t30 73t-30 73t-73 30t-73 -30t-30 -73t30 -73t73 -30zM1600 1536q106 0 181 -75t75 -181t-75 -181t-181 -75t-181 75t-75 181t75 181
t181 75zM1600 1177q43 0 73 30t30 73t-30 73t-73 30t-73 -30t-30 -73t30 -73t73 -30z" />
<glyph unicode="&#x1f34a;" horiz-adv-x="2048" d="M1072 1088q-33 0 -56.5 23.5t-23.5 56.5t23.5 56.5t56.5 23.5t56.5 -23.5t23.5 -56.5t-23.5 -56.5t-56.5 -23.5zM1072 768q-33 0 -56.5 23.5t-23.5 56.5t23.5 56.5t56.5 23.5t56.5 -23.5t23.5 -56.5t-23.5 -56.5t-56.5 -23.5zM1408 1008q0 -33 -23.5 -56.5t-56.5 -23.5
t-56.5 23.5t-23.5 56.5t23.5 56.5t56.5 23.5t56.5 -23.5t23.5 -56.5zM1567 1375q109 -109 167 -249t58 -294t-58 -294t-167 -249t-249 -167t-294 -58t-294 58t-249 167t-167 249t-58 294q0 185 82.5 347t226.5 269t321 139q14 -69 13 -154q-211 -44 -350 -212.5t-139 -388.5
q0 -123 46.5 -235t133.5 -199t199 -133.5t235 -46.5t235 46.5t199 133.5t133.5 199t46.5 235t-46.5 235t-133.5 199q-86 86 -197.5 132.5t-233.5 47.5q0 37 -3 73q-2 32 -12 94q-7 35 -20 78q-30 104 -88 197l136 84q46 -73 76 -151q66 96 153 135q43 19 94 25t93 0.5
t77.5 -13.5t55.5 -16l20 -8q-3 -8 -8 -21.5t-24.5 -50.5t-42.5 -69t-61.5 -67t-81.5 -54q-96 -43 -226 -19q7 -34 13 -78q225 -46 389 -210z" />
<glyph unicode="&#x1f34b;" horiz-adv-x="2048" d="M1419 1594q173 -119 247 -300.5t60 -453.5q-6 -111 -37.5 -210t-77.5 -169t-104.5 -126t-116 -89t-113.5 -49q-92 -101 -221 -101t-221 101q-56 16 -113.5 49t-116 89t-104.5 126t-77.5 169t-37.5 210q-14 272 60 453.5t247 300.5q17 11 30.5 24.5t26.5 35t18 31t20 39.5
q16 34 26.5 53.5t34 50.5t49 48t67 30.5t91.5 13.5t91.5 -13.5t67 -30.5t49 -48t34 -50.5t26.5 -53.5q15 -30 20 -39.5t18 -31t26.5 -35t30.5 -24.5zM1571 847q6 112 -5.5 204.5t-32.5 155t-56 115t-68.5 84t-77.5 61.5q-39 26 -70.5 64.5t-45 62.5t-34.5 68
q-31 66 -52.5 85.5t-72.5 19.5t-72.5 -19.5t-52.5 -85.5q-21 -44 -34.5 -68t-45 -62.5t-70.5 -64.5q-44 -30 -77.5 -61.5t-68.5 -84t-56 -115t-32.5 -155t-5.5 -204.5q5 -102 35.5 -188t70.5 -140.5t89.5 -95t88 -58.5t70.5 -25l28 -6l18 -23q50 -63 115 -63t115 63l18 23
l29 6q32 7 70.5 25t87.5 58.5t89 95t70.5 140.5t35.5 188zM1072 1344q33 0 56.5 -23.5t23.5 -56.5t-23.5 -56.5t-56.5 -23.5t-56.5 23.5t-23.5 56.5t23.5 56.5t56.5 23.5zM1072 1024q33 0 56.5 -23.5t23.5 -56.5t-23.5 -56.5t-56.5 -23.5t-56.5 23.5t-23.5 56.5t23.5 56.5
t56.5 23.5zM1328 1184q33 0 56.5 -23.5t23.5 -56.5t-23.5 -56.5t-56.5 -23.5t-56.5 23.5t-23.5 56.5t23.5 56.5t56.5 23.5z" />
<glyph unicode="&#x1f34f;" horiz-adv-x="2048" d="M1514 1497q74 -53 118 -141.5t56 -191.5t4.5 -205.5t-31.5 -202.5q-21 -88 -54.5 -168.5t-79 -152t-107 -118.5t-129.5 -57q-25 -4 -55 -4q-39 0 -75 10t-55 19.5t-47 27.5q-53 33 -91 41q-17 4 -36.5 -3.5t-59.5 -29.5q-37 -21 -59 -31t-62.5 -23t-84.5 -10t-91 21
q-89 33 -161 144.5t-110.5 251.5t-45.5 284q-12 219 55 376t201 223q158 78 337 16q13 -63 7 -176q-148 77 -274 17q-47 -24 -81.5 -68.5t-50.5 -94.5t-26.5 -105t-9 -100t0.5 -80q10 -190 77.5 -351.5t135.5 -186.5q26 -13 56 -10.5t51 10.5t57 28q95 56 162 56q19 0 46 -5
q65 -14 141 -61q35 -22 59 -28t67 0q64 10 132 117.5t105 258.5q47 193 23 354t-109 222q-35 25 -80.5 34.5t-82 6t-74.5 -13.5t-53 -16t-21 -9l-122 -60q18 126 2 249q-23 176 -115 324l136 85q41 -68 75 -149q65 98 152 136q42 19 91.5 24.5t90 0t75.5 -13.5t54 -16l20 -7
q-3 -8 -8 -21t-23.5 -48.5t-41 -66.5t-60 -65t-79.5 -53q-94 -42 -225 -18q12 -53 20 -121q216 51 363 -55z" />
<glyph unicode="&#x1f353;" horiz-adv-x="2048" d="M1844 1328q11 -60 12 -123t-7 -120t-24 -115t-35.5 -108t-44.5 -100t-48.5 -90t-50.5 -79t-47 -66t-41 -52q-131 -158 -272 -252.5t-246 -94.5t-246 94.5t-271 252.5q-21 25 -41.5 52t-47 66t-50.5 79t-49 90t-44.5 100t-35.5 108t-24 115t-7 120t12 123q50 263 279 343
q121 -48 228 -123q-10 1 -31 1q-72 0 -127.5 -16t-89 -39.5t-57 -59t-34 -65t-17.5 -66.5q-30 -162 37.5 -355t217.5 -374q108 -131 222 -211.5t176 -80.5t176 80.5t222 211.5q150 181 217.5 374.5t37.5 354.5q-7 37 -17.5 66.5t-34 65t-57 59t-89 39.5t-127.5 16
q-22 0 -32 -1q103 73 228 123q230 -80 280 -343zM977 1513q-2 3 -20.5 23t-63 58t-102.5 77.5t-148.5 83.5t-190.5 74l47 153q261 -80 461 -235v205h160v-205q200 155 461 235l47 -153q-101 -31 -192 -74.5t-148.5 -83t-102 -77.5t-62.5 -58t-20 -23q-24 -30 -63 -30t-63 30
zM656 1312q33 0 56.5 -33t23.5 -79t-23.5 -79t-56.5 -33t-56.5 33t-23.5 79t23.5 79t56.5 33zM1040 1312q33 0 56.5 -33t23.5 -79t-23.5 -79t-56.5 -33t-56.5 33t-23.5 79t23.5 79t56.5 33zM1040 704q33 0 56.5 -33t23.5 -79t-23.5 -79t-56.5 -33t-56.5 33t-23.5 79t23.5 79
t56.5 33zM784 768q-33 0 -56.5 33t-23.5 79t23.5 79t56.5 33t56.5 -33t23.5 -79t-23.5 -79t-56.5 -33zM1296 992q33 0 56.5 -33t23.5 -79t-23.5 -79t-56.5 -33t-56.5 33t-23.5 79t23.5 79t56.5 33zM1424 1088q-33 0 -56.5 33t-23.5 79t23.5 79t56.5 33t56.5 -33t23.5 -79
t-23.5 -79t-56.5 -33z" />
<glyph unicode="&#x1f355;" horiz-adv-x="2048" d="M1186 1149l-43 -71l-119 72l44 71l-95 59q43 68 117.5 89t138.5 -18q64 -40 79.5 -116t-27.5 -145zM896 864q0 40 28 68t68 28t68 -28t28 -68t-28 -68t-68 -28t-68 28t-28 68zM704 1328q0 33 23.5 56.5t56.5 23.5t56.5 -23.5t23.5 -56.5t-23.5 -56.5t-56.5 -23.5
t-56.5 23.5t-23.5 56.5zM1008 1984q487 0 924 -211l-907 -1746l-780 1503q-1 0 34 14l72.5 29l42.5 17q301 106 614 106q262 0 519 -75l-75 -145q-233 63 -444 63q-270 0 -540 -92l557 -1073l685 1320q-349 133 -702 133q-425 0 -822 -183l-74 142q425 198 896 198z" />
<glyph unicode="&#x1f357;" horiz-adv-x="2048" d="M1753 1624q88 -88 130.5 -196.5t35.5 -223.5q-8 -129 -76.5 -247.5t-187.5 -210.5q-126 -96 -274 -149t-292 -53q-26 0 -74 4l-231 -230q2 -129 -75 -212q-66 -72 -160 -72q-27 0 -52 6q-57 14 -102 55.5t-71 101.5q-126 54 -156 172q-14 58 3 114.5t61 98.5
q79 74 212 74l122 123q22 -85 69 -157l-130 -131l-39 4q-26 3 -64 -3t-60 -27q-27 -25 -19 -57q13 -50 85 -71l44 -12l12 -44q21 -72 71 -85q33 -8 57 19q22 24 28 60.5t3 60.5l-6 40l28 29l196 196q-41 24 -64 47q-78 79 -99.5 222t28 322t169.5 334q98 127 226.5 196.5
t264.5 69.5q219 0 387 -168zM1760 1214q11 166 -120 298q-120 120 -274 120q-99 0 -194.5 -53t-170.5 -150q-96 -125 -138 -268t-31 -248t58 -152q58 -58 199 -58q117 0 241 45t227 125q190 146 203 341z" />
<glyph unicode="&#x1f35e;" horiz-adv-x="2048" d="M1376 1887q158 -7 290 -77t209 -185t77 -249q0 -108 -51 -204.5t-141 -167.5v-748h-1504v748q-90 71 -141 167.5t-51 204.5q0 134 77 249t209 185t290 77v1h736v-1zM1600 1087q89 49 140.5 125t51.5 164q0 95 -60 176.5t-163.5 128.5t-224.5 47h-232q80 -70 124 -161
t44 -191q0 -108 -51 -204.5t-141 -167.5v-460h-160v543q89 49 140.5 125t51.5 164q0 95 -60 176.5t-163.5 128.5t-224.5 47t-224.5 -47t-163.5 -128.5t-60 -176.5q0 -88 51.5 -164t140.5 -125v-671h1184v671zM784 1344q33 0 56.5 -23.5t23.5 -56.5t-23.5 -56.5t-56.5 -23.5
t-56.5 23.5t-23.5 56.5t23.5 56.5t56.5 23.5zM496 1472q33 0 56.5 -23.5t23.5 -56.5t-23.5 -56.5t-56.5 -23.5t-56.5 23.5t-23.5 56.5t23.5 56.5t56.5 23.5z" />
<glyph unicode="&#x1f35f;" horiz-adv-x="2048" d="M831 1312h-159l-48 694l160 5zM1424 2001l-78 -689h-161l79 704zM1711 1760l-100 -576h85l-198 -960h-980l-198 960h91l-91 646l158 26l94 -672h179l23 -40q48 -83 154 -111v919h160v-919q106 28 154 111l23 40h183l105 604zM1368 384l132 640h-146q-59 -74 -149.5 -117
t-196.5 -43t-196.5 43t-149.5 117h-146l132 -640h720z" />
<glyph unicode="&#x1f374;" horiz-adv-x="2048" d="M1601 1865q92 -78 157.5 -226.5t65.5 -341.5q0 -223 -128 -467v-702h-480v1559q0 100 69 166.5t167 66.5q86 0 149 -55zM1548 897q2 2 13 21t29 58t34.5 85.5t28.5 110.5t12 125q0 154 -50 272t-117 175q-19 16 -46 16q-31 0 -53.5 -22t-22.5 -51v-1399h160v589z
M896 1326v498h160v-498q0 -208 -160 -306v-892h-480v892q-160 98 -160 306v498h160v-498q0 -137 103 -180l1 -1l56 -17v-840h160v840l56 17q8 3 15.5 7t25 18.5t30 32.5t23 51t10.5 72zM736 1824v-512h-160v512h160z" />
<glyph unicode="&#x1f375;" horiz-adv-x="2048" d="M672 1568q-45 32 -58 68t-0.5 69.5t35.5 68l46 69t35.5 68t-0.5 69.5t-58 68h160q45 -32 58 -68t0.5 -69.5t-35.5 -68l-46 -69t-35.5 -68t0.5 -69.5t58 -68h-160zM992 1568q-45 32 -58 68t-0.5 69.5t35.5 68l46 69t35.5 68t-0.5 69.5t-58 68h160q45 -32 58 -68t0.5 -69.5
t-35.5 -68l-46 -69t-35.5 -68t0.5 -69.5t58 -68h-160zM1520 1440q143 0 264.5 -71t192.5 -192.5t71 -264.5q0 -188 -118 -332.5t-298 -183.5v162q114 36 187 133.5t73 220.5q0 153 -109 260.5t-263 107.5h-16v-1120h-1184v1280h486l-27 -160h-299v-960h864v960h-272
l-44 -264l174 -29l-85 -505l-505 85l85 505l173 -29l67 397h583zM985 666l32 190l-189 32l-32 -190z" />
<glyph unicode="&#x1f377;" horiz-adv-x="2048" d="M587 1344h149q-16 -181 -3 -291q17 -132 97 -189h-14q-97 0 -158 55t-76 153q-14 92 5 272zM1808 1529l-284 -92l176 -242l-130 -94l-176 242l-175 -242l-129 94l175 242l-284 92l49 152l282 -91v298h160v-300l287 93zM816 732q136 0 225 64.5t122 186.5l135 -98
q-51 -129 -154.5 -208t-247.5 -96v-293h288v-160h-736v160h288v293q-177 22 -291.5 134t-144.5 294q-19 97 -10 254t19 246t16 119l10 68h566l-53 -160h-375q-39 -360 -15 -504q24 -145 116.5 -222.5t241.5 -77.5z" />
<glyph unicode="&#x1f3a7;" horiz-adv-x="2048" d="M576 720q0 -99 70.5 -169.5t169.5 -70.5h944v-160h-944q-166 0 -283 117.5t-117 282.5v313q-125 28 -206.5 128.5t-81.5 230.5q0 152 108 260t260 108q154 0 260 -108q108 -106 108 -260t-108 -260q-76 -76 -180 -99v-313zM282 1392q0 -88 63 -151t151 -63t152 62
q62 64 62 152t-62 152q-64 62 -152 62t-151 -63t-63 -151zM1312 1033q-125 28 -206.5 128.5t-81.5 230.5q0 152 108 260t260 108q154 0 260 -108q108 -106 108 -260t-108 -260q-76 -76 -180 -99v-425h-160v425zM1392 1606q-88 0 -151 -63t-63 -151t63 -151t151 -63t152 62
q62 64 62 152t-62 152q-64 62 -152 62z" />
<glyph unicode="&#x1f3ae;" horiz-adv-x="2048" d="M1856 928h-1472v-688q0 -20 14 -34t34 -14h1216q20 0 34 14t14 34v560h160v-560q0 -86 -61 -147t-147 -61h-1216q-86 0 -147 61t-61 147v848h1472v688q0 20 -14 34t-34 14h-1216q-20 0 -34 -14t-14 -34v-560h-160v560q0 86 61 147t147 61h1216q86 0 147 -61t61 -147v-848
zM768 384h-128v128h-128v128h128v128h128v-128h128v-128h-128v-128zM1168 672q33 0 56.5 -23.5t23.5 -56.5t-23.5 -56.5t-56.5 -23.5t-56.5 23.5t-23.5 56.5t23.5 56.5t56.5 23.5zM1488 512q-33 0 -56.5 23.5t-23.5 56.5t23.5 56.5t56.5 23.5t56.5 -23.5t23.5 -56.5
t-23.5 -56.5t-56.5 -23.5zM1328 352q-33 0 -56.5 23.5t-23.5 56.5t23.5 56.5t56.5 23.5t56.5 -23.5t23.5 -56.5t-23.5 -56.5t-56.5 -23.5zM1328 832q33 0 56.5 -23.5t23.5 -56.5t-23.5 -56.5t-56.5 -23.5t-56.5 23.5t-23.5 56.5t23.5 56.5t56.5 23.5zM512 1696h1056v-480
h-1056v480zM1408 1376v160h-736v-160h736z" />
<glyph unicode="&#x1f440;" horiz-adv-x="2048" d="M1024 1696q116 0 233 -34.5t213.5 -90.5t181.5 -128t143 -146.5t91.5 -146t33.5 -126.5t-33.5 -126.5t-91.5 -146t-143 -146.5t-181.5 -128t-213.5 -90.5t-233 -34.5t-233 34.5t-213.5 90.5t-181.5 128t-143 146.5t-91.5 146t-33.5 126.5t33.5 126.5t91.5 146t143 146.5
t181.5 128t213.5 90.5t233 34.5zM1024 512q99 0 198 30.5t177.5 79t147.5 107.5t115 116t72 104.5t26 74.5t-26 74.5t-72 104.5t-115 116t-147.5 107.5t-177.5 79t-198 30.5t-198 -30.5t-177.5 -79t-147.5 -107.5t-115 -116t-72 -104.5t-26 -74.5t26 -74.5t72 -104.5
t115 -116t147.5 -107.5t177.5 -79t198 -30.5zM1224 1124l143 72q41 -82 41 -172q0 -159 -112.5 -271.5t-271.5 -112.5t-271.5 112.5t-112.5 271.5t112.5 271.5t271.5 112.5v-160q-92 0 -158 -66t-66 -158t66 -158t158 -66t158 66t66 158q0 52 -24 100z" />
<glyph unicode="&#x1f446;" horiz-adv-x="2048" d="M1824 889l-1 -12q0 -182 -75.5 -339t-214.5 -262q-141 -108 -317 -137.5t-365 22.5q-105 29 -209.5 88t-180.5 123.5t-142 134.5t-102.5 118t-53.5 79q-33 58 -33 127q0 92 56.5 155.5t144.5 68.5q31 1 65.5 -8t54 -18t54.5 -27q32 -17 49 -25t43 -15t49 -5q30 3 44 32.5
t14 67.5v719q0 99 70.5 169.5t169.5 70.5t169.5 -70.5t70.5 -169.5v-317l3 1q3 0 8.5 0.5t8.5 0.5q76 11 143 -8q65 -20 147 -87q30 -24 47 -36q7 -5 44 -17q29 -9 48.5 -16.5t49 -25t54 -46t43.5 -68.5q44 -96 44 -268zM290 831q0 -27 12 -49q13 -23 43.5 -63t87.5 -101
t123 -117t156.5 -108t181.5 -77q152 -42 292 -19.5t251 106.5q108 83 167.5 206.5t59.5 269.5v10q0 136 -29 200q-11 23 -26.5 37t-29 19.5t-41.5 14.5q-62 21 -87 38q-26 17 -58 44q-58 48 -91 57q-32 9 -78 4q-91 -12 -158 25l-42 23v425q0 33 -23.5 56.5t-56.5 23.5
t-56.5 -23.5t-23.5 -56.5v-719q0 -107 -57 -179t-148 -80q-44 -4 -91 7t-72 22t-66 33q-66 36 -90 35q-22 -1 -34 -16.5t-14 -26.5t-2 -21z" />
<glyph unicode="&#x1f447;" horiz-adv-x="2048" d="M224 1159l1 12q0 182 75.5 339t214.5 262q141 108 317 137.5t365 -22.5q105 -29 209.5 -88t180.5 -123.5t142 -134.5t102.5 -118t53.5 -79q33 -59 33 -127q0 -92 -56.5 -155.5t-144.5 -68.5q-31 -1 -65.5 8t-54 18t-54.5 27q-32 17 -49 25t-43 15t-49 5q-30 -3 -44 -32.5
t-14 -67.5v-719q0 -99 -70.5 -169.5t-169.5 -70.5t-169.5 70.5t-70.5 169.5v317l-3 -1q-3 0 -8.5 -0.5t-8.5 -0.5q-76 -11 -143 8q-65 20 -147 87q-30 24 -47 36q-7 5 -44 17q-29 9 -48.5 16.5t-49 25t-54 46t-43.5 68.5q-44 96 -44 268zM1758 1217q0 27 -12 49
q-13 23 -43.5 63t-87.5 101t-123 117t-156.5 108t-181.5 77q-152 42 -292 19.5t-251 -106.5q-108 -83 -167.5 -206.5t-59.5 -269.5v-10q0 -136 29 -200q11 -23 26.5 -37t29 -19.5t41.5 -14.5q62 -21 87 -38q26 -17 58 -44q58 -48 91 -57q32 -9 78 -4q91 12 158 -25l42 -23
v-425q0 -33 23.5 -56.5t56.5 -23.5t56.5 23.5t23.5 56.5v719q0 107 57 179t148 80q44 4 91 -7t72 -22t66 -33q66 -36 90 -35q22 1 34 16.5t14 26.5t2 21z" />
<glyph unicode="&#x1f448;" horiz-adv-x="2048" d="M891 268q-40 19 -68.5 43.5t-46 54t-25 49t-16.5 48.5q-12 37 -17 44q-12 17 -36 47q-67 82 -87 147q-19 67 -8 143q0 3 0.5 8.5t0.5 8.5l1 3h-317q-99 0 -169.5 70.5t-70.5 169.5t70.5 169.5t169.5 70.5h719q38 0 67.5 14t32.5 44q2 23 -5 49t-15 43t-25 49
q-18 35 -27 54.5t-18 54t-8 65.5q5 88 68.5 144.5t155.5 56.5q69 0 127 -33q31 -17 79 -53.5t118 -102.5t134.5 -142t123.5 -180.5t88 -209.5q52 -189 22.5 -365t-137.5 -317q-105 -139 -262 -214.5t-339 -75.5l-12 -1q-172 0 -268 44zM1153 1708q-1 -24 35 -90
q22 -41 33 -66t22 -72t7 -91q-8 -91 -80 -148t-179 -57h-719q-33 0 -56.5 -23.5t-23.5 -56.5t23.5 -56.5t56.5 -23.5h425l23 -42q37 -67 25 -158q-5 -46 4 -78q9 -33 57 -91q27 -32 44 -58q17 -25 38 -87q9 -28 14.5 -41.5t19.5 -29t37 -26.5q64 -29 200 -29h10
q146 0 269.5 59.5t206.5 167.5q84 111 106.5 251t-19.5 292q-25 91 -77 181.5t-108 156.5t-117 123t-101 87.5t-63 43.5q-23 12 -49 12q-10 0 -21 -2t-26.5 -14t-16.5 -34z" />
<glyph unicode="&#x1f449;" horiz-adv-x="2048" d="M889 224l-12 1q-182 0 -339 75.5t-262 214.5q-108 141 -137.5 317t22.5 365q29 105 88 209.5t123.5 180.5t134.5 142t118 102.5t79 53.5q58 33 127 33q92 0 155.5 -56.5t68.5 -144.5q1 -31 -8 -65.5t-18 -54t-27 -54.5q-17 -32 -25 -49t-15 -43t-5 -49q3 -30 32.5 -44
t67.5 -14h719q99 0 169.5 -70.5t70.5 -169.5t-70.5 -169.5t-169.5 -70.5h-317l1 -3q0 -3 0.5 -8.5t0.5 -8.5q11 -76 -8 -143q-20 -65 -87 -147q-24 -30 -36 -47q-5 -7 -17 -44q-9 -29 -16.5 -48.5t-25 -49t-46 -54t-68.5 -43.5q-96 -44 -268 -44zM831 1758q-27 0 -49 -12
q-23 -13 -63 -43.5t-101 -87.5t-117 -123t-108 -156.5t-77 -181.5q-42 -152 -19.5 -292t106.5 -251q83 -108 206.5 -167.5t269.5 -59.5h10q136 0 200 29q23 11 37 26.5t19.5 29t14.5 41.5q21 62 38 87q17 26 44 58q48 58 57 91q9 32 4 78q-12 91 25 158l23 42h425
q33 0 56.5 23.5t23.5 56.5t-23.5 56.5t-56.5 23.5h-719q-107 0 -179 57t-80 148q-4 44 7 91t22 72t33 66q36 66 35 90q-1 22 -16.5 34t-26.5 14t-21 2z" />
<glyph unicode="&#x1f44d;" horiz-adv-x="2048" d="M1743 909q-14 -25 -17 -36q-5 -16 -1 -55q7 -86 -14 -158q-8 -29 -23.5 -56t-26.5 -40.5t-31 -36.5q-25 -27 -38 -47q-6 -8 -17 -38q-10 -27 -17.5 -42.5t-25 -41.5t-45.5 -48t-68 -41q-95 -45 -232 -45h-10q-221 0 -423 117q-79 47 -435 44h-31v158h30q65 2 140 0.5
t142 -5.5t130.5 -19t104.5 -39q163 -95 344 -95q103 -3 171 29q36 17 49 33t26 50q14 43 34 73q17 25 52 64q5 6 16.5 19t16.5 18.5t10.5 15t8.5 18.5q12 39 8 98q-6 63 5 108q12 49 27 75q29 54 29 90q0 15 -2 24.5t-10.5 24t-31.5 22t-60 7.5h-176q-107 0 -179.5 57
t-80.5 147q-9 103 57 230q36 65 35 89q-1 28 -26 42q-39 21 -81 -4q-19 -11 -81.5 -78.5t-138.5 -161.5l-10 -12q-35 -44 -54 -67t-54.5 -63.5t-60.5 -63t-62 -54t-71 -50t-75 -37.5t-87 -29t-95 -13v160q41 4 79.5 16t68.5 26t64.5 41t57.5 47t57 58.5t52.5 61l55.5 67.5
l9 13q195 239 267 279q57 32 119 33t117 -29q49 -26 77 -71t31 -101q2 -31 -7 -65t-18.5 -55t-27.5 -54q-43 -82 -38 -141q2 -30 32.5 -46t67.5 -16h176q123 0 193.5 -62t70.5 -172q0 -76 -49 -167z" />
<glyph unicode="&#x1f44e;" horiz-adv-x="2048" d="M1743 1139q49 -91 49 -167q0 -110 -70.5 -172t-193.5 -62h-176q-37 0 -67.5 -16t-32.5 -46q-5 -59 38 -141q18 -33 27.5 -54t18.5 -55t7 -65q-3 -55 -31.5 -100.5t-76.5 -71.5q-55 -30 -117 -29t-119 33q-72 40 -267 279l-9 13l-55.5 67.5t-52.5 61t-57 58.5t-57.5 47
t-64.5 41t-68.5 26t-79.5 16v160q49 -3 95 -13t87 -29t75 -37.5t71 -50t62 -54t60.5 -63t54.5 -63.5t54 -67l10 -12q76 -94 138.5 -161.5t81.5 -78.5q42 -25 81 -4q25 14 26 42q1 21 -35 89q-66 127 -57 230q8 90 80.5 147t179.5 57h176q37 0 60 7.5t31.5 22t10.5 24t2 24.5
q0 36 -29 90q-15 26 -27 75q-11 45 -5 108q4 59 -8 98q-3 9 -8.5 18.5t-10.5 15t-16.5 18.5t-16.5 19q-35 39 -52 64q-20 30 -34 73q-9 24 -14.5 34.5t-20 23.5t-40.5 25q-68 32 -171 29q-181 0 -344 -95q-41 -24 -104.5 -39t-130.5 -19t-142 -5.5t-140 0.5h-30v158h31
q356 -3 435 44q202 117 423 117h10q137 0 232 -45q40 -19 68 -41t45.5 -48t25 -41.5t17.5 -42.5q11 -30 17 -38q13 -20 38 -47q20 -23 31 -36.5t26.5 -40.5t23.5 -56q21 -72 14 -158q-4 -39 1 -55q3 -11 17 -36z" />
<glyph unicode="&#x1f464;" horiz-adv-x="2048" d="M1024 928q-191 0 -319.5 154.5t-128.5 384.5q0 120 61 225t164.5 166.5t222.5 61.5t222.5 -61.5t164.5 -166.5t61 -225q0 -230 -128.5 -384.5t-319.5 -154.5zM1024 1765q-116 0 -204 -89.5t-88 -208.5q0 -164 83.5 -274t208.5 -110t208.5 110t83.5 274q0 119 -88 208.5
t-204 89.5zM353 128h-160l14 164q26 246 236.5 377t580.5 131t580.5 -130.5t236.5 -376.5l14 -165h-160l-14 150q-9 86 -53.5 152.5t-108.5 105.5t-150.5 64t-169 34t-175.5 9t-175.5 -9t-169 -34t-150.5 -64.5t-108.5 -105.5t-53.5 -153z" />
<glyph unicode="&#x1f465;" horiz-adv-x="2048" d="M1945 465l7 -81h-154l-6 70q-21 221 -382 221q-43 0 -79 -3q-23 82 -69 149q72 11 148 11q239 0 378.5 -96t156.5 -271zM657 960q134 0 239 -27t166.5 -67t102.5 -95t56.5 -102t20.5 -97l6 -188h-155l-4 177q-12 119 -123 180.5t-309 61.5q-199 0 -310 -61.5t-123 -182.5
l-5 -175h-152l4 187q5 50 20.5 97t56.5 102.5t102.5 95.5t166.5 67t240 27zM1408 928q-137 0 -228.5 104t-91.5 258q0 137 89.5 223.5t230.5 86.5t230.5 -86.5t89.5 -223.5q0 -154 -91.5 -258t-228.5 -104zM1408 1447q-16 0 -33 -2t-42.5 -11.5t-44.5 -25t-33 -46t-14 -71.5
q0 -91 47.5 -150.5t119.5 -59.5t119.5 59.5t47.5 150.5q0 41 -14 71.5t-33 46t-44.5 25t-42.5 11.5t-33 2zM656 1056q-144 0 -240 108.5t-96 271.5q0 145 92.5 234.5t243.5 89.5t243.5 -89.5t92.5 -234.5q0 -163 -96.5 -271.5t-239.5 -108.5zM656 1608q-31 0 -58.5 -6.5
t-58 -23t-48.5 -52.5t-18 -89q0 -100 51.5 -164.5t131.5 -64.5t131.5 64.5t51.5 164.5q0 53 -18 89t-48.5 52.5t-58 23t-58.5 6.5z" />
<glyph unicode="&#x1f468;" horiz-adv-x="2048" d="M736 880q0 46 33 79t79 33t79 -33t33 -79t-33 -79t-79 -33t-79 33t-33 79zM1152 880q0 46 33 79t79 33t79 -33t33 -79t-33 -79t-79 -33t-79 33t-33 79zM1790 1146q69 -87 66 -202q-5 -140 -103 -230q-34 -30 -65 -46q-73 -249 -249.5 -410.5t-382.5 -161.5t-382.5 161.5
t-249.5 410.5q-33 17 -65 46q-98 90 -103 230q-3 118 69 206q-86 35 -192 106l97 128q4 -4 28 -19.5t73.5 -41.5t109 -44.5t133 -28t145.5 7.5q73 16 149 51t128.5 68t103 72.5t66.5 54.5t25 24l55 55l283 -264q-8 -84 -32 -169q0 -2 -1.5 -7.5t-2.5 -8.5l-246 229
q-238 -203 -494 -261q-63 -14 -133 -14q-16 0 -48 2q-43 3 -44 3q-50 -6 -82.5 -47t-30.5 -97q2 -70 51 -118q39 -34 89 -34h7q41 -225 184.5 -382t309.5 -157q110 0 214 71.5t178.5 195.5t101.5 272h8q49 0 88 34q49 48 51 118q1 47 -22.5 84.5t-62.5 51.5q33 106 47 227
q28 234 -85 342q-35 33 -77.5 51t-77.5 21t-68 0t-49 -7.5t-21 -6.5l-36 -14l-34 19l-3 2q-159 90 -315 100q-86 5 -158 -20q-65 -22 -120.5 -66.5t-88.5 -88t-59 -95.5t-35.5 -78.5t-14.5 -46.5q-75 34 -142 83q14 40 31.5 79.5t52.5 96.5t77 104t107 92t140 71
q244 84 575 -78q35 10 78.5 13.5t103 -1.5t125 -34t119.5 -81q60 -57 94 -137t41.5 -150t1.5 -148.5t-14 -116.5t-17 -71z" />
<glyph unicode="&#x1f469;" horiz-adv-x="2048" d="M992 880q0 -46 -33 -79t-79 -33t-79 33t-33 79t33 79t79 33t79 -33t33 -79zM1408 880q0 -46 -33 -79t-79 -33t-79 33t-33 79t33 79t79 33t79 -33t33 -79zM1861 1761q109 -124 163.5 -299t53 -370.5t-42.5 -399t-119 -404.5h-167q94 219 137.5 433t36 388.5t-53 315
t-125.5 230.5q-44 50 -98 76t-94.5 29t-84.5 -5.5t-58.5 -14.5t-26.5 -12l-39 -21l-38 22q-8 5 -19 10t-44.5 19t-67.5 25t-85 22.5t-101 16.5t-111.5 3t-119.5 -14q-140 -28 -252.5 -112t-186.5 -213q-114 -199 -126.5 -474.5t77.5 -563.5h308q-57 100 -87 207
q55 80 123 158q23 -154 94.5 -283.5t172.5 -204.5t208 -75q108 0 210 77t173.5 209.5t93.5 288.5q9 64 7 133q-190 171 -333 422q-231 -61 -423.5 -202.5t-393.5 -395.5l-118 109q75 95 143.5 170t160.5 156t186.5 141.5t215.5 111.5t253 80l61 13l27 -55l1 -3
q106 -199 254 -356q58 -62 117 -109q2 -20 4 -62q0 -8 0.5 -23t0.5 -22q-2 -78 -9 -128q-27 -196 -119.5 -359t-228 -256.5t-283.5 -93.5q-106 0 -207.5 50.5t-187.5 141.5h-536l-18 54q-116 337 -104.5 661t147.5 562q92 160 230 262t313 138q80 16 164 17.5t149.5 -7.5
t130.5 -26t103.5 -31.5t72.5 -30.5q51 20 109.5 27.5t128.5 1t143.5 -46t134.5 -108.5z" />
<glyph unicode="&#x1f4a1;" horiz-adv-x="2048" d="M1120 608h-160v479l-180 180l113 113l147 -147l147 147l113 -113l-180 -180v-479zM1500 1713q71 -79 105.5 -186t24.5 -219q-12 -122 -48 -200.5t-102 -162.5l-10 -13q-22 -28 -32.5 -43.5t-20 -44.5t-9.5 -64v-172h-160v172q0 60 18 113.5t34 77.5t45 61l9 11
q54 69 81 127.5t35 152.5q4 12 1.5 46t-7.5 70.5t-26.5 82.5t-55.5 83q-112 123 -342 123t-341 -123q-34 -37 -55.5 -83.5t-27 -82.5t-8 -70t1.5 -46q9 -95 36 -153.5t80 -126.5l10 -14q28 -35 44.5 -60t34 -77.5t17.5 -111.5v-172h-160v172q0 34 -9 62t-19.5 44t-31.5 43
l-12 16q-66 84 -102 162.5t-48 200.5q-10 112 24.5 219t105.5 186q160 175 460 175t460 -175zM672 320v160h736v-160h-736zM832 32v160h416v-160h-416z" />
<glyph unicode="&#x1f4a7;" horiz-adv-x="2048" d="M1680 1255q112 -180 112 -391q0 -150 -58.5 -286t-157 -234.5t-234.5 -157t-286 -58.5t-286 58.5t-234.5 157t-157 234.5t-58.5 286q0 211 112 391q53 85 201.5 251t232 252.5t133.5 136.5l57 57l57 -57q50 -50 133.5 -136.5t232 -252.5t201.5 -251zM1056 288
q117 0 223.5 45.5t184 123t123 184t45.5 223.5q0 166 -88 306q-91 145 -488 555q-397 -410 -488 -555q-88 -140 -88 -306q0 -117 45.5 -223.5t123 -184t184 -123t223.5 -45.5zM676 1103q61 97 322 377l116 -110q-245 -261 -302 -352q-44 -70 -44 -154q0 -122 88 -207
l-112 -114q-136 131 -136 321q0 129 68 239z" />
<glyph unicode="&#x1f4ac;" horiz-adv-x="2048" d="M1488 1760q152 0 260 -108t108 -260v-416q0 -152 -108 -260t-260 -108h-327l-385 -362q-25 -22 -56 -22q-16 0 -31 6q-22 10 -35.5 30t-13.5 44v304h-80q-152 0 -260 108t-108 260v416q0 152 108 260t260 108h928zM1696 976v416q0 86 -61 147t-147 61h-928
q-86 0 -147 -61t-61 -147v-416q0 -86 61 -147t147 -61h240v-286l297 286h391q86 0 147 61t61 147z" />
<glyph unicode="&#x1f4b3;" horiz-adv-x="2048" d="M1648 1664q112 0 192 -80t80 -192v-704q0 -112 -80 -192t-192 -80h-1248q-112 0 -192 80t-80 192v704q0 112 80 192t192 80h1248zM400 1504q-46 0 -79 -33t-33 -79v-112h1472v112q0 46 -33 79t-79 33h-1248zM1648 576q46 0 79 33t33 79v432h-1472v-432q0 -46 33 -79
t79 -33h1248zM480 768v160h288v-160h-288z" />
<glyph unicode="&#x1f4bb;" horiz-adv-x="2048" d="M900 1067l-94 -179l-230 616l616 -230l-179 -94l209 -209l-113 -113zM1888 1792v-1280h-585l54 -160h211v-160h-1088v160h211l54 160h-585v1280h1728zM889 352h270l-55 160h-160zM1728 672v960h-1408v-960h1408z" />
<glyph unicode="&#x1f4bc;" horiz-adv-x="2048" d="M1440 1376h448v-1184h-1728v1184h448v208q0 59 42.5 101.5t101.5 42.5h544q59 0 101.5 -42.5t42.5 -101.5v-208zM1728 352v864h-832v160h384v192h-512v-352h-448v-864h1408z" />
<glyph unicode="&#x1f4be;" horiz-adv-x="2048" d="M1594 1792l262 -261v-1371h-1664v1632h160v-1472h1344v1144l-160 159v-631h-1024v800h1024h58zM1376 1152v480h-704v-480h416v352h160v-352h128z" />
<glyph unicode="&#x1f4c1;" horiz-adv-x="2048" d="M1919 289h-1726v1470h709l73 -160h944v-1310zM352 449h1407v991h-887l-73 159h-447v-1150z" />
<glyph unicode="&#x1f4c2;" horiz-adv-x="2048" d="M376 256q-24 0 -43 4q-72 15 -122.5 82t-50.5 185v1105h642l64 -160h766v-160h-874l-65 160h-373v-945q0 -47 8 -73.5t31 -34.5q20 -8 41.5 1t33.5 36l322 728h1204q-308 -738 -330 -786q-28 -63 -73.5 -102.5t-127.5 -39.5h-1053zM591 416h838q20 0 30 7t25 40
q8 18 236 561h-860q-244 -551 -269 -608z" />
<glyph unicode="&#x1f4c4;" horiz-adv-x="2048" d="M288 1888h1440v-1201l-524 -527h-916v1728zM1568 753v975h-1120v-1408h689zM960 448v480h480v-160h-320v-320h-160zM1344 1536v-160h-672v160h672zM1344 1248v-160h-672v160h672z" />
<glyph unicode="&#x1f4ca;" horiz-adv-x="2048" d="M64 96v1248h512v-1248h-512zM224 1184v-928h192v928h-192zM1472 1120h512v-1024h-512v1024zM1824 256v704h-192v-704h192zM768 96v1696h512v-1696h-512zM928 1632v-1376h192v1376h-192z" />
<glyph unicode="&#x1f4ce;" horiz-adv-x="2048" d="M751 128q-171 0 -298 127q-137 136 -128 318t160 333q248 248 387 386q91 91 216 86q114 -6 197 -89q84 -83 89 -196q5 -125 -87 -215l-365 -364l-114 114l365 363q42 42 40 94q-3 52 -42 91t-91 41q-52 3 -94 -39l-387 -386q-104 -104 -113 -219t81 -204q82 -83 191 -80
q120 3 231 114l552 549q142 143 148 307q6 167 -130 303q-141 139 -301 133q-163 -5 -311 -151l-529 -528l-114 114l529 527q191 191 420 199q231 8 420 -180q188 -188 177 -423q-9 -230 -196 -414l-551 -549q-154 -156 -340 -162h-12z" />
<glyph unicode="&#x1f4d3;" horiz-adv-x="2048" d="M832 1472h672v-576h-672v576zM1344 1056v256h-352v-256h352zM384 768v128h-192v160h480v-160h-128v-128h-160zM384 1184v128h-192v160h480v-160h-128v-128h-160zM384 1888h1536v-1696h-1536v288h-192v160h480v-160h-128v-128h1216v1376h-1216v-128h-160v288z" />
<glyph unicode="&#x1f4d5;" horiz-adv-x="2048" d="M1376 81q-864 301 -912 323q-64 29 -104 74.5t-40 126.5v1055q0 28 4 49q16 82 80.5 130.5t157.5 48.5h1166v-1472h-160v1312h-1006q-63 0 -78 -37q-10 -25 1.5 -50t36.5 -35q50 -20 249.5 -96t375.5 -142.5t178 -67.5l51 -19v-1200zM480 1451v-846q0 -14 2 -20.5
t12.5 -15.5t34.5 -20q109 -44 687 -243v864q-375 138 -736 281z" />
<glyph unicode="&#x1f4dd;" horiz-adv-x="2048" d="M1923 1847q61 -61 61 -146.5t-61 -146.5l-259 -259v-1071h-1408v1664h1065l-20 -19l-130 -141h-755v-1344h1088v751l-298 -298l-534 -165l166 534l717 717q59 61 146 61t146 -61zM1122 977l487 487l-144 144l-487 -487l-49 -157l36 -35zM1811 1667q13 13 13 33t-13 34
l-76 77q-13 13 -34 13t-34 -13l-89 -90l144 -144z" />
<glyph unicode="&#x1f4de;" horiz-adv-x="2048" d="M497 128q-75 0 -144.5 36t-123 96t-93 131.5t-61.5 148.5q-21 73 -1 117t89 74q70 31 228 104q79 35 140 63q50 22 81 22q54 0 107 -53l89 -89q124 74 224 174q102 102 174 223l-89 90q-47 46 -52.5 92.5t20.5 94.5q20 44 64 140q73 158 104 228q8 18 15 30.5t21.5 31
t37 28.5t51.5 10q24 0 66 -12q77 -22 149 -62t132 -93.5t96 -124t35 -145.5q-2 -168 -128 -418t-343 -467t-466.5 -342.5t-418.5 -127.5h-3zM228 586v-2q34 -117 111 -206.5t158 -89.5h1q80 1 200.5 44t279.5 143t295 236q135 135 235.5 294.5t144 280t44.5 199.5
q1 81 -89.5 158.5t-208.5 111.5h-1q-16 -36 -104 -230q-29 -61 -63 -138q-1 -3 -3 -7q0 -1 2 -3l171 -171l-24 -51q-83 -166 -232 -316q-148 -148 -316 -232l-51 -25l-172 172l-2 2q-2 -1 -8 -3q-131 -60 -138 -63q-104 -49 -230 -104z" />
<glyph unicode="&#x1f4e0;" horiz-adv-x="2048" d="M1808 1728q86 0 147 -61t61 -147v-640q0 -86 -61 -147t-147 -61h-80v160h80q20 0 34 14t14 34v640q0 20 -14 34t-34 14h-1568q-20 0 -34 -14t-14 -34v-640q0 -20 14 -34t34 -14h80v-160h-80q-86 0 -147 61t-61 147v640q0 86 61 147t147 61h1568zM448 0v1152h1152v-1152
h-1152zM608 992v-832h832v832h-832zM1728 1440v-160h-160v160h160zM1185 867q50 -15 88.5 -49.5t38.5 -74.5q-1 -53 -43 -137t-117 -159q-74 -74 -158 -116t-138 -43q-40 -1 -74 37.5t-49 88.5q-5 16 -2.5 22t17.5 13q23 10 132 59q12 6 18.5 5.5t16.5 -10.5l47 -47
q52 25 104 77q23 23 42.5 49.5t27.5 41.5l8 14l-47 47q-10 10 -10.5 16t4.5 19q4 8 27 58t33 73q7 15 12.5 17.5t21.5 -1.5z" />
<glyph unicode="&#x1f4e4;" horiz-adv-x="2048" d="M1686 1440l202 -590v-658h-1760v658l202 590h169l-197 -576h545l9 -70q2 -13 8 -28t21 -39t47 -39.5t76 -15.5t76.5 16t47.5 41t20.5 39t7.5 25v1l9 70h545l-197 576h169zM288 352h1440v352h-428q-32 -80 -104 -136t-188 -56t-188 56t-104 136h-428v-352zM928 1543
l-210 -210l-113 113l403 404l403 -404l-113 -113l-210 210v-519h-160v519z" />
<glyph unicode="&#x1f4e5;" horiz-adv-x="2048" d="M1718 1440l202 -590v-658h-1760v658l202 590h169l-197 -576h545l9 -70q2 -13 8 -28t21 -39t47 -39.5t76 -15.5t76.5 16t47.5 41t20.5 39t7.5 25v1l9 70h545l-197 576h169zM320 352h1440v352h-428q-32 -80 -104 -136t-188 -56t-188 56t-104 136h-428v-352zM1443 1434
l-403 -404l-403 404l113 113l210 -210v519h160v-519l210 210z" />
<glyph unicode="&#x1f4e6;" horiz-adv-x="2048" d="M1587 1920l333 -454v-1178h-1760v1178l333 454h1094zM1760 448v864h-512v160h469l-211 288h-386v-448h-160v448h-386l-211 -288h469v-160h-512v-864h1440z" />
<glyph unicode="&#x1f4f0;" horiz-adv-x="2048" d="M672 1792h1280v-1168q0 -152 -108 -260t-260 -108h-1104h-16q-152 0 -260 108t-108 260v944q0 92 65.5 158t158.5 66t158.5 -66t65.5 -158v-800h-160v800q0 26 -19 45t-45 19t-45 -19t-19 -45v-944q0 -86 61 -147t147 -61t147 61t61 147v1168zM1792 624v1008h-960v-1008
q0 -114 -65 -208h817q86 0 147 61t61 147zM1664 768v-160h-704v160h704zM1664 1504v-608h-704v608h704zM1120 1344v-288h384v288h-384z" />
<glyph unicode="&#x1f4f1;" horiz-adv-x="2048" d="M1424 1728q86 0 147 -61t61 -147v-1184q0 -86 -61 -147t-147 -61h-768q-86 0 -147 61t-61 147v1440q0 86 61 147t147 61h128q86 0 147 -61t61 -147v-48h432zM1472 336v1184q0 20 -14 34t-34 14h-592v208q0 20 -14 34t-34 14h-128q-20 0 -34 -14t-14 -34v-1440
q0 -20 14 -34t34 -14h768q20 0 34 14t14 34zM736 928v480h608v-480h-608zM896 1248v-160h288v160h-288z" />
<glyph unicode="&#x1f4f7;" horiz-adv-x="2048" d="M1645 1504q101 0 172 -71.5t71 -173.5v-658q0 -102 -71.5 -175.5t-171.5 -73.5h-249q74 41 144 160h105q34 0 58.5 26.5t24.5 62.5v658q0 36 -24 60.5t-59 24.5h-238l-111 192h-538l-113 -192h-242q-35 0 -59 -24.5t-24 -60.5v-658q0 -36 24.5 -62.5t58.5 -26.5h105
q70 -119 144 -160h-249q-100 0 -171.5 73.5t-71.5 175.5v658q0 102 71 173.5t172 71.5h151l113 192h720l112 -192h146zM1024 352q130 0 240.5 64.5t175 175t64.5 240.5t-64.5 240.5t-175 175t-240.5 64.5t-240.5 -64.5t-175 -175t-64.5 -240.5t64.5 -240.5t175 -175
t240.5 -64.5zM1024 1158q135 0 230.5 -95.5t95.5 -230.5t-95.5 -230.5t-230.5 -95.5t-230.5 95.5t-95.5 230.5t95.5 230.5t230.5 95.5z" />
<glyph unicode="&#x1f4f9;" horiz-adv-x="2048" d="M1885 1248q41 0 70 -29t29 -72v-566q0 -43 -29 -72t-70 -29q-20 0 -41 8l-212 87v-47q0 -100 -70 -170t-170 -70h-1024q-99 0 -169.5 70t-70.5 170v640q0 99 70.5 169.5t169.5 70.5h603l54 -160h-657q-33 0 -56.5 -23.5t-23.5 -56.5v-640q0 -33 23.5 -56.5t56.5 -23.5
h1024q33 0 56.5 23.5t23.5 56.5v640q0 33 -23.5 56.5t-56.5 23.5h-198l-108 320h-734v160h791q26 0 47 -15t29 -39l90 -266h83q100 0 170 -70.5t70 -169.5v-15l212 87q21 8 41 8zM1824 668v392l-192 -79v-234zM1248 640h-736v160h736v-160z" />
<glyph unicode="&#x1f500;" horiz-adv-x="2048" d="M1514 757l114 113l405 -407l-405 -407l-114 113l215 215h-309q-229 0 -351 220q-26 46 -149 250q-90 -147 -150 -250q-122 -220 -351 -220h-355v160h355q70 0 121 33t91 105q23 42 78 133t95 156l48 78l10 17q10 16 25.5 41.5t35 57.5t41 67.5t41 68.5t37 62.5t27.5 47.5
q123 221 351 221h306l-212 213l114 113l405 -407l-405 -407l-114 112l215 216h-309q-70 0 -120.5 -33.5t-90.5 -105.5q-46 -82 -195 -326q155 -254 195 -325q40 -72 90.5 -105t120.5 -33h306zM631 1333q-41 72 -91.5 105.5t-120.5 33.5h-355v160h355q228 0 351 -221
q15 -26 66 -111q-26 -44 -94 -155q-91 153 -111 188z" />
<glyph unicode="&#x1f501;" horiz-adv-x="2048" d="M352 1040q0 -99 54 -183l-114 -114q-100 132 -100 297q0 135 66.5 249t181 180.5t248.5 66.5h708l-215 214l114 113l407 -407l-407 -407l-114 113l215 214h-708q-139 0 -237.5 -98.5t-98.5 -237.5zM1788 1337q100 -132 100 -297q0 -134 -66.5 -248.5t-181 -181
t-248.5 -66.5h-708l215 -214l-113 -114l-408 408l408 407l113 -113l-214 -214h707q139 0 237.5 98.5t98.5 237.5q0 99 -54 182z" />
<glyph unicode="&#x1f508;" horiz-adv-x="2048" d="M1408 291l-422 355l-314 48v684l316 31l420 352v-1470zM832 831l223 -34l193 -163v784l-195 -164l-221 -21v-402z" />
<glyph unicode="&#x1f509;" horiz-adv-x="2048" d="M448 1378l316 31l420 352v-1470l-422 355l-314 48v684zM1024 1418l-195 -164l-221 -21v-402l223 -34l193 -163v784zM1459 1519q138 -229 138 -500q0 -264 -132 -490l-131 94q103 185 103 396q0 217 -109 407z" />
<glyph unicode="&#x1f50a;" horiz-adv-x="2048" d="M192 1378l316 31l420 352v-1470l-422 355l-314 48v684zM768 1418l-195 -164l-221 -21v-402l223 -34l193 -163v784zM1203 1519q138 -229 138 -500q0 -264 -132 -490l-131 94q103 185 103 396q0 217 -109 407zM1439 1687q191 -306 191 -668q0 -354 -185 -658l-131 93
q156 262 156 565q0 312 -162 575zM1674 1857q246 -384 246 -838q0 -449 -240 -828l-130 93q210 336 210 735q0 404 -216 745z" />
<glyph unicode="&#x1f50b;" horiz-adv-x="2048" d="M1779 1344q86 0 145.5 -60.5t59.5 -147.5v-228q0 -86 -59.5 -145t-145.5 -59h-83v-16q0 -86 -61 -147t-147 -61h-1184q-86 0 -147 61t-61 147v672q0 86 61 147t147 61h1184q86 0 147 -61t61 -147v-16h83zM1536 688v672q0 20 -14 34t-34 14h-1184q-20 0 -34 -14t-14 -34
v-672q0 -20 14 -34t34 -14h1184q20 0 34 14t14 34zM1824 908v228q0 20 -13 34t-32 14h-83v-320h83q20 0 32.5 12.5t12.5 31.5zM384 768v512h160v-512h-160zM672 768v512h160v-512h-160zM960 768v512h160v-512h-160zM1248 768v512h160v-512h-160z" />
<glyph unicode="&#x1f50e;" horiz-adv-x="2048" d="M1817 344l-113 -113l-421 421q-177 -138 -402 -138q-130 0 -249.5 49.5t-212.5 141.5q-92 92 -141.5 211.5t-49.5 250.5t49.5 250.5t141.5 211.5q93 92 212.5 141.5t249.5 49.5q131 0 250.5 -49.5t211.5 -141.5q93 -92 142.5 -211.5t49.5 -250.5q0 -224 -139 -402z
M531 818q145 -145 350 -145t350 145q144 144 144 349q0 204 -144 350q-146 144 -350 144q-205 0 -349 -144q-145 -145 -145 -350t144 -349z" />
<glyph unicode="&#x1f511;" horiz-adv-x="2048" d="M464 1216q60 0 102 -42t42 -102t-42 -102t-102 -42t-102 42t-42 102t42 102t102 42zM2013 1286q42 -80 33.5 -176.5t-64.5 -177.5q-21 -30 -42.5 -59.5t-36.5 -49t-27 -35t-19 -24.5l-7 -8l-55 -66l-149 144l-145 -137l-138 132l-113 -125h-195q-84 -104 -204.5 -164
t-258.5 -60q-120 0 -229.5 47t-189 126t-126.5 189t-47 230q0 160 79.5 296.5t216 216t296.5 79.5q138 0 258.5 -60t204.5 -164h691q89 0 159 -40t108 -114zM1851 1024q31 44 36.5 95.5t-16.5 92.5q-36 68 -125 68h-420h-180h-176q-56 102 -157 163t-221 61
q-178 0 -305 -127t-127 -305t127 -305t305 -127q120 0 221 61t157 163h176h6h27l175 195l148 -141l145 137l133 -129q32 41 71 98z" />
<glyph unicode="&#x1f512;" horiz-adv-x="2048" d="M944 768q60 0 102 -42.5t42 -101.5q0 -77 -64 -120v-120h-160v120q-64 43 -64 120q0 59 42 101.5t102 42.5zM1472 1087q81 -6 136.5 -66t55.5 -141v-576q0 -86 -61 -147t-147 -61h-1024q-86 0 -147 61t-61 147v576q0 81 55.5 141t136.5 66v145q0 143 71 264.5
t192.5 192.5t264.5 71t264.5 -71t192.5 -192.5t71 -264.5v-145zM1504 304v576q0 20 -14 34t-34 14h-752v160h608v144q0 152 -108 260t-260 108t-260 -108t-108 -260v-304h-144q-20 0 -34 -14t-14 -34v-576q0 -20 14 -34t34 -14h1024q20 0 34 14t14 34z" />
<glyph unicode="&#x1f513;" horiz-adv-x="2048" d="M1024 384h-160v120q-64 43 -64 120q0 59 42 101.5t102 42.5t102 -42.5t42 -101.5q0 -77 -64 -120v-120zM1456 1088q86 0 147 -61t61 -147v-576q0 -86 -61 -147t-147 -61h-1024q-86 0 -147 61t-61 147v576q0 79 52.5 138t130.5 68l-23 61q-39 102 -31 207.5t49 196.5
t119 163.5t179 109.5q99 36 203 31.5t200 -49.5t166.5 -122t106.5 -176l34 -93l-150 -55l-34 93q-25 69 -74 122.5t-117 85.5q-138 65 -281 12q-141 -51 -207 -190q-65 -137 -13 -281l100 -274h-202q-20 0 -34 -14t-14 -34v-576q0 -20 14 -34t34 -14h1024q20 0 34 14t14 34
v576q0 20 -14 34t-34 14h-685l-59 160h744z" />
<glyph unicode="&#x1f514;" horiz-adv-x="2048" d="M1888 561v-177h-1728v178l27 24q6 4 36.5 35t84 101t103 154.5t90.5 206t50 243.5l26 351l36 21q14 9 53 27t142 42.5t212 24.5h12q68 0 135.5 -10t111.5 -21.5t85 -28t54 -23t22 -11.5l36 -21l26 -351q9 -120 49.5 -241t85 -201t102.5 -156t81 -100.5t41 -41.5l1 -1z
M369 544h1311q-50 57 -97.5 125t-102 167t-91.5 224t-47 255l-19 265q-134 55 -291 55h-12q-156 0 -290 -55l-19 -265q-10 -130 -47.5 -255t-92.5 -223.5t-103 -166.5t-99 -126zM1024 157q49 0 89.5 27.5t58.5 71.5h166q-22 -111 -110 -183.5t-204 -72.5t-204 72.5
t-110 183.5h166q18 -44 58.5 -71.5t89.5 -27.5z" />
<glyph unicode="&#x1f515;" horiz-adv-x="2048" d="M1024 157q49 0 89.5 27.5t58.5 71.5h166q-21 -111 -109 -182t-205 -71t-205 71t-109 182h166q18 -44 58.5 -71.5t89.5 -27.5zM369 544h1132l160 -160h-1501v178l27 24q6 4 36.5 35t84 101t103 154.5t90.5 206t50 243.5l12 157l149 -150l-1 -18q-10 -130 -47.5 -255
t-92.5 -223.5t-103 -166.5t-99 -126zM1784 670l297 -297l-114 -113l-1668 1668l113 113l300 -300q145 51 308 51h12q68 0 135.5 -10t111.5 -21.5t85 -28t54 -23t22 -11.5l36 -21l26 -351q8 -106 38 -210t74.5 -188.5t85 -145t84.5 -112.5zM1020 1635q-94 0 -181 -21
l550 -549q-37 124 -47 250l-19 265q-134 55 -291 55h-12z" />
<glyph unicode="&#x1f516;" horiz-adv-x="2048" d="M1892 1280l-368 -832h-276v-386l-352 224l-352 -224v386h-136q-280 0 -280 363q0 134 34 215q196 466 365 719q50 74 92.5 116t104.5 66.5t147 24.5h1007l-455 -928h-1015q-20 0 -31.5 -1.5t-31 -12.5t-30 -31.5t-19 -63t-8.5 -102.5q0 -59 8.5 -100t18.5 -61t29.5 -30.5
t31 -12t32.5 -1.5h136v224h160v-478l192 122l192 -122v478h160v-224h171l298 672h175zM660 1658q-116 -174 -255 -474h3h915l298 608h-750q-78 0 -116.5 -25.5t-94.5 -108.5z" />
<glyph unicode="&#x1f517;" horiz-adv-x="2048" d="M909 544q36 36 46.5 86t-6.5 96l119 118q51 -80 51 -177q0 -137 -97 -236l-111 -110q-99 -97 -236 -97t-237 98l-148 148q-98 97 -98 235.5t98 236.5l110 110q99 97 236 97q98 0 179 -52l-118 -118q-31 11 -61 11q-73 0 -124 -51l-110 -110q-51 -51 -51 -123.5t51 -123.5
l149 -148q51 -51 124 -51t124 51zM1726 1610q98 -97 98 -235.5t-98 -236.5l-109 -109q-98 -98 -236 -98q-97 0 -177 51l118 118q32 -10 59 -10q72 0 123 51l110 110q51 51 51 123.5t-51 123.5l-148 148q-51 51 -124 51q-74 0 -123 -51l-110 -110q-51 -49 -51 -123
q0 -30 11 -60l-118 -118q-52 80 -52 178q0 137 97 236l110 110q99 97 236 97t236 -97zM783 702l554 554l-113 113l-554 -554z" />
<glyph unicode="&#x1f6ab;" horiz-adv-x="2048" d="M1040 1760q153 0 292 -59.5t240 -160.5t160.5 -240t59.5 -292t-59.5 -292t-160.5 -240t-240 -160.5t-292 -59.5q-151 0 -288.5 57t-243.5 163t-163 243.5t-57 288.5q0 153 59.5 292t160.5 240t240 160.5t292 59.5zM448 1008q0 -198 121 -358l829 829q-160 121 -358 121
q-120 0 -230 -47t-189 -126t-126 -189t-47 -230zM1040 416q160 0 296.5 79.5t216 216t79.5 296.5q0 198 -121 358l-829 -829q160 -121 358 -121z" />
<glyph unicode="&#x1f6ac;" horiz-adv-x="2048" d="M1440 320v480h160v-480h-160zM1728 800h160v-480h-160v480zM0 320v480h1312v-160h-1152v-160h1152v-160h-1312zM1785 928h-173q22 48 37 97t14.5 105.5t-33.5 79.5q-29 21 -109.5 35.5t-148 19.5t-186.5 12t-181 12t-165.5 17t-164 30t-129.5 46t-110.5 71.5t-63.5 99.5
q-20 60 -20 112t22.5 100t53 86.5t72 71.5t79 55.5t74.5 37.5l62 -148q-3 -1 -15 -7t-35 -18.5t-45.5 -29t-47 -39t-38.5 -48t-20 -55t7 -61.5q8 -20 23.5 -37.5t42 -31.5t52.5 -25.5t67 -20.5t72 -16t82.5 -13.5t82.5 -10t87.5 -7.5t82.5 -6t82 -5q117 -7 170.5 -11.5
t136 -15t134 -27.5t87.5 -42q63 -44 85.5 -118.5t13.5 -145.5t-37 -149z" />
<glyph unicode="&#x1f6ad;" horiz-adv-x="2048" d="M1440 320v480h160v-480h-160zM1728 800h160v-480h-160v160v160v160zM1107 1282q-82 5 -141 10t-133.5 15t-128.5 22.5t-111.5 33t-97.5 46.5t-73 62.5t-50 81.5q-20 60 -20 112t22.5 100t53 86.5t71.5 71.5t78.5 55.5t74.5 37.5l62 -148q-3 -1 -15 -7t-34.5 -18.5
t-45.5 -29t-47 -39t-38 -48t-20 -55t7 -61.5q8 -20 23.5 -37.5t42 -31.5t52.5 -25.5t67 -20.5t72 -16t82.5 -13.5t82.5 -10t87.5 -7.5t82.5 -6t82 -5q3 0 9 -0.5t9 -0.5zM1785 928h-173q22 48 37 97t14.5 105.5t-33.5 79.5q-43 31 -205 50l-319 -460h206v-160h-318
l-111 -160h429v-160h-540l-209 -302l-132 92l1195 1719l131 -91l-230 -331q133 -21 195 -66q48 -34 73.5 -83.5t27.5 -106.5t-7.5 -111.5t-30.5 -111.5zM549 480l-111 -160h-438v480h772l-112 -160h-500v-160h389z" />
<glyph unicode="&#x1f6b2;" horiz-adv-x="2048" d="M416 445q78 0 141.5 42.5t94.5 111.5l68 -178q-58 -63 -137 -98t-167 -35q-172 0 -294 122t-122 294t122 294t294 122q13 0 41 -2l67 -180q-52 25 -108 25q-107 0 -183 -76t-76 -183t76 -183t183 -76zM1699 1114q150 -24 249.5 -140t99.5 -270q0 -172 -122 -294
t-294 -122t-294 122t-122 294q0 148 94 263l75 -188q-12 -36 -12 -75q0 -107 76 -183t183 -76t183 76t76 183q0 66 -30.5 122t-83.5 92zM1347 1221l-451 -446l52 -138l-149 -57l-267 700h-116v160h416v-160h-128l130 -342l448 445l-48 121h-178v160h287l363 -914l-148 -60z
" />
<glyph   />
<glyph  horiz-adv-x="682"  />
<glyph unicode=" " horiz-adv-x="512"  />
<glyph unicode="A" horiz-adv-x="1375" d="M1344 0h-218l-145 429h-595l-154 -429h-204l555 1479h230zM905 607l-218 654l-237 -654h455z" />
<glyph unicode="B" horiz-adv-x="1375" d="M1287 443q0 -132 -64.5 -234.5t-168.5 -155.5t-227 -53h-680v1479h668q165 0 280 -99t119 -275q0 -100 -50 -187.5t-142 -121.5q117 -41 191 -133.5t74 -219.5zM1017 1062q0 122 -62.5 181t-219.5 63h-384v-455h389q139 0 206 60.5t71 150.5zM1088 417q0 66 -14 111.5
t-50.5 82.5t-105 56t-171.5 20h-396v-519h462q69 0 123 23t85.5 60.5t48 79.5t18.5 86z" />
<glyph unicode="C" horiz-adv-x="1489" d="M1403 543q-11 -96 -44.5 -183t-89 -160t-128 -126.5t-167 -83.5t-201.5 -30q-150 0 -270.5 49t-196.5 127.5t-127.5 184t-72.5 212t-21 218.5q0 116 27 225t82.5 206t135 170.5t191 118t242.5 48.5q57 0 115.5 -9t125.5 -28.5t127.5 -57t113 -89t90.5 -129.5t52 -173
h-195q-29 147 -137.5 225.5t-262.5 78.5q-105 0 -189 -31t-140.5 -84t-94 -128.5t-55 -160t-19.5 -182.5q2 -91 19 -177t53 -166t87.5 -139.5t128 -95.5t169.5 -36q193 0 310 107t146 299h196z" />
<glyph unicode="D" horiz-adv-x="1489" d="M1384 792q0 -125 -24.5 -240.5t-74 -215t-119 -173.5t-166 -117.5t-208.5 -45.5h-628v1479h621q77 0 155.5 -22t157.5 -74.5t140 -129t101.5 -196t44.5 -265.5zM1178 775q0 85 -13.5 160.5t-45.5 144t-79.5 118t-120 79t-163.5 29.5h-389v-1138h413q119 0 210.5 81
t139.5 218t48 308z" />
<glyph unicode="E" horiz-adv-x="1375" d="M1266 0h-1093v1479h1081v-180h-879v-450h810v-178h-810v-493h891v-178z" />
<glyph unicode="F" horiz-adv-x="1256" d="M1197 1299h-822v-450h725v-178h-725v-671h-202v1479h1024v-180z" />
<glyph unicode="G" horiz-adv-x="1598" d="M1446 0h-128l-47 197q-70 -98 -200 -161.5t-286 -68.5q-146 0 -262 39t-195 108.5t-131.5 168.5t-76 215t-23.5 253q0 112 26.5 219.5t83.5 205t137.5 171t197 118t254.5 45.5q113 0 217.5 -31t190.5 -90t144.5 -152t73.5 -208h-192q-27 109 -95 180t-154 99.5t-194 28.5
q-212 0 -349 -161.5t-137 -435.5q0 -295 134 -454.5t352 -159.5q173 0 310 106q91 74 125.5 158.5t38.5 225.5h-460v171h645v-787z" />
<glyph unicode="H" horiz-adv-x="1489" d="M1332 0h-201v687h-773v-687h-202v1479h202v-614h773v614h201v-1479z" />
<glyph unicode="I" horiz-adv-x="569" d="M386 0h-201v1479h201v-1479z" />
<glyph unicode="J" horiz-adv-x="1029" d="M882 398q0 -117 -33.5 -203t-93.5 -136t-134.5 -73.5t-165.5 -25.5q-93 0 -167 23t-121 60t-78 86.5t-43.5 99t-12.5 100.5v145h187v-104q0 -123 54.5 -181.5t168.5 -58.5q122 0 177.5 62t57.5 194v1093h204v-1081z" />
<glyph unicode="K" horiz-adv-x="1375" d="M1363 0h-258l-520 740l-232 -221v-519h-201v1479h201v-720l718 720h275l-616 -597z" />
<glyph unicode="L" horiz-adv-x="1147" d="M1105 0h-953v1479h201v-1301h752v-178z" />
<glyph unicode="M" horiz-adv-x="1711" d="M1567 0h-197v1242l-412 -1242h-199l-422 1240v-1240h-190v1479h287l426 -1254l422 1254h285v-1479z" />
<glyph unicode="N" horiz-adv-x="1489" d="M1332 0h-227l-754 1192v-1192h-195v1479h237l745 -1197v1197h194v-1479z" />
<glyph unicode="O" horiz-adv-x="1598" d="M1519 740q0 -56 -5.5 -112t-23.5 -134.5t-48 -146.5t-85 -138.5t-127.5 -121t-182.5 -83.5t-243 -35q-145 0 -265.5 43t-203 116.5t-140 172.5t-84 209.5t-26.5 229.5q0 124 27 236t85 209t141.5 168.5t202.5 113t263 43.5q113 0 211 -25.5t169.5 -69.5t129.5 -105
t95.5 -129.5t63 -145t36 -149.5t10.5 -146zM1318 740q0 264 -136.5 426t-377.5 166q-230 0 -372.5 -160.5t-142.5 -431.5q0 -267 138 -428t377 -165q241 0 377.5 162.5t136.5 430.5z" />
<glyph unicode="P" horiz-adv-x="1375" d="M1278 1062q0 -66 -14 -126t-47 -117t-82.5 -99t-125.5 -68.5t-170 -28.5h-464v-623h-202v1479h666q188 0 311 -109t128 -308zM1071 1062q0 244 -291 244h-405v-514h398q295 0 298 270z" />
<glyph unicode="Q" horiz-adv-x="1598" d="M1519 740q0 -358 -215 -569l201 -157l-97 -121l-228 178q-155 -102 -379 -102q-145 0 -265.5 43t-203.5 116.5t-140.5 172.5t-84 209.5t-26.5 229.5q0 124 27 236t85 209t141.5 168.5t203 113t263.5 43.5q113 0 210.5 -25.5t169.5 -69.5t130 -105t96.5 -129.5t64 -145
t36.5 -149.5t11 -146zM1313 740q0 264 -135.5 426t-376.5 166q-231 0 -372.5 -160t-141.5 -432q0 -268 137 -428.5t377 -164.5q119 0 216 47l-154 117l102 125l189 -144q159 165 159 448z" />
<glyph unicode="R" horiz-adv-x="1489" d="M1384 0h-225q-26 57 -37.5 150t-15 186.5t-6.5 113.5q-26 178 -242 181h-502v-631h-202v1479h709q89 0 169 -24t146 -71.5t106 -128t43 -184.5q0 -230 -215 -343q79 -25 126 -87t56 -153q6 -56 12.5 -157t14.5 -165.5t25 -106.5q18 -42 38 -59zM1124 1052
q0 112 -58.5 181t-186.5 73h-523v-502h507q112 0 186.5 69t74.5 179z" />
<glyph unicode="S" horiz-adv-x="1375" d="M1273 415q0 -145 -76.5 -247.5t-204.5 -150.5t-297 -48q-284 0 -438 127t-155 392h185q0 -78 24 -139t62.5 -98.5t93.5 -62.5t109.5 -35.5t118.5 -12.5q59 0 112 7.5t104 25.5t88 45.5t59.5 71t22.5 99.5q0 39 -8.5 69.5t-24.5 54t-44.5 42.5t-64 34t-88 29.5t-110.5 28
t-138 31.5q-36 8 -55 12q-67 15 -119.5 32.5t-106.5 47.5t-90 67.5t-59.5 94t-25.5 125.5q0 92 30 171.5t90 143.5t161 101t231 37q111 0 201.5 -21t148 -51t101.5 -77.5t65.5 -84.5t36 -89.5t17 -75.5t5.5 -58q1 -9 1 -12h-185q0 63 -21.5 114t-57 84.5t-85 56.5
t-100.5 33.5t-108 12.5q-51 0 -96 -6.5t-90.5 -24.5t-77.5 -46.5t-52.5 -75.5t-20.5 -108q0 -141 178 -180l422 -97q332 -74 332 -389z" />
<glyph unicode="T" horiz-adv-x="1256" d="M1230 1299h-502v-1299h-202v1299h-498v180h1202v-180z" />
<glyph unicode="U" horiz-adv-x="1489" d="M1327 486q0 -105 -35.5 -195.5t-106 -162t-187 -113.5t-268.5 -43q-282 0 -423.5 130.5t-145.5 373.5v1003h202v-965q0 -171 95 -269t272 -98q180 0 285.5 94.5t110.5 268.5v969h201v-993z" />
<glyph unicode="V" horiz-adv-x="1375" d="M1330 1479l-538 -1479h-214l-538 1479h233l419 -1263l436 1263h202z" />
<glyph unicode="W" horiz-adv-x="1941" d="M1911 1479l-392 -1479h-208l-337 1225l-346 -1225h-211l-384 1479h216l272 -1206l339 1206h216l339 -1206l273 1206h223z" />
<glyph unicode="X" horiz-adv-x="1375" d="M1332 0h-249l-396 607l-410 -607h-239l529 759l-498 720h251l375 -566l376 566h240l-496 -723z" />
<glyph unicode="Y" horiz-adv-x="1375" d="M1342 1479l-557 -889v-590h-200v590l-554 889h242l422 -711l424 711h223z" />
<glyph unicode="Z" horiz-adv-x="1256" d="M1209 0h-1162v164l906 1137h-839v178h1095v-173l-910 -1126h910v-180z" />
<glyph unicode="a" horiz-adv-x="1147" d="M1093 2v-2q-57 -21 -119 -21q-168 0 -173 161q-154 -166 -389 -173q-151 0 -246 89t-95 214q0 60 15.5 109t39.5 82.5t64 60.5t76.5 42.5t91 29.5t93.5 20.5t98 16.5t91 16q82 14 117 50.5t35 79.5q0 83 -63.5 133t-185.5 50q-110 0 -176.5 -53t-70.5 -160h-168
q0 147 111.5 250.5t327.5 107.5q106 0 195.5 -32.5t150.5 -106.5t61 -179v-576q0 -60 22.5 -82t96.5 4v-131zM787 358v194q-29 -19 -84 -34t-111.5 -23.5t-117.5 -25t-108 -37.5t-77.5 -62t-30.5 -97q0 -78 52 -118.5t140 -40.5q51 0 109 17t109.5 47t85 77.5t33.5 102.5z
" />
<glyph unicode="b" horiz-adv-x="1147" d="M1088 569q3 -85 -10.5 -166.5t-48 -161.5t-88 -140t-138.5 -97t-191 -37q-104 0 -187.5 42.5t-130.5 123.5l-14 -133h-164v1479h185v-538q59 78 138.5 119t191.5 45q197 0 323.5 -149.5t133.5 -386.5zM898 538q0 198 -79 301.5t-222 103.5q-82 0 -143.5 -38.5t-95 -100.5
t-49 -128.5t-15.5 -135.5q0 -404 313 -414q140 0 215.5 112.5t75.5 299.5z" />
<glyph unicode="c" horiz-adv-x="1029" d="M991 379q-12 -111 -57 -194t-111 -129t-138 -67.5t-149 -21.5q-203 0 -340 158.5t-137 412.5q0 140 39.5 251t107 179t153.5 103.5t184 35.5q62 0 119.5 -11.5t114.5 -40t100.5 -71.5t74.5 -112t39 -156h-173q-10 106 -83.5 166.5t-184.5 60.5q-63 0 -114.5 -21t-94 -66
t-66.5 -126t-24 -192q0 -170 85 -287.5t214 -117.5q109 0 176.5 62t88.5 184h176z" />
<glyph unicode="d" horiz-adv-x="1147" d="M64 569q7 237 133.5 386.5t323.5 149.5q113 -4 191.5 -45t138.5 -119v538h185v-1479h-164v152q-48 -82 -139.5 -133.5t-192.5 -51.5q-106 0 -191 37t-138.5 97t-88 140t-48 161.5t-10.5 166.5zM254 538q0 -187 75.5 -299.5t215.5 -112.5q313 10 313 414q0 69 -15.5 135.5
t-48.5 128.5t-94.5 100.5t-144.5 38.5q-143 0 -222 -103.5t-79 -301.5z" />
<glyph unicode="e" horiz-adv-x="1147" d="M1074 476h-804q0 -150 91.5 -246.5t226.5 -96.5q68 0 125 22t91 54.5t52.5 66.5t18.5 61h185q-30 -172 -161 -270t-321 -98q-114 0 -209 42.5t-157 116t-97 171t-37 208.5q0 270 139.5 436t365.5 166q160 0 273.5 -81.5t168 -223.5t49.5 -328zM884 623q0 144 -87 234.5
t-212 90.5q-128 0 -219 -95.5t-96 -229.5h614z" />
<glyph unicode="f" horiz-adv-x="569" d="M538 1493v-149q-31 5 -76 5q-54 0 -76.5 -25t-22.5 -84v-164h175v-163h-175v-913h-185v913h-150v163h150v199q0 98 73.5 164t191.5 66q55 0 95 -12z" />
<glyph unicode="g" horiz-adv-x="1228" d="M1086 47q0 -262 -128 -390.5t-358 -128.5q-33 0 -66 3t-75 12.5t-79.5 24.5t-74.5 41.5t-63.5 61t-43.5 85t-18 111.5h180q0 -80 68 -125t160 -45q150 0 233.5 83t83.5 253v64q-65 -70 -145.5 -99t-183.5 -29q-84 0 -166.5 36.5t-151 103t-112 171.5t-46.5 230
q0 277 139.5 436t362.5 159q98 0 180 -42t123 -110v130h181v-1036zM905 536q0 180 -82.5 283t-227.5 103q-56 0 -109 -23t-97 -67t-70.5 -116.5t-26.5 -163.5q0 -106 26.5 -189.5t71.5 -132.5t99 -74.5t113 -25.5q132 0 216 107.5t87 298.5z" />
<glyph unicode="h" horiz-adv-x="1147" d="M1012 0h-185v704q0 117 -50 178t-161 61q-61 0 -113.5 -21t-96 -62.5t-68.5 -112t-25 -162.5v-585h-185v1479h185v-547q55 85 147 128t187 47q55 0 104 -10.5t98 -38t84 -70.5t57 -112.5t22 -159.5v-716z" />
<glyph unicode="i" horiz-adv-x="460" d="M318 1271h-185v203h185v-203zM318 0h-185v1076h185v-1076z" />
<glyph unicode="j" horiz-adv-x="543" d="M405 -185q0 -106 -70 -175t-200 -69q-59 0 -92 7v157q41 -10 83 -10q51 0 72.5 29t21.5 101v1221h185v-1261zM405 1271h-185v208h185v-208z" />
<glyph unicode="k" horiz-adv-x="1029" d="M1029 0h-230l-356 526l-130 -128v-398h-185v1479h185v-860l460 457h232l-429 -412z" />
<glyph unicode="l" horiz-adv-x="460" d="M320 0h-187v1479h187v-1479z" />
<glyph unicode="m" horiz-adv-x="1711" d="M1586 0h-185v695q0 248 -199 248q-108 0 -177 -78t-74 -211v-654h-185v742q0 84 -42 142.5t-131 58.5q-53 0 -99.5 -18.5t-87 -58t-65 -112t-26.5 -169.5v-585h-185v1076h171v-152q57 89 144 135t186 46q113 0 179.5 -46t109.5 -127q46 72 131 122.5t198 50.5
q42 0 84 -8.5t89 -33.5t82 -63.5t58.5 -105t23.5 -152.5v-742z" />
<glyph unicode="n" horiz-adv-x="1147" d="M1012 0h-185v673q0 61 -10 107.5t-33 84.5t-65.5 58t-102.5 20q-130 0 -216.5 -88.5t-86.5 -240.5v-614h-185v1076h175v-156q15 24 43.5 52.5t72 60t104 52t124.5 20.5q166 0 265.5 -96t99.5 -293v-716z" />
<glyph unicode="o" horiz-adv-x="1147" d="M1081 538q0 -112 -34.5 -213t-97.5 -179.5t-159.5 -126t-213.5 -50.5q-94 0 -175 30.5t-140.5 84t-102 125t-64 155.5t-21.5 174q0 155 58 283t174 207t271 79t271.5 -79t175 -207t58.5 -283zM891 538q1 68 -16.5 136t-53.5 129.5t-100 101t-145 41.5q-80 0 -143 -39
t-98.5 -101.5t-53.5 -131t-18 -136.5q0 -81 18 -152.5t54 -130.5t98 -93t143 -34q82 0 143.5 34t97 93.5t53.5 129.5t21 153z" />
<glyph unicode="p" horiz-adv-x="1147" d="M1090 507q-7 -237 -134 -386t-325 -149q-112 3 -190 44t-138 119v-562h-187v1503h166v-152q48 82 139.5 133.5t192.5 51.5q106 0 191 -37t138.5 -97t88.5 -140t48 -161.5t10 -166.5zM901 538q0 187 -76 300t-216 113q-160 -6 -236.5 -114t-76.5 -301q0 -69 15.5 -135
t48.5 -128.5t95 -101t145 -38.5q143 0 222 103.5t79 301.5z" />
<glyph unicode="q" horiz-adv-x="1147" d="M45 507q0 85 14 166t48.5 161.5t87 140t136.5 97t190 37.5q103 0 186 -42.5t130 -123.5l16 133h166v-1503h-185v562q-62 -78 -140 -119t-189 -44q-201 0 -328 143.5t-132 391.5zM235 538q0 -198 80 -301.5t223 -103.5q66 0 119 26t86.5 67t55.5 95.5t31 107.5t9 107
q0 404 -313 415q-140 0 -215.5 -113t-75.5 -300z" />
<glyph unicode="r" horiz-adv-x="683" d="M609 913q-154 0 -250 -71.5t-96 -196.5v-645h-185v1076h178v-182q94 206 353 206v-187z" />
<glyph unicode="s" horiz-adv-x="1029" d="M960 325q0 -155 -113.5 -256.5t-310.5 -101.5q-97 0 -176 20.5t-142.5 64.5t-101.5 118.5t-45 175.5h178q0 -220 287 -220q101 0 172.5 43t71.5 125q0 44 -23 70t-102 55t-247 69q-48 12 -81.5 22.5t-78 32.5t-72 49t-47.5 71.5t-20 99.5q0 163 114.5 253.5t293.5 90.5
q99 0 175.5 -26t118.5 -63t69.5 -86.5t36 -87.5t10.5 -76h-176q0 88 -64 134t-189 46q-15 0 -30 -1t-42 -5.5t-49 -14.5t-44.5 -26t-35.5 -43t-15 -62q0 -66 62.5 -95.5t267.5 -78.5q23 -5 35 -8q55 -15 95.5 -30t83.5 -39t70 -53t45 -71.5t19 -95.5z" />
<glyph unicode="t" horiz-adv-x="569" d="M538 128v-152q-57 -12 -95 -12q-118 0 -191.5 67t-73.5 163v719h-140v163h140v304h185v-304h175v-163h-175v-681q0 -59 22.5 -85t76.5 -26q33 0 76 7z" />
<glyph unicode="u" horiz-adv-x="1147" d="M116 1076h187v-673q0 -61 10 -107.5t33 -84.5t65.5 -58t102.5 -20q129 0 216.5 89t87.5 240v614h185v-1076h-178v156q-14 -24 -43 -52.5t-72 -59.5t-104 -51.5t-125 -20.5q-166 0 -265.5 95.5t-99.5 292.5v716z" />
<glyph unicode="v" horiz-adv-x="1029" d="M988 1076l-410 -1076h-194l-391 1076h206l294 -882l301 882h194z" />
<glyph unicode="w" horiz-adv-x="1489" d="M1458 1076l-311 -1076h-189l-216 832l-216 -832h-189l-309 1076h197l204 -848l220 848h202l211 -848l216 848h180z" />
<glyph unicode="x" horiz-adv-x="1029" d="M1007 0h-232l-265 405l-261 -405h-228l380 555l-361 521h233l248 -381l252 381h218l-363 -524z" />
<glyph unicode="y" horiz-adv-x="1029" d="M1007 1076q-166 -472 -314.5 -865.5t-182.5 -461.5q-66 -133 -149 -171.5t-235 -4.5v166q35 -13 63.5 -18.5t60 -3t58 22t45.5 56.5l74 171l-403 1109h204l293 -879l292 879h194z" />
<glyph unicode="z" horiz-adv-x="1029" d="M965 0h-901v140l647 784h-597v152h829v-149l-642 -780h664v-147z" />
</font>
</defs>
</svg>
